<svg xmlns="http://www.w3.org/2000/svg" xmlns:xlink="http://www.w3.org/1999/xlink" width="500" zoomAndPan="magnify" viewBox="0 0 375 374.999991" height="500" preserveAspectRatio="xMidYMid meet" version="1.0"><defs><clipPath id="859d283280"><path d="M 47 74 L 142 74 L 142 153 L 47 153 Z M 47 74 " clip-rule="nonzero"/></clipPath><clipPath id="83c31b5cfc"><path d="M 55.390625 232.96875 L 37.496094 45.574219 L 391.386719 11.777344 L 409.28125 199.175781 Z M 55.390625 232.96875 " clip-rule="nonzero"/></clipPath><clipPath id="45f5373684"><path d="M 55.390625 232.96875 L 37.496094 45.574219 L 376.453125 13.203125 L 394.347656 200.601562 Z M 55.390625 232.96875 " clip-rule="nonzero"/></clipPath><clipPath id="bcfdd6b56d"><path d="M 55.390625 232.96875 L 37.496094 45.574219 L 391.386719 11.777344 L 409.28125 199.175781 Z M 55.390625 232.96875 " clip-rule="nonzero"/></clipPath><clipPath id="131fb88879"><path d="M 304 65 L 375 65 L 375 199 L 304 199 Z M 304 65 " clip-rule="nonzero"/></clipPath><clipPath id="105476bf03"><path d="M 55.390625 232.96875 L 37.496094 45.574219 L 391.386719 11.777344 L 409.28125 199.175781 Z M 55.390625 232.96875 " clip-rule="nonzero"/></clipPath><clipPath id="618cb78b1e"><path d="M 55.390625 232.96875 L 37.496094 45.574219 L 376.453125 13.203125 L 394.347656 200.601562 Z M 55.390625 232.96875 " clip-rule="nonzero"/></clipPath><clipPath id="ee47bde6c9"><path d="M 55.390625 232.96875 L 37.496094 45.574219 L 391.386719 11.777344 L 409.28125 199.175781 Z M 55.390625 232.96875 " clip-rule="nonzero"/></clipPath><clipPath id="662f1e240c"><path d="M 113 81 L 223 81 L 223 221 L 113 221 Z M 113 81 " clip-rule="nonzero"/></clipPath><clipPath id="16a986d2c7"><path d="M 55.390625 232.96875 L 37.496094 45.574219 L 391.386719 11.777344 L 409.28125 199.175781 Z M 55.390625 232.96875 " clip-rule="nonzero"/></clipPath><clipPath id="96f391b4c8"><path d="M 55.390625 232.96875 L 37.496094 45.574219 L 376.453125 13.203125 L 394.347656 200.601562 Z M 55.390625 232.96875 " clip-rule="nonzero"/></clipPath><clipPath id="b40b05ea96"><path d="M 55.390625 232.96875 L 37.496094 45.574219 L 391.386719 11.777344 L 409.28125 199.175781 Z M 55.390625 232.96875 " clip-rule="nonzero"/></clipPath><clipPath id="3067f13fb4"><path d="M 162 31 L 306 31 L 306 159 L 162 159 Z M 162 31 " clip-rule="nonzero"/></clipPath><clipPath id="8471dce786"><path d="M 55.390625 232.96875 L 37.496094 45.574219 L 391.386719 11.777344 L 409.28125 199.175781 Z M 55.390625 232.96875 " clip-rule="nonzero"/></clipPath><clipPath id="69e0dc0f8c"><path d="M 55.390625 232.96875 L 37.496094 45.574219 L 376.453125 13.203125 L 394.347656 200.601562 Z M 55.390625 232.96875 " clip-rule="nonzero"/></clipPath><clipPath id="7dadde7857"><path d="M 55.390625 232.96875 L 37.496094 45.574219 L 391.386719 11.777344 L 409.28125 199.175781 Z M 55.390625 232.96875 " clip-rule="nonzero"/></clipPath><clipPath id="a632d91caa"><path d="M 247 179 L 262.5 179 L 262.5 216 L 247 216 Z M 247 179 " clip-rule="nonzero"/></clipPath><clipPath id="6f4fb27cf0"><path d="M 140 207 L 234 207 L 234 278.023438 L 140 278.023438 Z M 140 207 " clip-rule="nonzero"/></clipPath></defs><g clip-path="url(#859d283280)"><g clip-path="url(#83c31b5cfc)"><g clip-path="url(#45f5373684)"><g clip-path="url(#bcfdd6b56d)"><path fill="#808285" d="M 87.925781 74.132812 C 87.898438 74.140625 87.871094 74.152344 87.847656 74.164062 C 87.847656 74.164062 87.84375 74.164062 87.84375 74.167969 C 87.828125 74.175781 87.8125 74.183594 87.796875 74.195312 L 60.835938 92.929688 C 60.808594 92.949219 60.785156 92.96875 60.765625 92.992188 C 60.765625 92.992188 60.761719 92.996094 60.761719 92.996094 C 60.726562 93.039062 60.695312 93.089844 60.675781 93.148438 C 60.675781 93.148438 60.675781 93.148438 60.675781 93.152344 C 60.675781 93.160156 60.671875 93.164062 60.671875 93.171875 L 47.070312 145.523438 C 47.054688 145.570312 47.050781 145.621094 47.054688 145.675781 C 47.054688 145.699219 47.0625 145.722656 47.070312 145.746094 C 47.089844 145.820312 47.128906 145.886719 47.183594 145.9375 C 47.207031 145.960938 47.238281 145.984375 47.269531 146 C 47.339844 146.042969 47.425781 146.0625 47.511719 146.054688 C 47.527344 146.050781 47.539062 146.050781 47.554688 146.046875 C 47.558594 146.046875 47.5625 146.046875 47.566406 146.046875 L 68.855469 141.296875 L 87.234375 152.25 C 87.285156 152.277344 87.335938 152.296875 87.394531 152.304688 C 87.394531 152.304688 87.398438 152.304688 87.398438 152.304688 C 87.410156 152.308594 87.425781 152.308594 87.4375 152.308594 C 87.4375 152.308594 87.4375 152.308594 87.441406 152.308594 C 87.453125 152.308594 87.464844 152.308594 87.476562 152.308594 L 114.574219 150.683594 C 114.609375 150.683594 114.640625 150.675781 114.671875 150.667969 C 114.671875 150.667969 114.675781 150.667969 114.675781 150.667969 C 114.675781 150.664062 114.679688 150.664062 114.683594 150.664062 C 114.683594 150.664062 114.6875 150.664062 114.6875 150.664062 C 114.691406 150.664062 114.691406 150.664062 114.691406 150.664062 C 114.765625 150.636719 114.828125 150.59375 114.875 150.539062 L 140.960938 120.136719 C 141.035156 120.046875 141.070312 119.933594 141.058594 119.824219 C 141.058594 119.820312 141.058594 119.8125 141.054688 119.804688 L 134.738281 74.589844 C 134.738281 74.589844 134.738281 74.585938 134.738281 74.585938 C 134.738281 74.582031 134.738281 74.582031 134.738281 74.582031 L 134.738281 74.578125 C 134.726562 74.488281 134.683594 74.410156 134.621094 74.351562 C 134.597656 74.328125 134.570312 74.304688 134.539062 74.289062 C 134.476562 74.25 134.402344 74.226562 134.324219 74.226562 C 134.308594 74.230469 134.292969 74.230469 134.28125 74.230469 L 100.347656 77.523438 L 88.15625 74.136719 C 88.144531 74.132812 88.132812 74.132812 88.121094 74.128906 C 88.117188 74.128906 88.117188 74.128906 88.117188 74.128906 C 88.054688 74.113281 87.988281 74.117188 87.925781 74.132812 Z M 101.320312 128.433594 L 71.949219 117.457031 L 85.835938 108.917969 Z M 86.839844 108.835938 L 100.980469 109.597656 L 102.089844 128.050781 Z M 110.941406 111.402344 L 113.984375 148.417969 L 103.054688 129.328125 Z M 102.902344 127.597656 L 101.824219 109.644531 L 110.59375 110.117188 Z M 101.773438 108.800781 L 100.480469 87.296875 L 110.550781 109.277344 Z M 100.929688 108.753906 L 86.652344 107.984375 L 99.59375 86.460938 Z M 85.128906 108.367188 L 71.199219 116.933594 L 61.945312 94.292969 Z M 61.164062 94.601562 L 70.511719 117.476562 L 48.347656 143.9375 Z M 48.589844 144.957031 L 70.460938 118.84375 L 68.539062 140.507812 Z M 69.371094 140.625 L 71.28125 119.109375 L 86.472656 150.816406 Z M 71.824219 118.308594 L 101.941406 129.5625 L 87.511719 151.046875 Z M 88.273438 151.417969 L 102.558594 130.148438 L 113.855469 149.886719 Z M 139.921875 120.058594 L 114.890625 149.226562 L 111.695312 110.339844 Z M 140.132812 119.242188 L 111.871094 109.511719 L 134.066406 75.804688 Z M 111.292969 108.875 L 100.511719 85.351562 L 133.335938 75.382812 Z M 100.378906 84.511719 L 100.710938 78.328125 L 130.160156 75.46875 Z M 99.875 78.261719 L 99.558594 84.199219 L 89.675781 75.425781 Z M 99.390625 85.171875 L 86.457031 106.675781 L 88.40625 75.421875 Z M 85.554688 107.644531 L 61.847656 93.25 L 87.570312 75.375 Z M 85.554688 107.644531 " fill-opacity="1" fill-rule="nonzero"/></g></g></g></g><g clip-path="url(#131fb88879)"><g clip-path="url(#105476bf03)"><g clip-path="url(#618cb78b1e)"><g clip-path="url(#ee47bde6c9)"><path fill="#ffffff" d="M 349.480469 65.695312 C 349.449219 65.707031 349.421875 65.71875 349.398438 65.734375 C 349.355469 65.761719 349.320312 65.792969 349.292969 65.828125 L 304.804688 119.816406 C 304.800781 119.824219 304.796875 119.828125 304.792969 119.835938 C 304.792969 119.835938 304.789062 119.835938 304.789062 119.835938 C 304.738281 119.910156 304.707031 119.996094 304.707031 120.082031 L 304.226562 158.292969 C 304.222656 158.320312 304.226562 158.347656 304.230469 158.378906 C 304.238281 158.414062 304.25 158.445312 304.261719 158.476562 C 304.261719 158.476562 304.261719 158.480469 304.261719 158.480469 C 304.289062 158.535156 304.328125 158.589844 304.382812 158.632812 C 304.394531 158.640625 304.40625 158.652344 304.421875 158.660156 L 316.433594 166.339844 L 336.746094 198.015625 C 336.753906 198.023438 336.757812 198.035156 336.765625 198.042969 C 336.816406 198.109375 336.882812 198.15625 336.957031 198.183594 C 336.984375 198.195312 337.011719 198.203125 337.042969 198.207031 C 337.046875 198.207031 337.046875 198.207031 337.046875 198.207031 C 337.132812 198.21875 337.21875 198.203125 337.300781 198.160156 C 337.308594 198.15625 337.316406 198.152344 337.320312 198.148438 L 388.367188 166.960938 C 388.371094 166.960938 388.371094 166.960938 388.375 166.957031 C 388.382812 166.953125 388.375 166.957031 388.375 166.957031 C 388.453125 166.90625 388.515625 166.832031 388.546875 166.734375 C 388.550781 166.726562 388.554688 166.71875 388.554688 166.714844 L 401.679688 119.816406 C 401.679688 119.808594 401.683594 119.800781 401.683594 119.792969 C 401.6875 119.792969 401.683594 119.789062 401.683594 119.789062 C 401.683594 119.789062 401.683594 119.789062 401.6875 119.789062 C 401.695312 119.746094 401.695312 119.703125 401.691406 119.660156 C 401.6875 119.617188 401.675781 119.578125 401.660156 119.535156 C 401.648438 119.503906 401.632812 119.480469 401.613281 119.453125 L 384.355469 94.96875 C 384.347656 94.960938 384.34375 94.953125 384.335938 94.945312 C 384.335938 94.945312 384.335938 94.941406 384.332031 94.941406 C 384.324219 94.933594 384.316406 94.925781 384.308594 94.914062 C 384.308594 94.914062 384.308594 94.914062 384.304688 94.914062 C 384.304688 94.910156 384.304688 94.910156 384.304688 94.910156 C 384.269531 94.878906 384.226562 94.851562 384.183594 94.832031 C 384.183594 94.832031 384.183594 94.832031 384.183594 94.828125 C 384.183594 94.828125 384.179688 94.828125 384.179688 94.828125 C 384.160156 94.820312 384.144531 94.816406 384.125 94.808594 L 359.984375 87.957031 L 350.007812 65.917969 C 350.003906 65.914062 350.003906 65.910156 350 65.90625 C 349.957031 65.816406 349.882812 65.75 349.796875 65.710938 C 349.761719 65.695312 349.726562 65.683594 349.6875 65.675781 C 349.652344 65.671875 349.617188 65.671875 349.585938 65.675781 C 349.546875 65.675781 349.511719 65.679688 349.480469 65.695312 Z M 348.648438 67.933594 L 336.753906 108.601562 L 306.40625 119.195312 Z M 336.707031 109.507812 L 337.613281 128.570312 L 306.539062 120.039062 Z M 337.550781 109.628906 L 369.839844 126.089844 L 338.457031 128.671875 Z M 305.542969 120.632812 L 337.195312 129.324219 L 305.078125 157.371094 Z M 349.65625 142.210938 L 356.378906 149.441406 L 326.234375 158.75 Z M 324.871094 158.6875 L 338.179688 129.871094 L 349.078125 141.59375 Z M 350.347656 141.726562 L 369.929688 127.898438 L 357.078125 148.960938 Z M 349.773438 141.105469 L 338.957031 129.472656 L 369.84375 126.929688 Z M 305.667969 157.96875 L 336.855469 130.738281 L 323.578125 159.488281 Z M 306.304688 158.867188 L 322.804688 160.265625 L 316.699219 165.515625 Z M 317.285156 166.117188 L 323.640625 160.648438 L 335.523438 194.550781 Z M 324.375 160.203125 L 356.410156 150.3125 L 337.132812 196.617188 Z M 337.984375 196.757812 L 357.347656 150.238281 L 387.3125 166.625 Z M 387.886719 165.980469 L 357.949219 149.609375 L 400.5625 120.691406 Z M 358.511719 148.210938 L 371.609375 126.757812 L 399.214844 120.589844 Z M 400.566406 119.429688 L 372.035156 125.800781 L 384.109375 96.078125 Z M 371.128906 125.804688 L 338.230469 109.03125 L 383.292969 95.855469 Z M 382.492188 95.21875 L 338.71875 108.015625 L 359.792969 88.773438 Z M 359.175781 88.199219 L 337.921875 107.605469 L 349.707031 67.292969 Z M 359.175781 88.199219 " fill-opacity="1" fill-rule="nonzero"/></g></g></g></g><g clip-path="url(#662f1e240c)"><g clip-path="url(#16a986d2c7)"><g clip-path="url(#96f391b4c8)"><g clip-path="url(#b40b05ea96)"><path fill="#a7a9ac" d="M 133.136719 81.714844 C 133.070312 81.734375 133.003906 81.769531 132.949219 81.824219 C 132.933594 81.839844 132.917969 81.855469 132.90625 81.875 C 132.90625 81.875 132.902344 81.875 132.902344 81.875 C 132.871094 81.917969 132.851562 81.96875 132.835938 82.019531 L 114.007812 150.460938 C 114.003906 150.46875 114.003906 150.480469 114 150.492188 C 113.988281 150.558594 113.988281 150.621094 114.007812 150.6875 C 114.007812 150.6875 114.007812 150.6875 114.007812 150.691406 C 114.007812 150.695312 114.007812 150.695312 114.007812 150.695312 C 114.007812 150.695312 114.007812 150.699219 114.007812 150.699219 C 114.007812 150.699219 114.007812 150.699219 114.011719 150.703125 C 114.011719 150.707031 114.011719 150.710938 114.011719 150.714844 C 114.015625 150.714844 114.015625 150.714844 114.015625 150.71875 C 114.015625 150.722656 114.015625 150.722656 114.015625 150.722656 C 114.015625 150.726562 114.015625 150.726562 114.015625 150.726562 C 114.019531 150.734375 114.023438 150.742188 114.027344 150.75 L 132.410156 189.753906 C 132.417969 189.773438 132.429688 189.789062 132.441406 189.808594 C 132.453125 189.828125 132.46875 189.847656 132.484375 189.863281 C 132.484375 189.863281 132.484375 189.867188 132.484375 189.867188 C 132.527344 189.910156 132.582031 189.949219 132.644531 189.972656 C 132.660156 189.976562 132.675781 189.980469 132.6875 189.984375 L 148.789062 194.144531 L 185.226562 220.179688 C 185.238281 220.191406 185.253906 220.199219 185.265625 220.207031 C 185.335938 220.246094 185.410156 220.261719 185.484375 220.261719 C 185.515625 220.257812 185.550781 220.253906 185.578125 220.246094 C 185.660156 220.226562 185.730469 220.183594 185.789062 220.117188 C 185.796875 220.109375 185.800781 220.105469 185.804688 220.097656 L 222.597656 172.84375 C 222.664062 172.761719 222.699219 172.65625 222.6875 172.546875 C 222.6875 172.535156 222.6875 172.527344 222.683594 172.519531 C 222.683594 172.519531 222.683594 172.519531 222.683594 172.515625 C 222.683594 172.511719 222.683594 172.511719 222.683594 172.507812 L 212.941406 120.828125 C 212.925781 120.75 212.894531 120.675781 212.835938 120.617188 C 212.835938 120.613281 212.835938 120.617188 212.835938 120.617188 C 212.835938 120.617188 212.835938 120.613281 212.835938 120.613281 L 212.832031 120.613281 C 212.808594 120.589844 212.78125 120.566406 212.753906 120.550781 L 183.011719 100.910156 C 182.988281 100.894531 182.960938 100.878906 182.933594 100.871094 C 182.933594 100.871094 182.933594 100.867188 182.933594 100.867188 C 182.933594 100.867188 182.929688 100.867188 182.929688 100.867188 C 182.878906 100.847656 182.824219 100.839844 182.773438 100.839844 L 154.65625 101.226562 L 133.523438 81.8125 C 133.445312 81.746094 133.351562 81.707031 133.257812 81.703125 C 133.21875 81.699219 133.175781 81.707031 133.136719 81.714844 Z M 133.152344 84.03125 L 141.132812 129.3125 L 115.148438 149.472656 Z M 115.671875 150.128906 L 141.457031 130.125 L 151.855469 149.332031 Z M 170.046875 159.089844 L 153.609375 184.035156 L 152.984375 150.425781 Z M 153.570312 149.785156 L 184.148438 137.691406 L 170.511719 158.386719 Z M 170.800781 159.472656 L 181.386719 164.847656 L 154.800781 183.75 Z M 171.261719 158.765625 L 184.625 138.492188 L 181.847656 164.140625 Z M 185.625 137.070312 L 211.113281 122.210938 L 182.789062 163.191406 Z M 152.742188 149.210938 L 142.367188 130.046875 L 183.671875 136.976562 Z M 115.066406 150.980469 L 151.867188 150.171875 L 132.800781 188.613281 Z M 152.164062 151.460938 L 152.789062 185.046875 L 133.546875 188.996094 Z M 134.652344 189.625 L 152.449219 185.976562 L 148.75 193.269531 Z M 149.507812 193.625 L 153.316406 186.109375 L 182.28125 217.042969 Z M 153.851562 185.453125 L 181.820312 165.570312 L 184.988281 218.707031 Z M 221.523438 172.867188 L 185.828125 218.707031 L 182.640625 165.300781 Z M 221.746094 172.054688 L 182.90625 164.5 L 212.308594 121.964844 Z M 211.738281 120.878906 L 185.601562 136.109375 L 183.261719 102.078125 Z M 184.777344 136.3125 L 142.683594 129.25 L 182.414062 102.019531 Z M 181.402344 101.699219 L 142.613281 128.28125 L 154.769531 102.0625 Z M 153.988281 101.746094 L 141.769531 128.101562 L 133.871094 83.269531 Z M 153.988281 101.746094 " fill-opacity="1" fill-rule="nonzero"/></g></g></g></g><g clip-path="url(#3067f13fb4)"><g clip-path="url(#8471dce786)"><g clip-path="url(#69e0dc0f8c)"><g clip-path="url(#7dadde7857)"><path fill="#d1d3d4" d="M 186.082031 31.722656 C 186.023438 31.757812 185.972656 31.808594 185.9375 31.875 C 185.929688 31.886719 185.921875 31.902344 185.917969 31.917969 L 162.84375 87.308594 C 162.832031 87.332031 162.824219 87.355469 162.820312 87.378906 C 162.816406 87.390625 162.8125 87.40625 162.8125 87.417969 C 162.800781 87.507812 162.816406 87.605469 162.871094 87.691406 C 162.871094 87.699219 162.875 87.703125 162.878906 87.710938 L 195.921875 137.277344 C 195.949219 137.320312 195.984375 137.355469 196.027344 137.386719 C 196.027344 137.386719 196.027344 137.386719 196.027344 137.390625 C 196.027344 137.390625 196.027344 137.390625 196.03125 137.390625 C 196.035156 137.394531 196.042969 137.398438 196.046875 137.402344 C 196.046875 137.402344 196.046875 137.402344 196.050781 137.402344 C 196.050781 137.402344 196.054688 137.402344 196.054688 137.402344 C 196.085938 137.421875 196.121094 137.4375 196.152344 137.449219 L 239.074219 150.542969 C 239.09375 150.550781 239.113281 150.554688 239.136719 150.558594 C 239.183594 150.5625 239.230469 150.5625 239.277344 150.554688 C 239.28125 150.554688 239.28125 150.554688 239.28125 150.554688 L 271.964844 143.957031 L 304.816406 158.753906 C 304.820312 158.757812 304.820312 158.757812 304.820312 158.757812 L 304.824219 158.757812 C 304.890625 158.789062 304.960938 158.796875 305.027344 158.792969 C 305.066406 158.789062 305.105469 158.777344 305.140625 158.765625 C 305.144531 158.765625 305.144531 158.765625 305.144531 158.765625 C 305.144531 158.765625 305.148438 158.765625 305.148438 158.761719 C 305.167969 158.757812 305.1875 158.746094 305.203125 158.734375 C 305.269531 158.695312 305.328125 158.636719 305.363281 158.5625 C 305.363281 158.5625 305.367188 158.5625 305.367188 158.5625 C 305.375 158.546875 305.378906 158.53125 305.386719 158.511719 C 305.40625 158.453125 305.417969 158.390625 305.40625 158.328125 L 298.644531 85.6875 C 298.644531 85.6875 298.644531 85.683594 298.644531 85.683594 C 298.644531 85.671875 298.636719 85.660156 298.640625 85.652344 C 298.636719 85.652344 298.636719 85.648438 298.640625 85.648438 C 298.632812 85.613281 298.621094 85.578125 298.605469 85.546875 C 298.605469 85.546875 298.605469 85.546875 298.605469 85.542969 C 298.582031 85.496094 298.550781 85.453125 298.511719 85.417969 L 260.714844 50.4375 C 260.699219 50.421875 260.679688 50.40625 260.660156 50.394531 C 260.660156 50.394531 260.660156 50.394531 260.65625 50.394531 C 260.59375 50.355469 260.523438 50.328125 260.445312 50.328125 L 239.886719 49.714844 L 186.441406 31.683594 C 186.425781 31.675781 186.410156 31.671875 186.394531 31.667969 C 186.316406 31.652344 186.238281 31.65625 186.164062 31.683594 C 186.136719 31.691406 186.109375 31.703125 186.082031 31.722656 Z M 164 87.882812 L 212.644531 86.875 L 196.144531 136.105469 Z M 220.949219 114.964844 L 197.160156 135.71875 L 213.199219 87.859375 Z M 213.816406 86.996094 L 228.609375 90.078125 L 221.4375 113.628906 Z M 223.019531 114.621094 L 254.070312 95.484375 L 274.285156 112.4375 Z M 222.152344 114.167969 L 229.433594 90.25 L 252.992188 95.164062 Z M 229.675781 89.445312 L 238.445312 60.632812 L 253.394531 94.390625 Z M 228.855469 89.273438 L 214.042969 86.183594 L 237.445312 61.054688 Z M 197.117188 136.867188 L 221.296875 115.777344 L 238.378906 149.457031 Z M 222.09375 115.5 L 274.351562 113.277344 L 239.304688 149.433594 Z M 240.441406 149.46875 L 274.835938 113.984375 L 271.632812 143.171875 Z M 272.464844 143.265625 L 275.671875 114.027344 L 303.859375 157.40625 Z M 304.414062 156.71875 L 275.90625 112.84375 L 297.902344 86.757812 Z M 275.332031 112.222656 L 255.039062 95.203125 L 297.121094 86.382812 Z M 297.34375 85.480469 L 254.609375 94.433594 L 260.730469 51.59375 Z M 253.902344 93.464844 L 238.9375 59.671875 L 259.914062 51.398438 Z M 258.378906 51.101562 L 238.902344 58.78125 L 240.171875 50.558594 Z M 239.34375 50.414062 L 238.054688 58.796875 L 191.179688 34.164062 Z M 237.691406 59.554688 L 213.335938 85.714844 L 187.253906 33.050781 Z M 212.566406 86.039062 L 163.863281 87.042969 L 186.335938 33.085938 Z M 212.566406 86.039062 " fill-opacity="1" fill-rule="nonzero"/></g></g></g></g><path fill="#f9c0c4" d="M 261.199219 200.859375 C 260.855469 198.175781 260.304688 195.429688 258.917969 193.105469 C 257.53125 190.777344 255.105469 188.929688 252.394531 188.820312 C 252.902344 187.695312 253.132812 186.511719 253.085938 185.273438 C 253.042969 184.039062 252.722656 182.875 252.132812 181.789062 C 251.511719 180.660156 250.472656 179.636719 249.21875 179.472656 C 249.691406 177.589844 249.839844 175.683594 249.671875 173.75 C 249.542969 172.460938 249.28125 171.199219 248.882812 169.964844 C 248.484375 168.730469 247.964844 167.554688 247.316406 166.429688 C 246.667969 165.308594 245.910156 164.265625 245.039062 163.304688 C 244.171875 162.34375 243.210938 161.488281 242.160156 160.730469 C 241.296875 160.121094 240.394531 159.582031 239.445312 159.109375 C 236.394531 157.585938 233.160156 156.800781 229.746094 156.753906 C 229.878906 155.386719 229.820312 154.027344 229.570312 152.675781 C 229.320312 151.324219 228.890625 150.03125 228.277344 148.800781 C 227.667969 147.570312 226.898438 146.449219 225.96875 145.4375 C 225.042969 144.421875 223.996094 143.554688 222.824219 142.835938 C 221.699219 142.164062 220.523438 141.601562 219.292969 141.152344 C 217.316406 140.347656 215.265625 139.867188 213.136719 139.71875 C 209.882812 139.570312 206.660156 140.574219 203.761719 142.066406 C 202.046875 142.960938 200.363281 144.066406 199.292969 145.644531 L 198.480469 145.679688 C 197.183594 143.441406 195.417969 141.671875 193.1875 140.367188 C 192.285156 139.851562 191.335938 139.445312 190.34375 139.140625 C 189.351562 138.839844 188.339844 138.648438 187.304688 138.570312 C 186.269531 138.488281 185.238281 138.523438 184.210938 138.675781 C 183.183594 138.824219 182.1875 139.082031 181.214844 139.453125 C 178.859375 140.394531 176.921875 141.886719 175.410156 143.925781 L 174.464844 143.914062 C 173.371094 142.632812 171.542969 142.199219 169.847656 142.027344 C 165.921875 141.621094 161.804688 142.148438 158.382812 144.117188 C 155.703125 145.644531 153.527344 148.125 152.535156 151.003906 L 151.550781 151.390625 C 150.113281 150.652344 148.414062 150.523438 146.785156 150.617188 C 140.527344 150.972656 134.421875 154.601562 131.523438 160.1875 C 130.511719 162.183594 129.933594 164.296875 129.785156 166.53125 C 129.640625 168.765625 129.9375 170.9375 130.679688 173.046875 C 127.9375 173.082031 125.269531 174.265625 123.230469 176.085938 C 121.160156 178 119.6875 180.296875 118.808594 182.976562 C 118.210938 184.671875 117.863281 186.472656 118.046875 188.253906 C 118.214844 189.71875 118.65625 191.089844 119.375 192.375 C 116.617188 194.257812 114.308594 198.363281 114.347656 201.667969 C 114.386719 205.042969 115.835938 208.292969 117.894531 210.964844 C 118.917969 212.359375 120.179688 213.484375 121.6875 214.339844 L 121.777344 214.597656 C 120.550781 217.070312 120.472656 220.746094 120.945312 223.453125 C 121.429688 226.230469 122.628906 229.003906 124.855469 230.738281 C 126.210938 231.796875 127.859375 232.402344 129.515625 232.863281 C 131.359375 233.375 133.277344 233.730469 135.175781 233.542969 C 137.078125 233.355469 138.980469 232.578125 140.242188 231.128906 C 141.03125 233.097656 142.691406 234.636719 144.582031 235.605469 C 146.46875 236.574219 148.589844 236.988281 150.699219 237.207031 C 152.632812 237.410156 154.640625 237.4375 156.476562 236.800781 C 158.171875 236.203125 159.71875 234.984375 160.367188 233.324219 L 160.835938 233.398438 C 162.78125 235.488281 165.054688 237.109375 167.664062 238.257812 C 173.417969 240.777344 181.875 239.777344 186.269531 237.007812 L 186.898438 237.050781 C 188.523438 238.972656 190.644531 240.261719 194.753906 240.929688 C 196.363281 241.21875 197.984375 241.328125 199.613281 241.25 C 204.996094 240.914062 210.449219 238.9375 214.082031 234.949219 L 213.601562 234.925781 L 214.050781 234.699219 C 216.34375 235.628906 218.730469 236.027344 221.199219 235.894531 C 222.664062 235.800781 224.101562 235.550781 225.507812 235.140625 C 226.566406 234.871094 227.558594 234.453125 228.488281 233.882812 C 229.296875 233.363281 230.34375 232.691406 230.96875 231.953125 C 231.410156 231.4375 231.816406 230.898438 232.183594 230.328125 L 233.332031 230.347656 C 233.699219 230.566406 234.078125 230.757812 234.46875 230.925781 C 235.554688 231.425781 236.679688 231.8125 237.839844 232.085938 C 239.976562 232.546875 242.125 232.617188 244.289062 232.292969 C 248.164062 231.671875 251.523438 228.917969 253.261719 225.40625 C 254.96875 221.96875 255.183594 217.898438 254.242188 214.175781 C 254.71875 213.917969 255.1875 213.652344 255.648438 213.375 C 257.40625 212.304688 259.152344 211.070312 260.207031 209.300781 C 261.675781 206.816406 261.550781 203.730469 261.199219 200.859375 Z M 248.898438 180.644531 C 248.898438 180.644531 248.898438 180.621094 248.898438 180.609375 Z M 229.992188 157.28125 L 229.714844 157.160156 C 229.726562 157.035156 229.742188 156.90625 229.753906 156.777344 Z M 120.082031 193.5625 L 119.96875 194.273438 L 119.691406 192.941406 C 119.820312 193.148438 119.949219 193.359375 120.082031 193.5625 Z M 120.082031 193.5625 " fill-opacity="1" fill-rule="nonzero"/><path fill="#f9afaf" d="M 254.226562 214.167969 C 254.703125 213.914062 255.175781 213.644531 255.632812 213.367188 C 257.390625 212.300781 259.140625 211.066406 260.195312 209.296875 C 261.6875 206.816406 261.550781 203.71875 261.1875 200.855469 C 260.847656 198.171875 260.292969 195.429688 258.910156 193.101562 C 257.523438 190.773438 255.09375 188.925781 252.386719 188.820312 C 252.894531 187.691406 253.125 186.507812 253.078125 185.273438 C 253.03125 184.035156 252.714844 182.875 252.125 181.785156 C 251.503906 180.660156 250.464844 179.632812 249.210938 179.46875 C 249.679688 177.585938 249.832031 175.679688 249.664062 173.75 C 249.535156 172.460938 249.273438 171.199219 248.875 169.964844 C 248.480469 168.730469 247.957031 167.554688 247.308594 166.429688 C 246.664062 165.308594 245.90625 164.269531 245.039062 163.308594 C 244.167969 162.347656 243.210938 161.488281 242.160156 160.730469 C 241.296875 160.121094 240.394531 159.582031 239.445312 159.109375 C 236.394531 157.585938 233.160156 156.800781 229.746094 156.753906 C 229.878906 155.386719 229.820312 154.027344 229.570312 152.675781 C 229.320312 151.324219 228.890625 150.03125 228.277344 148.800781 C 227.667969 147.570312 226.898438 146.449219 225.96875 145.4375 C 225.042969 144.421875 223.996094 143.554688 222.824219 142.835938 C 221.699219 142.164062 220.523438 141.601562 219.292969 141.152344 C 217.316406 140.347656 215.265625 139.867188 213.136719 139.71875 C 210.40625 139.609375 207.691406 140.289062 205.183594 141.398438 C 203.695312 170.125 190.785156 218.242188 120.269531 213.410156 C 120.710938 213.761719 121.183594 214.070312 121.683594 214.335938 L 121.777344 214.597656 C 120.546875 217.066406 120.472656 220.742188 120.941406 223.449219 C 121.425781 226.226562 122.628906 229 124.851562 230.734375 C 126.207031 231.792969 127.855469 232.398438 129.511719 232.859375 C 131.355469 233.375 133.273438 233.726562 135.175781 233.539062 C 137.074219 233.351562 138.976562 232.574219 140.238281 231.128906 C 141.027344 233.097656 142.6875 234.632812 144.578125 235.601562 C 146.464844 236.570312 148.589844 236.984375 150.695312 237.207031 C 152.632812 237.40625 154.636719 237.433594 156.476562 236.796875 C 158.171875 236.199219 159.714844 234.980469 160.363281 233.324219 L 160.832031 233.398438 C 162.777344 235.484375 165.054688 237.105469 167.664062 238.253906 C 173.414062 240.773438 181.871094 239.773438 186.265625 237.003906 L 186.894531 237.046875 C 188.519531 238.972656 190.640625 240.257812 194.753906 240.925781 C 196.359375 241.214844 197.980469 241.324219 199.613281 241.246094 C 204.992188 240.910156 210.449219 238.933594 214.078125 234.945312 L 213.597656 234.925781 L 214.046875 234.699219 C 216.34375 235.625 218.726562 236.023438 221.199219 235.890625 C 222.660156 235.796875 224.097656 235.546875 225.507812 235.136719 C 226.5625 234.867188 227.554688 234.449219 228.484375 233.878906 C 229.292969 233.359375 230.339844 232.6875 230.96875 231.949219 C 231.410156 231.4375 231.8125 230.894531 232.179688 230.324219 L 233.332031 230.347656 C 233.695312 230.5625 234.074219 230.753906 234.464844 230.921875 C 235.550781 231.421875 236.675781 231.808594 237.839844 232.082031 C 239.976562 232.546875 242.125 232.613281 244.285156 232.289062 C 248.160156 231.671875 251.519531 228.914062 253.261719 225.402344 C 254.957031 221.964844 255.171875 217.894531 254.226562 214.167969 Z M 229.714844 157.160156 C 229.726562 157.035156 229.742188 156.90625 229.753906 156.777344 L 229.992188 157.28125 Z M 248.890625 180.644531 C 248.890625 180.644531 248.890625 180.621094 248.890625 180.609375 Z M 248.890625 180.644531 " fill-opacity="1" fill-rule="nonzero"/><path fill="#d17c7c" d="M 133.464844 177.785156 C 133.230469 177.570312 132.96875 177.300781 132.738281 177.078125 C 132.675781 177.015625 132.5625 176.894531 132.507812 176.828125 C 132.351562 176.648438 132.003906 176.214844 131.855469 176.042969 C 131.675781 175.792969 131.347656 175.3125 131.171875 175.054688 C 128.507812 170.722656 128.238281 165.058594 130.320312 160.417969 C 133.46875 153.363281 141.773438 148.96875 149.339844 150.425781 C 150.246094 150.621094 151.070312 150.992188 151.820312 151.539062 C 151 151.203125 150.144531 151.015625 149.257812 150.980469 C 143.300781 150.890625 137.269531 153.851562 133.71875 158.578125 C 131.410156 161.601562 130.398438 165.453125 130.566406 169.25 C 130.617188 169.84375 130.671875 170.574219 130.78125 171.160156 C 130.8125 171.375 130.851562 171.585938 130.902344 171.796875 C 131.015625 172.390625 131.222656 173.09375 131.394531 173.675781 C 131.46875 173.851562 131.671875 174.410156 131.738281 174.59375 C 131.871094 174.9375 132.125 175.453125 132.273438 175.785156 C 132.386719 175.992188 132.640625 176.445312 132.753906 176.652344 C 132.964844 177.042969 133.230469 177.398438 133.464844 177.785156 Z M 133.464844 177.785156 " fill-opacity="1" fill-rule="nonzero"/><path fill="#d17c7c" d="M 152.1875 156.609375 C 151.765625 155.445312 151.570312 154.246094 151.609375 153.007812 C 151.648438 151.773438 151.914062 150.585938 152.40625 149.449219 C 154.167969 145.105469 158.484375 142.171875 163.027344 141.398438 C 166.09375 140.835938 171.757812 140.949219 174.03125 143.296875 C 174.269531 143.550781 174.464844 143.832031 174.628906 144.136719 C 174.144531 143.679688 173.59375 143.34375 172.964844 143.125 C 172.355469 142.921875 171.730469 142.789062 171.09375 142.730469 C 167.597656 142.464844 163.972656 142.824219 160.707031 144.121094 C 155.683594 146.109375 151.8125 150.941406 152.1875 156.609375 Z M 152.1875 156.609375 " fill-opacity="1" fill-rule="nonzero"/><path fill="#d17c7c" d="M 172.667969 148.695312 C 172.699219 148.804688 172.769531 148.847656 172.882812 148.820312 C 173.078125 148.800781 173.113281 148.59375 173.136719 148.429688 C 173.207031 147.925781 173.304688 147.429688 173.433594 146.9375 C 175.726562 139.070312 184.433594 135.515625 191.8125 138.65625 C 196.414062 140.542969 199.878906 145.273438 200.214844 150.15625 C 198.207031 144.277344 193.015625 139.761719 186.777344 139.550781 C 181.414062 139.226562 176.367188 142.363281 173.96875 147.136719 L 173.703125 147.660156 C 173.5625 148.042969 173.394531 148.414062 173.195312 148.769531 C 173.058594 148.957031 172.675781 148.953125 172.667969 148.6875 Z M 172.667969 148.695312 " fill-opacity="1" fill-rule="nonzero"/><path fill="#d17c7c" d="M 198.925781 146.273438 C 200.289062 142.851562 204.847656 140.570312 208.214844 139.488281 C 212.285156 138.214844 216.140625 138.800781 220.027344 140.359375 C 221.949219 141.066406 223.6875 142.089844 225.242188 143.421875 C 229.863281 147.367188 231.601562 154.359375 229.117188 159.828125 C 230.257812 154.199219 228.359375 148.417969 224 144.882812 C 222.570312 143.742188 221 142.859375 219.28125 142.238281 C 216.738281 141.226562 214.0625 140.480469 211.308594 140.648438 C 208.554688 140.8125 205.867188 141.675781 203.328125 142.855469 C 201.625 143.652344 199.992188 144.707031 198.917969 146.28125 Z M 198.925781 146.273438 " fill-opacity="1" fill-rule="nonzero"/><path fill="#d17c7c" d="M 229.742188 156.753906 C 235.300781 156.203125 241.363281 158.210938 245.363281 162.269531 C 249.851562 166.742188 251.792969 173.601562 249.90625 179.714844 C 249.484375 181.089844 248.90625 182.394531 248.164062 183.628906 C 247.183594 185.257812 245.941406 186.648438 244.433594 187.804688 C 248.492188 182.902344 249.949219 176.257812 247.949219 170.28125 C 245.265625 162.253906 237.921875 157.785156 229.742188 156.746094 Z M 229.742188 156.753906 " fill-opacity="1" fill-rule="nonzero"/><g clip-path="url(#a632d91caa)"><path fill="#d17c7c" d="M 248.917969 179.453125 C 250.441406 179.351562 251.757812 180.511719 252.496094 181.75 C 253.027344 182.632812 253.378906 183.582031 253.554688 184.601562 C 253.730469 185.617188 253.714844 186.628906 253.507812 187.640625 C 253.402344 188.152344 253.25 188.648438 253.050781 189.132812 L 252.40625 188.082031 C 253.332031 188.089844 254.226562 188.265625 255.085938 188.605469 C 259.386719 190.320312 261.34375 194.871094 261.953125 199.167969 C 262.246094 200.839844 262.390625 202.527344 262.390625 204.226562 C 262.300781 209.488281 259.707031 212.03125 255.21875 214.253906 C 253.019531 215.367188 250.453125 216.261719 247.984375 215.726562 C 251.261719 215.726562 254.09375 213.777344 256.640625 211.917969 C 260.332031 209.234375 260.796875 206.140625 260.308594 201.871094 C 259.941406 198.824219 259.453125 195.605469 257.71875 193.023438 C 256.496094 191.234375 254.574219 189.761719 252.355469 189.570312 C 252.230469 189.570312 252.113281 189.535156 252.003906 189.476562 C 251.894531 189.414062 251.808594 189.328125 251.742188 189.222656 C 251.675781 189.117188 251.640625 189 251.636719 188.875 C 251.628906 188.75 251.652344 188.632812 251.707031 188.519531 C 252.207031 187.511719 252.46875 186.445312 252.496094 185.320312 C 252.523438 184.195312 252.3125 183.117188 251.867188 182.085938 C 251.324219 180.847656 250.332031 179.648438 248.914062 179.453125 Z M 248.917969 179.453125 " fill-opacity="1" fill-rule="nonzero"/></g><path fill="#d17c7c" d="M 232.191406 229.585938 C 233.488281 230.339844 234.9375 230.777344 236.363281 231.15625 C 237.78125 231.503906 239.214844 231.675781 240.675781 231.671875 C 242.101562 231.699219 243.507812 231.539062 244.894531 231.191406 C 246.238281 230.800781 247.480469 230.195312 248.617188 229.378906 C 249.757812 228.5625 250.730469 227.582031 251.535156 226.4375 C 253.652344 223.492188 254.429688 219.792969 254.332031 216.191406 C 254.308594 215.4375 254.242188 214.699219 254.160156 213.9375 C 254.925781 215.761719 255.316406 217.667969 255.328125 219.648438 C 255.34375 221.628906 254.976562 223.539062 254.234375 225.375 C 252.558594 229.496094 248.625 232.757812 244.148438 233.257812 C 241.347656 233.574219 238.644531 233.1875 236.042969 232.101562 C 234.648438 231.457031 233.261719 230.726562 232.191406 229.601562 Z M 232.191406 229.585938 " fill-opacity="1" fill-rule="nonzero"/><path fill="#d17c7c" d="M 211.402344 233.34375 C 215.636719 235.179688 220.152344 235.589844 224.527344 234.371094 C 225.71875 234.101562 226.851562 233.664062 227.917969 233.058594 C 228.773438 232.515625 229.613281 232.03125 230.300781 231.320312 C 232.683594 228.753906 233.960938 225.59375 234.949219 222.15625 C 235.070312 225.492188 234.171875 229.070312 232.164062 231.875 C 231.382812 233.082031 230.152344 233.964844 229 234.730469 C 227.769531 235.535156 226.398438 235.960938 225.015625 236.296875 C 220.382812 237.488281 215 236.527344 211.410156 233.34375 Z M 211.402344 233.34375 " fill-opacity="1" fill-rule="nonzero"/><path fill="#d17c7c" d="M 214.078125 234.941406 C 209.890625 240.726562 201.292969 243.199219 194.460938 241.886719 C 192.296875 241.519531 190.015625 240.792969 188.261719 239.363281 C 186.511719 237.929688 185.453125 235.871094 184.742188 233.835938 C 185.691406 234.914062 186.574219 236.023438 187.578125 236.921875 C 188.558594 237.8125 189.667969 238.488281 190.910156 238.949219 C 193.480469 239.804688 196.117188 240.257812 198.824219 240.308594 C 204.320312 240.234375 209.835938 238.621094 214.078125 234.9375 Z M 214.078125 234.941406 " fill-opacity="1" fill-rule="nonzero"/><path fill="#d17c7c" d="M 157.339844 228.378906 C 160.242188 232.355469 164.007812 235.695312 168.578125 237.539062 C 171.808594 238.757812 175.308594 239.003906 178.789062 238.734375 C 181.617188 238.46875 184.429688 237.914062 186.957031 236.527344 C 185.863281 237.535156 184.625 238.324219 183.246094 238.886719 C 178.425781 240.871094 172.789062 241.230469 167.851562 239.417969 C 162.996094 237.496094 158.886719 233.410156 157.339844 228.382812 Z M 157.339844 228.378906 " fill-opacity="1" fill-rule="nonzero"/><path fill="#d17c7c" d="M 160.507812 232.878906 C 160.109375 234.964844 158.304688 236.566406 156.335938 237.277344 C 154.371094 237.988281 152.167969 238.015625 150.082031 237.84375 C 146.890625 237.59375 143.558594 236.652344 141.226562 234.316406 C 140.40625 233.503906 139.777344 232.566406 139.335938 231.496094 L 140.992188 231.773438 C 140.449219 232.402344 139.820312 232.925781 139.101562 233.339844 C 135.679688 235.351562 131.492188 234.609375 127.941406 233.355469 C 123.152344 231.789062 120.792969 227.832031 120.355469 222.980469 C 120.132812 220.121094 120.355469 217.042969 121.828125 214.523438 C 120.8125 217.15625 120.910156 220.109375 121.390625 222.832031 C 122.230469 227.074219 124.238281 230.332031 128.542969 231.582031 C 131.019531 232.339844 133.835938 232.984375 136.367188 232.3125 C 137.59375 232.019531 138.636719 231.410156 139.496094 230.484375 C 139.609375 230.355469 139.746094 230.257812 139.90625 230.199219 C 140.066406 230.140625 140.234375 230.125 140.402344 230.152344 C 140.574219 230.183594 140.726562 230.25 140.859375 230.359375 C 140.992188 230.46875 141.089844 230.601562 141.152344 230.761719 C 141.488281 231.597656 141.96875 232.34375 142.59375 232.996094 C 144.570312 235.097656 147.464844 235.992188 150.269531 236.429688 C 153.160156 236.890625 156.292969 237.074219 158.714844 235.222656 C 159.53125 234.609375 160.125 233.828125 160.503906 232.878906 Z M 160.507812 232.878906 " fill-opacity="1" fill-rule="nonzero"/><path fill="#d17c7c" d="M 124.304688 215.117188 C 120.378906 215.429688 117.230469 211.972656 115.382812 208.871094 C 113.414062 205.464844 112.613281 201.246094 114.429688 197.628906 C 115.382812 195.566406 116.816406 193.921875 118.730469 192.695312 C 118.996094 192.539062 119.273438 192.398438 119.554688 192.273438 C 118.675781 193.09375 117.925781 194.023438 117.308594 195.0625 C 116.152344 196.988281 115.273438 199.261719 115.285156 201.484375 C 115.324219 202.609375 115.5 203.710938 115.8125 204.792969 C 116.96875 208.652344 120.125 214.070312 124.304688 215.132812 Z M 124.304688 215.117188 " fill-opacity="1" fill-rule="nonzero"/><path fill="#d17c7c" d="M 123.164062 197.554688 C 119.96875 194.839844 116.871094 191.167969 117.054688 186.730469 C 117.351562 181.121094 121.039062 175.113281 126.5625 173.410156 C 127.410156 173.144531 128.277344 172.996094 129.164062 172.957031 C 129.6875 172.941406 130.207031 172.96875 130.726562 173.039062 C 125.308594 173.933594 121.527344 178.179688 119.808594 183.132812 C 119.167969 184.921875 118.757812 186.792969 118.988281 188.675781 C 119.402344 191.984375 121.472656 194.773438 123.160156 197.558594 Z M 123.164062 197.554688 " fill-opacity="1" fill-rule="nonzero"/><path fill="#d17c7c" d="M 136.226562 185.402344 C 133.972656 185.089844 131.695312 186.84375 130.265625 188.433594 C 129.613281 189.191406 129.074219 190.027344 128.652344 190.933594 C 125.929688 196.574219 129.160156 203.132812 134.945312 205.175781 C 133.730469 204.964844 132.59375 204.546875 131.535156 203.910156 C 130.480469 203.277344 129.574219 202.472656 128.816406 201.5 C 125.492188 197.371094 125.992188 191.574219 129.65625 187.851562 C 131.234375 186.273438 133.949219 184.621094 136.226562 185.402344 Z M 136.226562 185.402344 " fill-opacity="1" fill-rule="nonzero"/><path fill="#d17c7c" d="M 147.105469 202.589844 C 145.058594 202.105469 143.039062 202.195312 141.042969 202.855469 C 139.097656 203.5 137.273438 204.394531 135.578125 205.542969 C 132.867188 207.382812 131.5625 209.691406 131.1875 212.929688 C 130.925781 214.929688 131.160156 216.871094 131.886719 218.753906 C 132.691406 220.628906 133.96875 222.082031 135.726562 223.117188 C 139.03125 225.285156 143.265625 226.992188 147.148438 225.390625 C 148.117188 225.007812 148.960938 224.4375 149.679688 223.679688 C 148.417969 225.386719 146.320312 226.335938 144.234375 226.550781 C 142.148438 226.765625 139.960938 226.25 138.019531 225.398438 C 136.078125 224.546875 134.183594 223.496094 132.675781 221.921875 C 130.425781 219.5 129.695312 215.996094 130.125 212.789062 C 130.53125 209.328125 132.125 206.652344 135.105469 204.820312 C 136.910156 203.699219 138.84375 202.871094 140.902344 202.339844 C 142.992188 201.792969 145.0625 201.875 147.105469 202.589844 Z M 147.105469 202.589844 " fill-opacity="1" fill-rule="nonzero"/><path fill="#d17c7c" d="M 233.117188 170.21875 C 235.203125 170.21875 237.453125 170.296875 239.371094 171.289062 C 241.722656 172.480469 243.152344 175.011719 243.632812 177.550781 C 244.132812 180.441406 244.03125 184.3125 242.441406 186.839844 C 240.757812 189.582031 237.566406 191.210938 234.398438 191.316406 C 232.835938 191.375 231.316406 191.148438 229.839844 190.632812 C 231.335938 190.914062 232.839844 190.964844 234.351562 190.777344 C 237.234375 190.433594 240.074219 188.847656 241.539062 186.304688 C 242.902344 183.980469 242.996094 180.371094 242.597656 177.738281 C 242.25 175.59375 241.242188 173.5 239.476562 172.191406 C 237.640625 170.839844 235.304688 170.574219 233.097656 170.234375 Z M 233.117188 170.21875 " fill-opacity="1" fill-rule="nonzero"/><path fill="#d17c7c" d="M 235.441406 190.574219 C 235.550781 190.628906 235.660156 190.636719 235.773438 190.597656 C 236.296875 190.488281 236.753906 190.171875 237.308594 190.171875 C 239.734375 190.535156 240.363281 194.347656 239.761719 196.308594 C 239.5 197.257812 238.949219 198.25 238.050781 198.695312 C 239.054688 197.109375 239.042969 195.253906 238.773438 193.492188 C 238.550781 192.433594 238.234375 191.167969 237.210938 190.636719 C 236.757812 190.585938 236.25 190.738281 235.78125 190.695312 C 235.664062 190.695312 235.511719 190.675781 235.441406 190.5625 Z M 235.441406 190.574219 " fill-opacity="1" fill-rule="nonzero"/><path fill="#d17c7c" d="M 230.191406 182.308594 C 228.765625 183.355469 227.265625 184.429688 226.292969 185.921875 C 223.847656 189.796875 225.421875 194.710938 228.675781 197.59375 C 229.316406 198.183594 230 198.71875 230.730469 199.191406 C 230.835938 199.261719 230.90625 199.355469 230.945312 199.472656 C 230.984375 199.589844 230.984375 199.707031 230.945312 199.824219 C 230.027344 202.441406 229.007812 205.191406 229.519531 207.980469 C 229.75 209.210938 230.214844 210.34375 230.910156 211.382812 C 231.609375 212.421875 232.480469 213.28125 233.53125 213.960938 C 236.65625 215.945312 240.859375 215.679688 243.859375 213.476562 C 243.535156 213.769531 243.195312 214.042969 242.835938 214.292969 C 241.589844 215.113281 240.222656 215.613281 238.734375 215.78125 C 234.527344 216.300781 230.605469 213.8125 229.019531 209.917969 C 227.527344 206.511719 228.691406 202.71875 229.9375 199.453125 L 230.144531 200.082031 C 228.554688 199.054688 227.222656 197.761719 226.152344 196.203125 C 224.011719 193.152344 223.597656 188.707031 225.90625 185.632812 C 227.027344 184.140625 228.621094 183.203125 230.191406 182.300781 Z M 230.191406 182.308594 " fill-opacity="1" fill-rule="nonzero"/><path fill="#ffffff" d="M 236.277344 173.011719 C 237.035156 173.367188 237.722656 173.828125 238.339844 174.394531 C 238.957031 174.964844 239.476562 175.609375 239.894531 176.335938 C 240.3125 177.0625 240.613281 177.835938 240.792969 178.65625 C 240.976562 179.472656 241.03125 180.300781 240.957031 181.136719 C 240.757812 183.335938 240.015625 185.660156 238.210938 187.082031 C 237.476562 187.679688 236.648438 188.109375 235.734375 188.359375 C 234.816406 188.609375 233.890625 188.664062 232.953125 188.519531 L 232.953125 188.414062 C 234.683594 188.144531 236.199219 187.421875 237.496094 186.246094 C 238.496094 185.308594 239.230469 184.199219 239.703125 182.910156 C 239.785156 182.613281 239.898438 182.292969 239.964844 181.992188 C 240.105469 181.367188 240.191406 180.734375 240.21875 180.09375 C 240.324219 177.230469 238.667969 174.582031 236.230469 173.109375 L 236.277344 173.007812 Z M 236.277344 173.011719 " fill-opacity="1" fill-rule="nonzero"/><path fill="#d17c7c" d="M 202.355469 233.289062 C 203.5625 233.730469 204.78125 233.777344 206.015625 233.433594 C 208.472656 232.820312 210.804688 232.265625 212.203125 230.003906 C 212.859375 228.914062 213.414062 227.773438 213.867188 226.585938 C 213.824219 227.929688 213.519531 229.210938 212.953125 230.429688 C 212.03125 232.402344 210.183594 233.511719 208.113281 233.949219 C 206.140625 234.386719 204.019531 234.699219 202.355469 233.289062 Z M 202.355469 233.289062 " fill-opacity="1" fill-rule="nonzero"/><path fill="#d17c7c" d="M 179.539062 229.582031 C 179.40625 229.554688 179.28125 229.515625 179.152344 229.480469 L 179.230469 229.339844 C 181.085938 230.023438 182.984375 230.886719 184.910156 231.128906 C 185.871094 231.226562 186.816406 231.15625 187.75 230.921875 C 188.730469 230.675781 189.648438 230.289062 190.511719 229.765625 C 189.269531 231.535156 186.9375 232.429688 184.804688 232.21875 C 183.71875 232.089844 182.699219 231.761719 181.738281 231.242188 C 180.792969 230.769531 179.929688 230.183594 179.140625 229.480469 C 179.082031 229.449219 179.070312 229.40625 179.117188 229.351562 C 179.152344 229.3125 179.1875 229.3125 179.222656 229.351562 C 179.328125 229.429688 179.433594 229.511719 179.539062 229.597656 Z M 179.539062 229.582031 " fill-opacity="1" fill-rule="nonzero"/><path fill="#ffffff" d="M 134.433594 187.800781 C 132.050781 190.097656 130.523438 193.734375 131.785156 196.953125 C 132.125 197.867188 132.488281 198.792969 132.878906 199.6875 C 133.296875 200.664062 133.785156 201.59375 134.175781 202.597656 L 134.042969 202.722656 C 133.386719 202.355469 132.789062 201.90625 132.253906 201.375 C 131.113281 200.28125 130.378906 198.960938 130.050781 197.414062 C 129.824219 196.269531 129.820312 195.121094 130.03125 193.972656 C 130.242188 192.828125 130.65625 191.757812 131.269531 190.765625 C 132.070312 189.507812 133.09375 188.472656 134.339844 187.65625 L 134.449219 187.800781 Z M 134.433594 187.800781 " fill-opacity="1" fill-rule="nonzero"/><path fill="#ffffff" d="M 134.058594 210.144531 C 133.746094 213.375 134.160156 217.003906 136.320312 219.535156 C 137.511719 220.859375 139.195312 221.496094 140.820312 222.097656 C 142.226562 222.566406 143.652344 222.832031 145.097656 223.21875 L 145.097656 223.398438 C 144.015625 223.757812 142.910156 223.925781 141.773438 223.898438 C 140.082031 223.914062 138.546875 223.433594 137.160156 222.464844 C 134.867188 220.804688 133.585938 218.101562 133.378906 215.328125 C 133.234375 213.554688 133.402344 211.816406 133.875 210.105469 L 134.050781 210.144531 Z M 134.058594 210.144531 " fill-opacity="1" fill-rule="nonzero"/><path fill="#ffffff" d="M 119.09375 198.0625 C 118.878906 199.800781 119.035156 201.5 119.566406 203.167969 C 120.09375 204.835938 120.949219 206.316406 122.125 207.609375 C 123.058594 208.613281 123.910156 209.636719 124.839844 210.664062 C 125.320312 211.207031 125.808594 211.734375 126.253906 212.328125 L 126.15625 212.480469 C 125.789062 212.394531 125.425781 212.289062 125.070312 212.15625 C 123.253906 211.464844 121.792969 210.316406 120.6875 208.710938 C 119.496094 206.796875 118.585938 204.648438 118.417969 202.382812 C 118.28125 200.894531 118.445312 199.441406 118.917969 198.023438 L 119.09375 198.074219 Z M 119.09375 198.0625 " fill-opacity="1" fill-rule="nonzero"/><path fill="#ffffff" d="M 123.785156 218.480469 C 123.972656 221.925781 125.296875 225.707031 128.5 227.363281 C 128.75 227.496094 129.027344 227.589844 129.285156 227.699219 L 129.96875 227.90625 C 131.855469 228.371094 133.765625 228.667969 135.703125 228.800781 C 136.121094 228.828125 136.546875 228.863281 136.984375 228.933594 L 137.019531 229.113281 C 134.875 230.183594 132.199219 230.554688 129.867188 229.804688 C 128.882812 229.464844 127.980469 228.96875 127.164062 228.320312 C 126.347656 227.671875 125.660156 226.910156 125.101562 226.027344 C 123.734375 223.773438 123.3125 221.019531 123.609375 218.460938 L 123.792969 218.476562 Z M 123.785156 218.480469 " fill-opacity="1" fill-rule="nonzero"/><path fill="#ffffff" d="M 129.136719 176.152344 C 126.816406 178.132812 125.136719 180.554688 124.09375 183.421875 C 123.628906 184.792969 123.558594 186.222656 123.386719 187.644531 C 123.222656 189.117188 123.25 190.625 123.195312 192.117188 L 123.023438 192.171875 C 122.792969 191.839844 122.585938 191.488281 122.410156 191.125 C 121.964844 190.195312 121.695312 189.21875 121.601562 188.191406 C 121.507812 187.164062 121.59375 186.15625 121.859375 185.160156 C 122.558594 182.808594 123.738281 180.738281 125.40625 178.941406 C 126.472656 177.777344 127.679688 176.796875 129.035156 175.996094 L 129.136719 176.148438 Z M 129.136719 176.152344 " fill-opacity="1" fill-rule="nonzero"/><path fill="#ffffff" d="M 147.621094 154.457031 C 143.75 155.816406 140.066406 158.113281 137.722656 161.519531 C 136.398438 163.484375 135.832031 165.808594 135.414062 168.109375 C 135.390625 168.355469 135.304688 168.984375 135.273438 169.230469 C 135.238281 169.476562 135.238281 169.738281 135.214844 169.992188 C 135.117188 171.046875 135.152344 172.078125 135.089844 173.140625 L 134.914062 173.183594 C 134.503906 172.3125 134.195312 171.410156 133.996094 170.46875 C 133.53125 168.132812 133.695312 165.640625 134.734375 163.472656 C 135.742188 161.453125 137.121094 159.726562 138.867188 158.296875 C 141.449219 156.257812 144.355469 154.917969 147.582031 154.277344 Z M 147.621094 154.457031 " fill-opacity="1" fill-rule="nonzero"/><path fill="#ffffff" d="M 228.59375 186.269531 C 227.96875 188.292969 227.9375 190.328125 228.496094 192.371094 C 228.828125 193.316406 229.292969 194.191406 229.890625 194.992188 C 230.503906 195.820312 231.179688 196.585938 231.925781 197.296875 L 231.875 197.378906 C 231.355469 197.203125 230.871094 196.964844 230.417969 196.652344 C 227.542969 194.785156 227.117188 190.796875 227.972656 187.738281 C 228.109375 187.226562 228.289062 186.730469 228.507812 186.25 L 228.59375 186.28125 Z M 228.59375 186.269531 " fill-opacity="1" fill-rule="nonzero"/><path fill="#ffffff" d="M 232.792969 202 C 232.496094 204.421875 232.496094 207.269531 234.046875 209.265625 C 234.488281 209.777344 235.023438 210.160156 235.648438 210.410156 C 236.082031 210.578125 236.488281 210.761719 236.941406 210.894531 C 238.132812 211.304688 239.445312 211.472656 240.683594 211.808594 L 240.703125 211.992188 C 240.070312 212.320312 239.398438 212.542969 238.695312 212.664062 C 236.253906 213.058594 234.183594 212.25 232.855469 210.113281 C 231.6875 208.253906 231.660156 205.976562 232.066406 203.90625 C 232.195312 203.238281 232.378906 202.585938 232.617188 201.949219 Z M 232.792969 202 " fill-opacity="1" fill-rule="nonzero"/><path fill="#232020" d="M 176.71875 171.847656 C 172.988281 169.941406 168.03125 169.527344 164.1875 171.199219 C 163.289062 171.5625 162.527344 172.113281 161.894531 172.851562 C 161.261719 173.589844 160.835938 174.429688 160.613281 175.375 C 160.550781 175.71875 160.527344 176.0625 160.539062 176.410156 L 160.789062 176.503906 C 162.011719 175.714844 163.023438 174.816406 164.222656 174.027344 L 165.78125 172.945312 C 167.375 171.75 169.679688 171.367188 171.894531 171.382812 C 173.492188 171.402344 175.0625 171.613281 176.609375 172.019531 L 176.730469 171.835938 Z M 176.71875 171.847656 " fill-opacity="1" fill-rule="nonzero"/><path fill="#232020" d="M 197.472656 171.15625 C 201.078125 169.023438 205.996094 168.300781 209.933594 169.726562 C 210.859375 170.039062 211.660156 170.539062 212.335938 171.238281 C 213.015625 171.9375 213.496094 172.753906 213.777344 173.6875 C 213.859375 174.023438 213.90625 174.371094 213.917969 174.71875 L 213.671875 174.824219 C 212.402344 174.113281 211.335938 173.28125 210.097656 172.566406 L 208.460938 171.582031 C 206.796875 170.503906 204.472656 170.25 202.261719 170.40625 C 200.671875 170.527344 199.113281 170.835938 197.597656 171.335938 L 197.464844 171.15625 Z M 197.472656 171.15625 " fill-opacity="1" fill-rule="nonzero"/><path fill="#ffffff" d="M 174.101562 177.738281 C 174.792969 177.746094 175.480469 177.84375 176.15625 178.035156 C 176.835938 178.226562 177.492188 178.503906 178.128906 178.871094 C 178.765625 179.234375 179.367188 179.683594 179.9375 180.210938 C 180.511719 180.738281 181.035156 181.335938 181.519531 182.003906 C 182 182.671875 182.429688 183.394531 182.808594 184.179688 C 183.183594 184.964844 183.5 185.789062 183.753906 186.65625 C 184.011719 187.527344 184.199219 188.421875 184.324219 189.34375 C 184.449219 190.261719 184.507812 191.191406 184.496094 192.128906 C 184.484375 193.066406 184.40625 193.992188 184.261719 194.910156 C 184.113281 195.828125 183.902344 196.71875 183.628906 197.578125 C 183.355469 198.441406 183.019531 199.261719 182.625 200.035156 C 182.230469 200.808594 181.785156 201.527344 181.285156 202.183594 C 180.789062 202.839844 180.25 203.425781 179.667969 203.9375 C 179.082031 204.453125 178.46875 204.886719 177.824219 205.238281 C 177.179688 205.589844 176.519531 205.851562 175.835938 206.027344 C 175.152344 206.199219 174.464844 206.285156 173.773438 206.277344 C 173.078125 206.269531 172.394531 206.167969 171.714844 205.976562 C 171.039062 205.789062 170.382812 205.507812 169.746094 205.144531 C 169.109375 204.777344 168.503906 204.332031 167.933594 203.804688 C 167.363281 203.277344 166.835938 202.679688 166.355469 202.011719 C 165.871094 201.34375 165.441406 200.617188 165.066406 199.832031 C 164.691406 199.050781 164.375 198.222656 164.121094 197.355469 C 163.863281 196.484375 163.671875 195.589844 163.550781 194.671875 C 163.425781 193.75 163.367188 192.820312 163.378906 191.882812 C 163.390625 190.949219 163.46875 190.019531 163.613281 189.101562 C 163.757812 188.1875 163.96875 187.296875 164.246094 186.433594 C 164.519531 185.570312 164.855469 184.75 165.25 183.976562 C 165.644531 183.203125 166.089844 182.488281 166.585938 181.828125 C 167.085938 181.171875 167.625 180.585938 168.207031 180.074219 C 168.789062 179.558594 169.402344 179.128906 170.046875 178.777344 C 170.691406 178.425781 171.355469 178.160156 172.039062 177.988281 C 172.71875 177.8125 173.40625 177.730469 174.101562 177.738281 Z M 174.101562 177.738281 " fill-opacity="1" fill-rule="nonzero"/><path fill="#ffffff" d="M 200.148438 178.039062 C 200.839844 178.046875 201.527344 178.148438 202.203125 178.335938 C 202.882812 178.527344 203.539062 178.808594 204.175781 179.171875 C 204.8125 179.539062 205.414062 179.984375 205.984375 180.511719 C 206.554688 181.039062 207.082031 181.636719 207.566406 182.304688 C 208.046875 182.972656 208.476562 183.699219 208.851562 184.484375 C 209.230469 185.265625 209.542969 186.09375 209.800781 186.960938 C 210.054688 187.832031 210.246094 188.726562 210.371094 189.644531 C 210.496094 190.566406 210.550781 191.496094 210.542969 192.429688 C 210.53125 193.367188 210.453125 194.296875 210.304688 195.214844 C 210.160156 196.128906 209.949219 197.019531 209.675781 197.882812 C 209.398438 198.746094 209.066406 199.5625 208.671875 200.339844 C 208.277344 201.113281 207.832031 201.828125 207.332031 202.484375 C 206.835938 203.144531 206.292969 203.730469 205.710938 204.242188 C 205.128906 204.757812 204.515625 205.1875 203.871094 205.539062 C 203.226562 205.890625 202.5625 206.15625 201.882812 206.328125 C 201.199219 206.503906 200.511719 206.585938 199.816406 206.578125 C 199.125 206.570312 198.441406 206.472656 197.761719 206.28125 C 197.082031 206.089844 196.425781 205.8125 195.789062 205.445312 C 195.152344 205.082031 194.550781 204.632812 193.980469 204.105469 C 193.410156 203.578125 192.882812 202.980469 192.398438 202.3125 C 191.917969 201.644531 191.488281 200.921875 191.113281 200.136719 C 190.734375 199.351562 190.421875 198.527344 190.164062 197.65625 C 189.910156 196.789062 189.71875 195.894531 189.59375 194.972656 C 189.46875 194.054688 189.414062 193.125 189.425781 192.1875 C 189.433594 191.25 189.511719 190.324219 189.660156 189.40625 C 189.804688 188.488281 190.015625 187.597656 190.289062 186.738281 C 190.566406 185.875 190.902344 185.054688 191.292969 184.28125 C 191.6875 183.507812 192.136719 182.789062 192.632812 182.132812 C 193.128906 181.476562 193.671875 180.890625 194.253906 180.378906 C 194.835938 179.863281 195.449219 179.429688 196.09375 179.078125 C 196.738281 178.726562 197.402344 178.464844 198.082031 178.289062 C 198.765625 178.117188 199.453125 178.03125 200.148438 178.039062 Z M 200.148438 178.039062 " fill-opacity="1" fill-rule="nonzero"/><path fill="#232020" d="M 175.679688 186.761719 C 176.144531 186.765625 176.601562 186.832031 177.050781 186.957031 C 177.503906 187.082031 177.941406 187.261719 178.367188 187.503906 C 178.789062 187.742188 179.191406 188.035156 179.574219 188.378906 C 179.953125 188.722656 180.304688 189.117188 180.628906 189.550781 C 180.949219 189.988281 181.234375 190.464844 181.488281 190.976562 C 181.738281 191.492188 181.949219 192.03125 182.117188 192.597656 C 182.289062 193.167969 182.414062 193.753906 182.5 194.355469 C 182.582031 194.957031 182.621094 195.566406 182.613281 196.179688 C 182.605469 196.792969 182.554688 197.398438 182.457031 198 C 182.359375 198.597656 182.21875 199.183594 182.035156 199.746094 C 181.851562 200.308594 181.628906 200.847656 181.367188 201.351562 C 181.105469 201.859375 180.808594 202.328125 180.476562 202.757812 C 180.144531 203.1875 179.785156 203.570312 179.394531 203.90625 C 179.007812 204.242188 178.597656 204.527344 178.167969 204.753906 C 177.738281 204.984375 177.296875 205.15625 176.839844 205.273438 C 176.386719 205.386719 175.929688 205.441406 175.464844 205.433594 C 175.003906 205.429688 174.546875 205.363281 174.09375 205.238281 C 173.640625 205.113281 173.203125 204.933594 172.78125 204.691406 C 172.355469 204.453125 171.953125 204.160156 171.574219 203.816406 C 171.191406 203.472656 170.839844 203.082031 170.519531 202.644531 C 170.199219 202.207031 169.910156 201.730469 169.660156 201.21875 C 169.410156 200.707031 169.199219 200.164062 169.027344 199.597656 C 168.859375 199.027344 168.730469 198.441406 168.648438 197.839844 C 168.5625 197.238281 168.527344 196.628906 168.53125 196.015625 C 168.539062 195.402344 168.59375 194.796875 168.6875 194.195312 C 168.785156 193.597656 168.925781 193.015625 169.109375 192.449219 C 169.292969 191.886719 169.515625 191.347656 169.78125 190.84375 C 170.042969 190.335938 170.339844 189.867188 170.671875 189.4375 C 171.003906 189.007812 171.363281 188.625 171.75 188.289062 C 172.140625 187.953125 172.546875 187.667969 172.976562 187.441406 C 173.40625 187.210938 173.851562 187.039062 174.304688 186.925781 C 174.761719 186.808594 175.21875 186.753906 175.679688 186.761719 Z M 175.679688 186.761719 " fill-opacity="1" fill-rule="nonzero"/><path fill="#232020" d="M 197.996094 186.808594 C 198.460938 186.8125 198.917969 186.878906 199.371094 187.003906 C 199.820312 187.128906 200.257812 187.308594 200.683594 187.550781 C 201.109375 187.789062 201.511719 188.082031 201.890625 188.425781 C 202.269531 188.769531 202.621094 189.164062 202.945312 189.597656 C 203.265625 190.035156 203.550781 190.511719 203.804688 191.023438 C 204.054688 191.539062 204.265625 192.078125 204.4375 192.644531 C 204.605469 193.214844 204.734375 193.800781 204.816406 194.402344 C 204.898438 195.003906 204.9375 195.613281 204.929688 196.226562 C 204.921875 196.839844 204.871094 197.445312 204.773438 198.046875 C 204.675781 198.644531 204.535156 199.226562 204.351562 199.792969 C 204.171875 200.355469 203.945312 200.894531 203.683594 201.398438 C 203.421875 201.90625 203.125 202.375 202.792969 202.804688 C 202.460938 203.234375 202.101562 203.617188 201.710938 203.953125 C 201.324219 204.289062 200.914062 204.574219 200.484375 204.800781 C 200.054688 205.03125 199.613281 205.203125 199.160156 205.316406 C 198.703125 205.433594 198.246094 205.488281 197.78125 205.480469 C 197.320312 205.476562 196.863281 205.410156 196.410156 205.285156 C 195.960938 205.160156 195.519531 204.980469 195.097656 204.738281 C 194.671875 204.5 194.269531 204.207031 193.890625 203.863281 C 193.507812 203.519531 193.15625 203.128906 192.835938 202.691406 C 192.515625 202.253906 192.226562 201.777344 191.976562 201.265625 C 191.726562 200.75 191.515625 200.210938 191.34375 199.644531 C 191.175781 199.074219 191.046875 198.488281 190.964844 197.886719 C 190.882812 197.285156 190.84375 196.675781 190.851562 196.0625 C 190.855469 195.449219 190.910156 194.84375 191.007812 194.242188 C 191.105469 193.644531 191.242188 193.0625 191.425781 192.496094 C 191.609375 191.933594 191.832031 191.394531 192.097656 190.890625 C 192.359375 190.382812 192.65625 189.914062 192.988281 189.484375 C 193.320312 189.054688 193.679688 188.671875 194.070312 188.335938 C 194.457031 188 194.867188 187.714844 195.296875 187.488281 C 195.726562 187.257812 196.167969 187.085938 196.621094 186.972656 C 197.078125 186.855469 197.535156 186.800781 197.996094 186.808594 Z M 197.996094 186.808594 " fill-opacity="1" fill-rule="nonzero"/><path fill="#232020" d="M 187.6875 210.347656 C 185.761719 210.316406 183.992188 209.78125 182.371094 208.746094 C 182.265625 208.671875 182.203125 208.574219 182.183594 208.449219 C 182.160156 208.324219 182.1875 208.210938 182.261719 208.109375 C 182.332031 208.003906 182.433594 207.941406 182.554688 207.921875 C 182.679688 207.898438 182.792969 207.925781 182.898438 208 C 183.109375 208.144531 188.078125 211.578125 192.84375 207.382812 C 192.9375 207.308594 193.046875 207.277344 193.167969 207.292969 C 193.285156 207.304688 193.386719 207.355469 193.464844 207.445312 C 193.546875 207.539062 193.582031 207.644531 193.578125 207.765625 C 193.570312 207.886719 193.523438 207.988281 193.4375 208.074219 C 192.65625 208.800781 191.769531 209.359375 190.777344 209.75 C 189.785156 210.144531 188.753906 210.34375 187.6875 210.347656 Z M 187.6875 210.347656 " fill-opacity="1" fill-rule="nonzero"/><path fill="#232020" d="M 203.71875 187.78125 C 204.183594 188.972656 205.261719 189.695312 206.128906 189.363281 C 206.996094 189.027344 207.324219 187.773438 206.859375 186.566406 C 206.394531 185.359375 205.3125 184.652344 204.445312 184.988281 C 203.578125 185.320312 203.25 186.574219 203.71875 187.78125 Z M 203.71875 187.78125 " fill-opacity="1" fill-rule="nonzero"/><path fill="#232020" d="M 170.144531 187.949219 C 169.753906 189.183594 168.71875 189.957031 167.835938 189.675781 C 166.949219 189.394531 166.546875 188.167969 166.941406 186.933594 C 167.335938 185.699219 168.367188 184.925781 169.25 185.207031 C 170.136719 185.488281 170.535156 186.714844 170.144531 187.949219 Z M 170.144531 187.949219 " fill-opacity="1" fill-rule="nonzero"/><path fill="#232020" d="M 205.34375 209.878906 C 204.773438 209.878906 204.203125 209.851562 203.636719 209.792969 C 203.066406 209.738281 202.503906 209.65625 201.945312 209.542969 C 201.382812 209.433594 200.832031 209.292969 200.285156 209.128906 C 199.738281 208.964844 199.199219 208.769531 198.671875 208.554688 C 198.144531 208.335938 197.628906 208.089844 197.125 207.820312 C 196.625 207.550781 196.132812 207.257812 195.660156 206.941406 C 195.183594 206.625 194.726562 206.285156 194.285156 205.921875 C 193.84375 205.558594 193.421875 205.175781 193.015625 204.773438 C 192.613281 204.371094 192.230469 203.945312 191.867188 203.503906 C 191.507812 203.0625 191.167969 202.605469 190.847656 202.128906 C 190.53125 201.65625 190.238281 201.167969 189.96875 200.664062 C 189.699219 200.160156 189.457031 199.640625 189.238281 199.113281 C 189.019531 198.585938 188.824219 198.050781 188.660156 197.503906 C 188.496094 196.957031 188.355469 196.402344 188.242188 195.84375 C 188.132812 195.28125 188.046875 194.71875 187.992188 194.148438 C 187.9375 193.578125 187.910156 193.011719 187.90625 192.4375 C 187.90625 191.867188 187.9375 191.296875 187.992188 190.726562 C 188.046875 190.160156 188.132812 189.59375 188.242188 189.035156 C 188.351562 188.472656 188.492188 187.921875 188.65625 187.375 C 188.824219 186.828125 189.015625 186.289062 189.234375 185.761719 C 189.453125 185.234375 189.695312 184.71875 189.964844 184.214844 C 190.234375 183.710938 190.527344 183.21875 190.84375 182.746094 C 191.160156 182.269531 191.5 181.8125 191.863281 181.371094 C 192.222656 180.929688 192.605469 180.503906 193.011719 180.101562 C 193.414062 179.695312 193.835938 179.3125 194.277344 178.949219 C 194.71875 178.589844 195.175781 178.25 195.652344 177.929688 C 196.125 177.613281 196.613281 177.320312 197.117188 177.050781 C 197.621094 176.78125 198.136719 176.535156 198.664062 176.316406 C 199.191406 176.097656 199.726562 175.90625 200.273438 175.742188 C 200.820312 175.574219 201.375 175.4375 201.933594 175.324219 C 202.492188 175.214844 203.058594 175.128906 203.625 175.074219 C 204.195312 175.015625 204.761719 174.988281 205.335938 174.988281 C 205.90625 174.988281 206.472656 175.015625 207.042969 175.074219 C 207.609375 175.128906 208.175781 175.214844 208.734375 175.324219 C 209.292969 175.4375 209.847656 175.574219 210.394531 175.742188 C 210.941406 175.90625 211.476562 176.097656 212.003906 176.316406 C 212.53125 176.535156 213.046875 176.78125 213.550781 177.050781 C 214.054688 177.320312 214.542969 177.613281 215.015625 177.929688 C 215.492188 178.246094 215.949219 178.585938 216.390625 178.949219 C 216.832031 179.3125 217.253906 179.695312 217.660156 180.097656 C 218.0625 180.503906 218.445312 180.925781 218.808594 181.367188 C 219.167969 181.808594 219.507812 182.269531 219.824219 182.742188 C 220.144531 183.21875 220.4375 183.707031 220.707031 184.210938 C 220.972656 184.714844 221.21875 185.230469 221.4375 185.761719 C 221.65625 186.289062 221.847656 186.824219 222.011719 187.371094 C 222.179688 187.917969 222.316406 188.472656 222.425781 189.03125 C 222.539062 189.59375 222.621094 190.15625 222.679688 190.726562 C 222.734375 191.296875 222.761719 191.863281 222.761719 192.4375 C 222.761719 193.007812 222.734375 193.578125 222.675781 194.144531 C 222.621094 194.714844 222.535156 195.277344 222.425781 195.835938 C 222.3125 196.398438 222.171875 196.949219 222.007812 197.496094 C 221.839844 198.042969 221.648438 198.578125 221.429688 199.105469 C 221.210938 199.632812 220.96875 200.148438 220.699219 200.652344 C 220.429688 201.15625 220.136719 201.644531 219.820312 202.121094 C 219.503906 202.59375 219.164062 203.050781 218.800781 203.492188 C 218.441406 203.933594 218.058594 204.355469 217.65625 204.761719 C 217.25 205.164062 216.828125 205.546875 216.390625 205.910156 C 215.949219 206.273438 215.492188 206.613281 215.015625 206.929688 C 214.542969 207.246094 214.054688 207.539062 213.550781 207.808594 C 213.046875 208.078125 212.535156 208.324219 212.007812 208.542969 C 211.480469 208.761719 210.945312 208.953125 210.398438 209.121094 C 209.851562 209.285156 209.300781 209.425781 208.742188 209.539062 C 208.183594 209.648438 207.617188 209.734375 207.050781 209.792969 C 206.484375 209.847656 205.914062 209.875 205.34375 209.878906 Z M 205.34375 175.726562 C 204.796875 175.726562 204.253906 175.753906 203.707031 175.804688 C 203.164062 175.859375 202.625 175.941406 202.089844 176.046875 C 201.554688 176.152344 201.023438 176.285156 200.5 176.445312 C 199.976562 176.605469 199.464844 176.789062 198.957031 176.996094 C 198.453125 177.207031 197.960938 177.441406 197.480469 177.699219 C 196.996094 177.957031 196.527344 178.238281 196.074219 178.539062 C 195.621094 178.84375 195.179688 179.171875 194.757812 179.515625 C 194.335938 179.863281 193.933594 180.230469 193.546875 180.617188 C 193.160156 181.003906 192.792969 181.410156 192.445312 181.832031 C 192.101562 182.253906 191.773438 182.695312 191.472656 183.148438 C 191.167969 183.605469 190.886719 184.070312 190.628906 184.554688 C 190.371094 185.035156 190.136719 185.53125 189.929688 186.035156 C 189.71875 186.542969 189.535156 187.054688 189.378906 187.578125 C 189.21875 188.101562 189.085938 188.632812 188.980469 189.167969 C 188.871094 189.707031 188.792969 190.246094 188.738281 190.789062 C 188.6875 191.335938 188.660156 191.878906 188.660156 192.425781 C 188.660156 192.976562 188.6875 193.519531 188.738281 194.066406 C 188.792969 194.609375 188.871094 195.148438 188.980469 195.6875 C 189.085938 196.222656 189.21875 196.753906 189.378906 197.277344 C 189.535156 197.800781 189.71875 198.3125 189.929688 198.820312 C 190.136719 199.324219 190.371094 199.816406 190.628906 200.300781 C 190.886719 200.78125 191.167969 201.25 191.472656 201.707031 C 191.773438 202.160156 192.101562 202.601562 192.445312 203.023438 C 192.792969 203.445312 193.160156 203.851562 193.546875 204.238281 C 193.933594 204.625 194.335938 204.992188 194.757812 205.339844 C 195.179688 205.683594 195.621094 206.011719 196.074219 206.316406 C 196.527344 206.617188 196.996094 206.898438 197.480469 207.15625 C 197.960938 207.414062 198.453125 207.648438 198.957031 207.859375 C 199.464844 208.066406 199.976562 208.25 200.5 208.410156 C 201.023438 208.570312 201.554688 208.703125 202.089844 208.808594 C 202.625 208.914062 203.164062 208.996094 203.707031 209.046875 C 204.253906 209.101562 204.796875 209.128906 205.34375 209.128906 C 205.890625 209.128906 206.4375 209.101562 206.980469 209.046875 C 207.523438 208.996094 208.0625 208.914062 208.597656 208.808594 C 209.136719 208.703125 209.664062 208.570312 210.1875 208.410156 C 210.710938 208.25 211.222656 208.066406 211.730469 207.859375 C 212.234375 207.648438 212.726562 207.414062 213.210938 207.15625 C 213.691406 206.898438 214.160156 206.617188 214.613281 206.3125 C 215.066406 206.011719 215.507812 205.683594 215.929688 205.339844 C 216.351562 204.992188 216.753906 204.625 217.140625 204.238281 C 217.527344 203.851562 217.894531 203.445312 218.242188 203.023438 C 218.589844 202.601562 218.914062 202.160156 219.21875 201.707031 C 219.519531 201.25 219.800781 200.78125 220.058594 200.300781 C 220.316406 199.816406 220.550781 199.324219 220.757812 198.820312 C 220.96875 198.3125 221.152344 197.800781 221.3125 197.277344 C 221.46875 196.753906 221.601562 196.222656 221.707031 195.6875 C 221.816406 195.148438 221.894531 194.609375 221.949219 194.066406 C 222.003906 193.519531 222.027344 192.976562 222.027344 192.425781 C 222.027344 191.882812 222 191.335938 221.945312 190.792969 C 221.890625 190.246094 221.8125 189.707031 221.703125 189.171875 C 221.597656 188.636719 221.464844 188.105469 221.304688 187.582031 C 221.144531 187.058594 220.960938 186.546875 220.75 186.039062 C 220.542969 185.535156 220.308594 185.042969 220.050781 184.558594 C 219.792969 184.078125 219.511719 183.609375 219.207031 183.15625 C 218.90625 182.699219 218.582031 182.261719 218.234375 181.839844 C 217.886719 181.417969 217.519531 181.011719 217.132812 180.625 C 216.75 180.238281 216.34375 179.871094 215.921875 179.523438 C 215.5 179.179688 215.0625 178.851562 214.609375 178.550781 C 214.152344 178.246094 213.6875 177.964844 213.203125 177.707031 C 212.722656 177.449219 212.230469 177.214844 211.726562 177.003906 C 211.21875 176.796875 210.707031 176.609375 210.183594 176.453125 C 209.660156 176.292969 209.132812 176.160156 208.597656 176.050781 C 208.0625 175.945312 207.523438 175.863281 206.980469 175.808594 C 206.433594 175.753906 205.890625 175.726562 205.34375 175.726562 Z M 205.34375 175.726562 " fill-opacity="1" fill-rule="nonzero"/><path fill="#232020" d="M 168.632812 210.476562 C 168.058594 210.476562 167.492188 210.449219 166.921875 210.394531 C 166.355469 210.335938 165.789062 210.253906 165.230469 210.140625 C 164.671875 210.03125 164.117188 209.890625 163.570312 209.726562 C 163.027344 209.558594 162.488281 209.367188 161.960938 209.148438 C 161.433594 208.929688 160.917969 208.6875 160.414062 208.417969 C 159.914062 208.148438 159.421875 207.855469 158.949219 207.539062 C 158.472656 207.21875 158.015625 206.878906 157.574219 206.515625 C 157.132812 206.15625 156.710938 205.773438 156.308594 205.367188 C 155.90625 204.964844 155.519531 204.539062 155.160156 204.097656 C 154.796875 203.65625 154.457031 203.199219 154.140625 202.722656 C 153.824219 202.25 153.53125 201.757812 153.261719 201.253906 C 152.992188 200.75 152.75 200.234375 152.53125 199.707031 C 152.3125 199.179688 152.121094 198.644531 151.953125 198.097656 C 151.789062 197.550781 151.648438 196.996094 151.539062 196.433594 C 151.425781 195.875 151.34375 195.308594 151.289062 194.742188 C 151.230469 194.171875 151.203125 193.601562 151.203125 193.03125 C 151.203125 192.460938 151.230469 191.890625 151.289062 191.320312 C 151.34375 190.753906 151.425781 190.1875 151.539062 189.628906 C 151.652344 189.070312 151.789062 188.515625 151.953125 187.96875 C 152.121094 187.421875 152.3125 186.882812 152.53125 186.355469 C 152.75 185.828125 152.992188 185.3125 153.261719 184.808594 C 153.53125 184.304688 153.824219 183.816406 154.140625 183.339844 C 154.457031 182.867188 154.796875 182.40625 155.160156 181.964844 C 155.523438 181.523438 155.90625 181.101562 156.308594 180.695312 C 156.714844 180.292969 157.136719 179.910156 157.578125 179.546875 C 158.019531 179.183594 158.476562 178.84375 158.949219 178.527344 C 159.425781 178.210938 159.914062 177.917969 160.417969 177.648438 C 160.921875 177.378906 161.4375 177.132812 161.964844 176.917969 C 162.492188 176.699219 163.027344 176.503906 163.574219 176.339844 C 164.121094 176.171875 164.671875 176.035156 165.234375 175.921875 C 165.792969 175.8125 166.355469 175.730469 166.925781 175.671875 C 167.492188 175.617188 168.0625 175.589844 168.632812 175.589844 C 169.203125 175.589844 169.773438 175.617188 170.339844 175.671875 C 170.910156 175.730469 171.472656 175.8125 172.03125 175.925781 C 172.59375 176.035156 173.144531 176.175781 173.691406 176.339844 C 174.238281 176.507812 174.773438 176.699219 175.300781 176.917969 C 175.828125 177.136719 176.34375 177.378906 176.847656 177.648438 C 177.351562 177.917969 177.839844 178.210938 178.316406 178.53125 C 178.789062 178.847656 179.246094 179.1875 179.6875 179.550781 C 180.128906 179.914062 180.550781 180.296875 180.957031 180.699219 C 181.359375 181.105469 181.742188 181.527344 182.105469 181.96875 C 182.464844 182.410156 182.804688 182.867188 183.121094 183.34375 C 183.4375 183.820312 183.734375 184.308594 184 184.8125 C 184.269531 185.316406 184.515625 185.832031 184.730469 186.359375 C 184.949219 186.886719 185.144531 187.425781 185.308594 187.972656 C 185.472656 188.519531 185.613281 189.074219 185.722656 189.632812 C 185.835938 190.191406 185.917969 190.757812 185.972656 191.324219 C 186.03125 191.894531 186.058594 192.464844 186.058594 193.035156 C 186.058594 193.605469 186.027344 194.175781 185.972656 194.746094 C 185.914062 195.3125 185.832031 195.878906 185.71875 196.4375 C 185.609375 196.996094 185.46875 197.550781 185.304688 198.097656 C 185.136719 198.644531 184.945312 199.179688 184.726562 199.707031 C 184.507812 200.234375 184.261719 200.75 183.992188 201.253906 C 183.726562 201.757812 183.429688 202.246094 183.113281 202.722656 C 182.796875 203.195312 182.457031 203.65625 182.09375 204.097656 C 181.734375 204.539062 181.351562 204.960938 180.949219 205.363281 C 180.542969 205.765625 180.121094 206.152344 179.679688 206.511719 C 179.238281 206.875 178.78125 207.214844 178.308594 207.53125 C 177.832031 207.851562 177.34375 208.144531 176.839844 208.414062 C 176.339844 208.683594 175.824219 208.925781 175.296875 209.144531 C 174.769531 209.363281 174.234375 209.554688 173.6875 209.722656 C 173.140625 209.886719 172.589844 210.027344 172.027344 210.140625 C 171.46875 210.25 170.90625 210.335938 170.339844 210.390625 C 169.769531 210.449219 169.203125 210.476562 168.632812 210.476562 Z M 168.632812 176.324219 C 168.085938 176.324219 167.539062 176.347656 166.996094 176.402344 C 166.453125 176.457031 165.910156 176.535156 165.375 176.644531 C 164.839844 176.75 164.308594 176.882812 163.789062 177.042969 C 163.265625 177.199219 162.75 177.382812 162.246094 177.59375 C 161.742188 177.804688 161.246094 178.035156 160.765625 178.292969 C 160.285156 178.550781 159.816406 178.832031 159.359375 179.136719 C 158.90625 179.441406 158.46875 179.765625 158.046875 180.113281 C 157.625 180.460938 157.21875 180.828125 156.832031 181.214844 C 156.445312 181.601562 156.078125 182.007812 155.734375 182.429688 C 155.386719 182.851562 155.0625 183.289062 154.757812 183.746094 C 154.453125 184.199219 154.171875 184.667969 153.917969 185.152344 C 153.660156 185.632812 153.425781 186.128906 153.214844 186.632812 C 153.007812 187.136719 152.824219 187.652344 152.664062 188.175781 C 152.503906 188.699219 152.375 189.230469 152.265625 189.765625 C 152.160156 190.300781 152.078125 190.84375 152.027344 191.386719 C 151.972656 191.929688 151.945312 192.476562 151.945312 193.023438 C 151.945312 193.570312 151.972656 194.117188 152.027344 194.660156 C 152.078125 195.207031 152.160156 195.746094 152.265625 196.28125 C 152.375 196.820312 152.503906 197.347656 152.664062 197.871094 C 152.824219 198.394531 153.007812 198.910156 153.214844 199.414062 C 153.425781 199.921875 153.660156 200.414062 153.917969 200.898438 C 154.171875 201.378906 154.453125 201.847656 154.757812 202.304688 C 155.0625 202.757812 155.386719 203.195312 155.734375 203.621094 C 156.078125 204.042969 156.445312 204.445312 156.832031 204.832031 C 157.21875 205.21875 157.625 205.585938 158.046875 205.933594 C 158.46875 206.28125 158.90625 206.605469 159.359375 206.910156 C 159.816406 207.214844 160.285156 207.496094 160.765625 207.753906 C 161.246094 208.011719 161.742188 208.246094 162.246094 208.453125 C 162.75 208.664062 163.265625 208.847656 163.789062 209.007812 C 164.308594 209.164062 164.839844 209.296875 165.375 209.40625 C 165.910156 209.511719 166.453125 209.589844 166.996094 209.644531 C 167.539062 209.699219 168.085938 209.726562 168.632812 209.726562 C 169.175781 209.726562 169.722656 209.699219 170.265625 209.644531 C 170.808594 209.589844 171.351562 209.511719 171.886719 209.40625 C 172.421875 209.296875 172.953125 209.164062 173.472656 209.007812 C 173.996094 208.847656 174.511719 208.664062 175.015625 208.453125 C 175.519531 208.246094 176.015625 208.011719 176.496094 207.753906 C 176.976562 207.496094 177.445312 207.214844 177.902344 206.910156 C 178.355469 206.605469 178.792969 206.28125 179.214844 205.933594 C 179.636719 205.585938 180.042969 205.21875 180.429688 204.832031 C 180.816406 204.445312 181.183594 204.042969 181.527344 203.621094 C 181.875 203.195312 182.199219 202.757812 182.503906 202.304688 C 182.808594 201.847656 183.089844 201.378906 183.347656 200.898438 C 183.601562 200.414062 183.835938 199.921875 184.046875 199.414062 C 184.253906 198.910156 184.4375 198.394531 184.597656 197.871094 C 184.757812 197.347656 184.890625 196.820312 184.996094 196.28125 C 185.101562 195.746094 185.183594 195.207031 185.234375 194.660156 C 185.289062 194.117188 185.316406 193.570312 185.316406 193.023438 C 185.316406 192.476562 185.289062 191.933594 185.234375 191.386719 C 185.179688 190.84375 185.097656 190.304688 184.992188 189.769531 C 184.882812 189.230469 184.75 188.703125 184.589844 188.179688 C 184.433594 187.65625 184.246094 187.140625 184.039062 186.636719 C 183.828125 186.132812 183.59375 185.640625 183.335938 185.15625 C 183.078125 184.675781 182.796875 184.207031 182.496094 183.753906 C 182.191406 183.296875 181.867188 182.859375 181.519531 182.4375 C 181.171875 182.015625 180.804688 181.609375 180.421875 181.222656 C 180.035156 180.835938 179.628906 180.46875 179.207031 180.121094 C 178.785156 179.777344 178.347656 179.449219 177.894531 179.144531 C 177.441406 178.84375 176.972656 178.5625 176.492188 178.304688 C 176.007812 178.046875 175.515625 177.8125 175.011719 177.601562 C 174.507812 177.390625 173.992188 177.207031 173.472656 177.046875 C 172.949219 176.890625 172.417969 176.753906 171.882812 176.648438 C 171.347656 176.539062 170.808594 176.460938 170.265625 176.40625 C 169.722656 176.351562 169.175781 176.324219 168.632812 176.324219 Z M 168.632812 176.324219 " fill-opacity="1" fill-rule="nonzero"/><path fill="#ffffff" d="M 146.652344 208.800781 L 148.871094 205.265625 C 149.058594 204.964844 149.320312 204.75 149.652344 204.621094 C 149.980469 204.496094 150.316406 204.480469 150.660156 204.574219 C 152.535156 205.113281 156.792969 206.03125 163.710938 205.953125 C 172.386719 205.855469 182.277344 212.90625 185.609375 217.285156 C 185.730469 217.445312 185.878906 217.570312 186.058594 217.664062 C 186.234375 217.757812 186.425781 217.8125 186.625 217.824219 C 186.824219 217.832031 187.019531 217.800781 187.207031 217.726562 C 187.390625 217.652344 187.554688 217.542969 187.695312 217.398438 C 190.292969 214.660156 196.84375 208.480469 204.496094 206.714844 C 213.640625 204.601562 218.894531 206.476562 224.101562 205.246094 C 224.289062 205.203125 224.476562 205.191406 224.671875 205.21875 C 224.863281 205.242188 225.042969 205.300781 225.214844 205.390625 C 225.386719 205.480469 225.535156 205.601562 225.660156 205.746094 C 225.789062 205.890625 225.886719 206.054688 225.957031 206.234375 L 227.289062 209.769531 L 211.480469 226.695312 C 211.480469 226.695312 188.574219 231.496094 186.828125 231.609375 C 185.082031 231.71875 169.488281 231.0625 167.632812 229.203125 C 165.777344 227.347656 146.652344 208.800781 146.652344 208.800781 Z M 146.652344 208.800781 " fill-opacity="1" fill-rule="nonzero"/><g clip-path="url(#6f4fb27cf0)"><path fill="#232020" d="M 143.289062 207.609375 L 181.792969 221.355469 C 182.0625 221.453125 182.277344 221.617188 182.441406 221.847656 C 182.605469 222.082031 182.6875 222.339844 182.6875 222.625 L 182.6875 222.730469 C 182.6875 222.90625 182.722656 223.078125 182.789062 223.246094 C 182.859375 223.410156 182.957031 223.554688 183.082031 223.683594 C 183.207031 223.808594 183.355469 223.90625 183.519531 223.972656 C 183.683594 224.042969 183.855469 224.078125 184.035156 224.078125 L 189.101562 224.078125 C 189.277344 224.078125 189.449219 224.042969 189.613281 223.972656 C 189.78125 223.90625 189.925781 223.808594 190.050781 223.683594 C 190.175781 223.554688 190.273438 223.410156 190.34375 223.246094 C 190.410156 223.078125 190.445312 222.90625 190.445312 222.730469 L 190.445312 222.546875 C 190.445312 222.253906 190.53125 221.988281 190.703125 221.753906 C 190.875 221.515625 191.101562 221.355469 191.378906 221.265625 L 230.449219 208.695312 C 230.589844 208.652344 230.730469 208.625 230.878906 208.613281 C 231.023438 208.601562 231.171875 208.605469 231.316406 208.628906 C 231.460938 208.652344 231.601562 208.691406 231.738281 208.75 C 231.871094 208.804688 232 208.875 232.117188 208.960938 C 232.238281 209.046875 232.34375 209.148438 232.441406 209.257812 C 232.535156 209.371094 232.617188 209.492188 232.6875 209.621094 C 232.753906 209.75 232.804688 209.886719 232.839844 210.03125 C 232.875 210.171875 232.894531 210.320312 232.894531 210.464844 L 233.296875 259.554688 C 233.300781 259.769531 233.265625 259.976562 233.195312 260.183594 C 233.125 260.386719 233.023438 260.570312 232.890625 260.738281 C 232.753906 260.910156 232.597656 261.050781 232.414062 261.164062 C 232.230469 261.277344 232.03125 261.355469 231.824219 261.402344 C 226.234375 262.59375 206.183594 267.28125 193.414062 274.644531 C 193.136719 274.804688 192.917969 275.023438 192.757812 275.304688 C 192.597656 275.582031 192.519531 275.882812 192.519531 276.203125 L 192.519531 276.371094 C 192.519531 276.589844 192.480469 276.796875 192.394531 277 C 192.3125 277.199219 192.195312 277.375 192.039062 277.53125 C 191.886719 277.683594 191.710938 277.804688 191.507812 277.886719 C 191.308594 277.96875 191.097656 278.011719 190.882812 278.011719 L 183.167969 278.011719 C 182.957031 278.011719 182.753906 277.972656 182.554688 277.894531 C 182.359375 277.8125 182.183594 277.703125 182.03125 277.554688 C 181.878906 277.410156 181.761719 277.238281 181.671875 277.046875 C 181.585938 276.851562 181.539062 276.652344 181.527344 276.4375 C 181.515625 276.113281 181.421875 275.8125 181.246094 275.539062 C 181.070312 275.265625 180.835938 275.054688 180.546875 274.90625 C 176.078125 272.640625 156.652344 263.105469 142.136719 261.363281 C 141.910156 261.335938 141.695312 261.269531 141.492188 261.164062 C 141.289062 261.058594 141.109375 260.917969 140.957031 260.746094 C 140.804688 260.574219 140.6875 260.382812 140.609375 260.167969 C 140.527344 259.953125 140.488281 259.730469 140.488281 259.503906 L 140.785156 209.367188 C 140.785156 209.21875 140.800781 209.070312 140.839844 208.921875 C 140.875 208.777344 140.925781 208.636719 140.996094 208.503906 C 141.0625 208.371094 141.148438 208.25 141.246094 208.136719 C 141.34375 208.023438 141.457031 207.921875 141.578125 207.835938 C 141.703125 207.75 141.832031 207.679688 141.972656 207.625 C 142.113281 207.570312 142.257812 207.535156 142.40625 207.511719 C 142.554688 207.492188 142.703125 207.492188 142.851562 207.507812 C 143 207.523438 143.144531 207.558594 143.289062 207.609375 Z M 143.289062 207.609375 " fill-opacity="1" fill-rule="nonzero"/></g><path fill="#ffffff" d="M 229.964844 221.984375 C 229.839844 221.984375 229.734375 221.941406 229.644531 221.851562 C 229.558594 221.765625 229.511719 221.65625 229.511719 221.53125 L 229.402344 213.34375 L 220.839844 216.160156 C 220.71875 216.203125 220.605469 216.191406 220.492188 216.136719 C 220.378906 216.078125 220.304688 215.988281 220.265625 215.871094 C 220.226562 215.75 220.234375 215.632812 220.292969 215.519531 C 220.347656 215.410156 220.4375 215.332031 220.558594 215.292969 L 229.363281 212.378906 C 229.472656 212.34375 229.585938 212.335938 229.699219 212.351562 C 229.8125 212.367188 229.917969 212.410156 230.011719 212.476562 C 230.105469 212.542969 230.179688 212.628906 230.230469 212.730469 C 230.285156 212.832031 230.3125 212.941406 230.316406 213.058594 L 230.425781 221.507812 C 230.425781 221.636719 230.382812 221.742188 230.296875 221.832031 C 230.207031 221.925781 230.101562 221.96875 229.976562 221.972656 Z M 229.964844 221.984375 " fill-opacity="1" fill-rule="nonzero"/><path fill="#ffffff" d="M 230.332031 244.210938 C 230.207031 244.210938 230.101562 244.167969 230.011719 244.078125 C 229.925781 243.992188 229.878906 243.886719 229.878906 243.761719 L 229.511719 224.375 C 229.496094 224.242188 229.535156 224.125 229.625 224.023438 C 229.714844 223.925781 229.824219 223.875 229.957031 223.871094 C 230.09375 223.867188 230.207031 223.914062 230.296875 224.011719 C 230.390625 224.109375 230.433594 224.222656 230.425781 224.355469 L 230.789062 243.742188 C 230.792969 243.871094 230.75 243.976562 230.660156 244.070312 C 230.574219 244.160156 230.46875 244.207031 230.34375 244.207031 Z M 230.332031 244.210938 " fill-opacity="1" fill-rule="nonzero"/><path fill="#ffffff" d="M 229.785156 245.78125 C 229.792969 245.617188 229.859375 245.480469 229.980469 245.371094 C 230.101562 245.261719 230.246094 245.210938 230.410156 245.21875 C 230.574219 245.226562 230.710938 245.292969 230.824219 245.414062 C 230.933594 245.539062 230.984375 245.679688 230.976562 245.84375 C 230.964844 246.011719 230.902344 246.148438 230.777344 246.257812 C 230.65625 246.367188 230.511719 246.417969 230.347656 246.410156 C 230.183594 246.402344 230.046875 246.335938 229.9375 246.210938 C 229.828125 246.089844 229.777344 245.949219 229.785156 245.78125 Z M 229.785156 245.78125 " fill-opacity="1" fill-rule="nonzero"/><path fill="#ffffff" d="M 229.785156 247.792969 C 229.792969 247.628906 229.855469 247.492188 229.980469 247.378906 C 230.101562 247.269531 230.246094 247.21875 230.410156 247.226562 C 230.574219 247.234375 230.710938 247.296875 230.820312 247.421875 C 230.933594 247.542969 230.984375 247.6875 230.976562 247.851562 C 230.964844 248.015625 230.902344 248.152344 230.777344 248.265625 C 230.65625 248.375 230.511719 248.425781 230.347656 248.417969 C 230.183594 248.40625 230.046875 248.34375 229.9375 248.222656 C 229.828125 248.097656 229.777344 247.957031 229.785156 247.792969 Z M 229.785156 247.792969 " fill-opacity="1" fill-rule="nonzero"/></svg>