<svg xmlns="http://www.w3.org/2000/svg" xmlns:xlink="http://www.w3.org/1999/xlink" width="500" zoomAndPan="magnify" viewBox="0 0 375 374.999991" height="500" preserveAspectRatio="xMidYMid meet" version="1.0"><defs><clipPath id="c3950ebc9a"><path d="M 214 14 L 336 14 L 336 187 L 214 187 Z M 214 14 " clip-rule="nonzero"/></clipPath><clipPath id="7199e27d1e"><path d="M 182.464844 -65.496094 L 413.058594 105.789062 L 89.269531 541.691406 L -141.324219 370.402344 Z M 182.464844 -65.496094 " clip-rule="nonzero"/></clipPath><clipPath id="a6a1a73a1b"><path d="M 182.464844 -65.496094 L 413.058594 105.789062 L 137.121094 477.269531 L -93.472656 305.980469 Z M 182.464844 -65.496094 " clip-rule="nonzero"/></clipPath><clipPath id="4e7e895a99"><path d="M 182.464844 -65.496094 L 413.058594 105.789062 L 89.269531 541.691406 L -141.324219 370.402344 Z M 182.464844 -65.496094 " clip-rule="nonzero"/></clipPath><clipPath id="b64894b1ff"><path d="M 0 289 L 72 289 L 72 375 L 0 375 Z M 0 289 " clip-rule="nonzero"/></clipPath><clipPath id="14cc1199ee"><path d="M 182.464844 -65.496094 L 413.058594 105.789062 L 89.269531 541.691406 L -141.324219 370.402344 Z M 182.464844 -65.496094 " clip-rule="nonzero"/></clipPath><clipPath id="93ed557bc4"><path d="M 182.464844 -65.496094 L 413.058594 105.789062 L 137.121094 477.269531 L -93.472656 305.980469 Z M 182.464844 -65.496094 " clip-rule="nonzero"/></clipPath><clipPath id="e9a1a1b738"><path d="M 182.464844 -65.496094 L 413.058594 105.789062 L 89.269531 541.691406 L -141.324219 370.402344 Z M 182.464844 -65.496094 " clip-rule="nonzero"/></clipPath><clipPath id="6baac3e102"><path d="M 63 66 L 275 66 L 275 228 L 63 228 Z M 63 66 " clip-rule="nonzero"/></clipPath><clipPath id="3f84d253ca"><path d="M 182.464844 -65.496094 L 413.058594 105.789062 L 89.269531 541.691406 L -141.324219 370.402344 Z M 182.464844 -65.496094 " clip-rule="nonzero"/></clipPath><clipPath id="86e2949cab"><path d="M 182.464844 -65.496094 L 413.058594 105.789062 L 137.121094 477.269531 L -93.472656 305.980469 Z M 182.464844 -65.496094 " clip-rule="nonzero"/></clipPath><clipPath id="1f6baa2de5"><path d="M 182.464844 -65.496094 L 413.058594 105.789062 L 89.269531 541.691406 L -141.324219 370.402344 Z M 182.464844 -65.496094 " clip-rule="nonzero"/></clipPath><clipPath id="62910b7bf2"><path d="M 10 191 L 277 191 L 277 362 L 10 362 Z M 10 191 " clip-rule="nonzero"/></clipPath><clipPath id="cd7a2c6100"><path d="M 182.464844 -65.496094 L 413.058594 105.789062 L 89.269531 541.691406 L -141.324219 370.402344 Z M 182.464844 -65.496094 " clip-rule="nonzero"/></clipPath><clipPath id="db417046ad"><path d="M 182.464844 -65.496094 L 413.058594 105.789062 L 137.121094 477.269531 L -93.472656 305.980469 Z M 182.464844 -65.496094 " clip-rule="nonzero"/></clipPath><clipPath id="73a4f75f51"><path d="M 182.464844 -65.496094 L 413.058594 105.789062 L 89.269531 541.691406 L -141.324219 370.402344 Z M 182.464844 -65.496094 " clip-rule="nonzero"/></clipPath></defs><g clip-path="url(#c3950ebc9a)"><g clip-path="url(#7199e27d1e)"><g clip-path="url(#a6a1a73a1b)"><g clip-path="url(#4e7e895a99)"><path fill="#808285" d="M 329.105469 133.78125 C 329.125 133.742188 329.136719 133.703125 329.148438 133.660156 C 329.148438 133.660156 329.148438 133.65625 329.152344 133.65625 C 329.15625 133.628906 329.160156 133.601562 329.164062 133.574219 L 335.527344 83.84375 C 335.535156 83.796875 335.535156 83.746094 335.53125 83.699219 C 335.53125 83.699219 335.53125 83.695312 335.53125 83.695312 C 335.519531 83.605469 335.492188 83.519531 335.441406 83.4375 C 335.433594 83.425781 335.429688 83.417969 335.425781 83.410156 L 290.039062 14.46875 C 290 14.402344 289.945312 14.34375 289.882812 14.292969 C 289.855469 14.269531 289.820312 14.25 289.785156 14.238281 C 289.679688 14.183594 289.566406 14.164062 289.457031 14.171875 C 289.402344 14.171875 289.347656 14.183594 289.292969 14.203125 C 289.171875 14.242188 289.066406 14.320312 288.988281 14.425781 C 288.972656 14.445312 288.960938 14.460938 288.949219 14.476562 C 288.949219 14.476562 288.949219 14.480469 288.949219 14.480469 C 288.945312 14.484375 288.945312 14.488281 288.941406 14.496094 L 272.535156 43.496094 L 241.328125 53.140625 C 241.246094 53.167969 241.167969 53.210938 241.101562 53.265625 C 241.101562 53.265625 241.097656 53.265625 241.097656 53.269531 C 241.082031 53.28125 241.066406 53.296875 241.050781 53.3125 C 241.050781 53.3125 241.050781 53.3125 241.046875 53.316406 C 241.035156 53.328125 241.023438 53.34375 241.011719 53.355469 L 215.128906 85.75 C 215.097656 85.789062 215.070312 85.828125 215.046875 85.875 C 215.046875 85.878906 215.042969 85.878906 215.042969 85.878906 C 215.042969 85.882812 215.039062 85.886719 215.039062 85.890625 C 215.035156 85.894531 215.035156 85.894531 215.035156 85.894531 C 215.035156 85.898438 215.035156 85.898438 215.035156 85.898438 C 215.03125 85.902344 215.03125 85.902344 215.03125 85.902344 C 214.984375 86.011719 214.972656 86.128906 214.984375 86.238281 L 222.734375 146.898438 C 222.753906 147.078125 222.851562 147.230469 222.984375 147.332031 C 222.996094 147.335938 223.003906 147.34375 223.011719 147.347656 L 280.691406 186.410156 C 280.691406 186.410156 280.695312 186.410156 280.695312 186.410156 C 280.695312 186.410156 280.695312 186.410156 280.699219 186.414062 C 280.699219 186.414062 280.699219 186.414062 280.703125 186.417969 C 280.820312 186.492188 280.949219 186.523438 281.078125 186.519531 C 281.132812 186.515625 281.1875 186.507812 281.238281 186.492188 C 281.34375 186.457031 281.445312 186.394531 281.527344 186.304688 C 281.539062 186.289062 281.554688 186.269531 281.566406 186.253906 L 312.554688 144.402344 L 328.863281 134.039062 C 328.878906 134.027344 328.894531 134.019531 328.910156 134.007812 C 328.914062 134.007812 328.914062 134.007812 328.914062 134.003906 C 328.996094 133.949219 329.058594 133.871094 329.105469 133.78125 C 329.105469 133.78125 329.101562 133.78125 329.105469 133.78125 Z M 253.890625 93.464844 L 296.375 71.371094 L 291.84375 95.851562 Z M 290.90625 97.074219 L 275.574219 112.332031 L 253.539062 94.726562 Z M 263.339844 121.78125 L 218.296875 87.394531 L 251.101562 94.515625 Z M 253.21875 96.109375 L 274.660156 113.242188 L 265.148438 122.703125 Z M 275.667969 114.042969 L 301.351562 134.566406 L 266.148438 123.515625 Z M 276.582031 113.136719 L 292.066406 97.730469 L 303.203125 134.410156 Z M 293.1875 95.609375 L 297.734375 71.054688 L 332.847656 83.707031 Z M 333.296875 82.507812 L 297.824219 69.726562 L 290.527344 17.535156 Z M 289.125 16.769531 L 296.328125 68.269531 L 273.753906 43.941406 Z M 272.769531 44.761719 L 295.1875 68.921875 L 243.730469 53.742188 Z M 295.539062 70.363281 L 251.976562 93.015625 L 242.40625 54.6875 Z M 241.207031 55.167969 L 250.683594 93.113281 L 216.765625 85.75 Z M 223.882812 145.804688 L 216.453125 87.597656 L 263.777344 123.726562 Z M 224.59375 146.875 L 264.53125 124.773438 L 280.007812 184.402344 Z M 265.84375 124.765625 L 303.523438 136.589844 L 281.226562 184.007812 Z M 304.605469 137.296875 L 311.269531 143.992188 L 284.378906 180.316406 Z M 312.203125 143.117188 L 305.800781 136.6875 L 325.847656 134.445312 Z M 304.871094 135.503906 L 293.742188 98.847656 L 327.152344 133.011719 Z M 293.566406 96.835938 L 334.132812 84.660156 L 328.0625 132.109375 Z M 293.566406 96.835938 " fill-opacity="1" fill-rule="nonzero"/></g></g></g></g><g clip-path="url(#b64894b1ff)"><g clip-path="url(#14cc1199ee)"><g clip-path="url(#93ed557bc4)"><g clip-path="url(#e9a1a1b738)"><path fill="#ffffff" d="M 71.0625 439.039062 C 71.078125 438.996094 71.09375 438.953125 71.101562 438.90625 C 71.113281 438.832031 71.113281 438.761719 71.101562 438.691406 L 55.460938 333.046875 C 55.460938 333.035156 55.457031 333.023438 55.457031 333.011719 C 55.457031 333.011719 55.457031 333.011719 55.457031 333.007812 C 55.429688 332.875 55.359375 332.753906 55.261719 332.664062 L 12.472656 293.054688 C 12.441406 293.023438 12.410156 292.996094 12.371094 292.976562 C 12.324219 292.945312 12.277344 292.925781 12.226562 292.90625 C 12.226562 292.910156 12.226562 292.90625 12.226562 292.90625 C 12.226562 292.90625 12.222656 292.90625 12.222656 292.90625 C 12.128906 292.878906 12.03125 292.871094 11.929688 292.886719 C 11.90625 292.890625 11.882812 292.894531 11.859375 292.902344 L -9.132812 298.671875 L -65.792969 289.328125 C -65.8125 289.328125 -65.828125 289.324219 -65.847656 289.324219 C -65.972656 289.3125 -66.09375 289.335938 -66.199219 289.394531 C -66.242188 289.414062 -66.28125 289.441406 -66.316406 289.472656 C -66.417969 289.558594 -66.492188 289.675781 -66.527344 289.8125 C -66.53125 289.824219 -66.535156 289.835938 -66.535156 289.847656 L -83.433594 379.621094 C -83.4375 379.625 -83.4375 379.625 -83.4375 379.628906 C -83.4375 379.644531 -83.4375 379.632812 -83.4375 379.632812 C -83.460938 379.773438 -83.4375 379.921875 -83.363281 380.054688 C -83.355469 380.066406 -83.351562 380.074219 -83.34375 380.085938 L -43.648438 442.914062 C -43.640625 442.921875 -43.636719 442.929688 -43.628906 442.941406 C -43.628906 442.941406 -43.628906 442.941406 -43.628906 442.945312 C -43.628906 442.945312 -43.628906 442.945312 -43.625 442.945312 C -43.625 442.945312 -43.625 442.945312 -43.625 442.949219 C -43.589844 443 -43.539062 443.046875 -43.488281 443.085938 C -43.4375 443.125 -43.375 443.15625 -43.3125 443.179688 C -43.265625 443.195312 -43.222656 443.203125 -43.171875 443.210938 L 2.21875 448.664062 C 2.234375 448.664062 2.25 448.667969 2.265625 448.667969 C 2.265625 448.667969 2.269531 448.667969 2.269531 448.667969 C 2.269531 448.667969 2.269531 448.667969 2.273438 448.667969 C 2.292969 448.667969 2.3125 448.667969 2.328125 448.667969 C 2.332031 448.667969 2.332031 448.667969 2.332031 448.667969 C 2.335938 448.667969 2.335938 448.667969 2.335938 448.667969 C 2.335938 448.667969 2.335938 448.664062 2.335938 448.664062 C 2.414062 448.664062 2.484375 448.644531 2.550781 448.617188 C 2.550781 448.613281 2.550781 448.613281 2.554688 448.613281 C 2.554688 448.613281 2.558594 448.613281 2.558594 448.613281 C 2.558594 448.613281 2.558594 448.613281 2.558594 448.609375 C 2.585938 448.597656 2.609375 448.585938 2.636719 448.570312 L 35.097656 428.199219 L 70.269531 439.410156 C 70.273438 439.410156 70.28125 439.414062 70.289062 439.414062 C 70.4375 439.457031 70.585938 439.445312 70.71875 439.386719 C 70.773438 439.363281 70.824219 439.332031 70.871094 439.292969 C 70.910156 439.261719 70.945312 439.222656 70.976562 439.179688 C 71.015625 439.140625 71.042969 439.089844 71.0625 439.039062 Z M 69.378906 435.808594 L 35.480469 380.746094 L 54.53125 335.496094 Z M 34.503906 379.765625 L 11.980469 361.304688 L 53.4375 334.785156 Z M 33.5 380.601562 L -18.179688 400.390625 L 11 362.160156 Z M 53.78125 333.046875 L 11.554688 360.058594 L 12.644531 294.964844 Z M -15.792969 361.015625 L -30.863281 361.253906 L -10.5625 317.546875 Z M -9.097656 316.0625 L 9.929688 360.617188 L -14.503906 360.996094 Z M -15.949219 362.300781 L -20.320312 398.644531 L -31.027344 362.535156 Z M -14.65625 362.28125 L 9.582031 361.902344 L -19.136719 399.539062 Z M 11.363281 295.019531 L 10.304688 358.230469 L -8.679688 313.78125 Z M 9.699219 294.824219 L -8.769531 312.109375 L -8.46875 299.820312 Z M -9.753906 299.871094 L -10.0625 312.667969 L -60.617188 291.480469 Z M -10.308594 313.953125 L -31.878906 360.398438 L -64.609375 291.199219 Z M -65.636719 292.019531 L -32.75 361.535156 L -81.972656 378.765625 Z M -81.832031 380.074219 L -32.652344 362.859375 L -43.496094 440.75 Z M -31.648438 364.925781 L -20.75 401.714844 L -42.007812 439.324219 Z M -42.074219 442.046875 L -20.101562 403.171875 L 1.214844 447.25 Z M -19.175781 402.140625 L 33.480469 381.980469 L 2.300781 446.554688 Z M 3.84375 446.300781 L 34.136719 383.570312 L 34.371094 427.144531 Z M 35.648438 427.027344 L 35.414062 383.085938 L 69.015625 437.664062 Z M 35.648438 427.027344 " fill-opacity="1" fill-rule="nonzero"/></g></g></g></g><g clip-path="url(#6baac3e102)"><g clip-path="url(#3f84d253ca)"><g clip-path="url(#86e2949cab)"><g clip-path="url(#1f6baa2de5)"><path fill="#a7a9ac" d="M 274.257812 177.308594 C 274.308594 177.210938 274.335938 177.097656 274.328125 176.984375 C 274.328125 176.949219 274.324219 176.914062 274.316406 176.882812 C 274.316406 176.882812 274.320312 176.878906 274.316406 176.878906 C 274.300781 176.796875 274.269531 176.722656 274.222656 176.65625 L 215.960938 85.335938 C 215.953125 85.320312 215.945312 85.304688 215.933594 85.292969 C 215.933594 85.292969 215.933594 85.289062 215.933594 85.289062 C 215.871094 85.210938 215.796875 85.148438 215.707031 85.101562 C 215.707031 85.101562 215.707031 85.101562 215.703125 85.101562 C 215.703125 85.097656 215.703125 85.097656 215.703125 85.097656 C 215.703125 85.097656 215.703125 85.097656 215.699219 85.097656 C 215.699219 85.097656 215.699219 85.097656 215.699219 85.09375 C 215.699219 85.09375 215.695312 85.09375 215.695312 85.09375 C 215.695312 85.09375 215.691406 85.09375 215.691406 85.09375 C 215.691406 85.09375 215.691406 85.09375 215.691406 85.089844 C 215.6875 85.089844 215.6875 85.089844 215.683594 85.089844 C 215.679688 85.085938 215.671875 85.082031 215.667969 85.082031 C 215.664062 85.082031 215.664062 85.082031 215.664062 85.078125 C 215.660156 85.078125 215.660156 85.078125 215.660156 85.078125 C 215.65625 85.074219 215.65625 85.074219 215.65625 85.074219 C 215.65625 85.074219 215.652344 85.074219 215.652344 85.074219 C 215.636719 85.070312 215.625 85.0625 215.613281 85.0625 L 152.625 66.035156 C 152.59375 66.023438 152.5625 66.019531 152.53125 66.011719 C 152.496094 66.007812 152.457031 66.003906 152.421875 66.003906 C 152.421875 66.003906 152.417969 66.003906 152.417969 66.003906 C 152.324219 66.007812 152.226562 66.03125 152.136719 66.078125 C 152.117188 66.089844 152.097656 66.101562 152.078125 66.113281 L 130.894531 80.121094 L 64.121094 94.832031 C 64.097656 94.835938 64.074219 94.84375 64.050781 94.847656 C 63.9375 94.886719 63.839844 94.953125 63.765625 95.039062 C 63.765625 95.039062 63.765625 95.039062 63.765625 95.042969 C 63.734375 95.078125 63.707031 95.121094 63.683594 95.160156 C 63.625 95.273438 63.601562 95.402344 63.617188 95.535156 C 63.617188 95.546875 63.621094 95.558594 63.621094 95.566406 L 79.503906 185.605469 C 79.53125 185.761719 79.613281 185.910156 79.75 186.011719 C 79.761719 186.019531 79.773438 186.027344 79.785156 186.035156 C 79.785156 186.035156 79.785156 186.035156 79.789062 186.035156 C 79.792969 186.039062 79.796875 186.042969 79.800781 186.042969 L 148.308594 227.828125 C 148.40625 227.890625 148.527344 227.925781 148.652344 227.925781 C 148.65625 227.929688 148.652344 227.925781 148.652344 227.925781 C 148.652344 227.925781 148.65625 227.925781 148.65625 227.925781 C 148.65625 227.925781 148.660156 227.925781 148.660156 227.925781 C 148.710938 227.921875 148.765625 227.914062 148.8125 227.902344 L 201.488281 214.246094 C 201.53125 214.234375 201.574219 214.21875 201.613281 214.199219 C 201.613281 214.199219 201.617188 214.199219 201.617188 214.199219 C 201.617188 214.199219 201.617188 214.199219 201.621094 214.195312 C 201.695312 214.160156 201.757812 214.109375 201.8125 214.046875 L 230.140625 181.765625 L 273.753906 177.640625 C 273.910156 177.628906 274.046875 177.558594 274.148438 177.453125 C 274.191406 177.414062 274.230469 177.359375 274.257812 177.308594 Z M 271.621094 174.957031 L 212.160156 137.714844 L 215.914062 87.640625 Z M 214.636719 87.5625 L 210.914062 137.25 L 178.515625 129.40625 Z M 148.847656 140.066406 L 137.414062 95.925781 L 176.121094 129.570312 Z M 176.25 130.890625 L 158.660156 177.933594 L 149.171875 141.3125 Z M 147.648438 140.527344 L 130.726562 147.039062 L 136.519531 97.566406 Z M 147.972656 141.777344 L 157.265625 177.660156 L 131.054688 148.289062 Z M 157.855469 180.246094 L 148.605469 224.339844 L 131.167969 150.328125 Z M 177.746094 130.539062 L 210.070312 138.363281 L 159.957031 178.125 Z M 214.289062 86 L 177.554688 128.5625 L 153.515625 67.640625 Z M 175.789062 127.582031 L 137.101562 93.957031 L 152.316406 68.101562 Z M 150.476562 68.707031 L 136.402344 92.625 L 131.925781 80.972656 Z M 130.742188 81.46875 L 135.359375 93.46875 L 70.6875 94.695312 Z M 135.558594 94.746094 L 129.464844 146.796875 L 66.03125 96.066406 Z M 80.578125 184.363281 L 65.175781 97.019531 L 128.929688 148 Z M 81.269531 185.445312 L 129.566406 149.121094 L 147.664062 225.945312 Z M 149.480469 226.410156 L 158.964844 181.199219 L 199.914062 213.335938 Z M 159.582031 180.058594 L 210.648438 139.539062 L 200.839844 212.4375 Z M 202.242188 211.617188 L 211.820312 140.449219 L 229.082031 181.039062 Z M 230.234375 180.476562 L 212.882812 139.675781 L 271.75 176.550781 Z M 230.234375 180.476562 " fill-opacity="1" fill-rule="nonzero"/></g></g></g></g><g clip-path="url(#62910b7bf2)"><g clip-path="url(#cd7a2c6100)"><g clip-path="url(#db417046ad)"><g clip-path="url(#73a4f75f51)"><path fill="#d1d3d4" d="M 276.722656 288.460938 C 276.722656 288.457031 276.722656 288.457031 276.722656 288.460938 C 276.738281 288.351562 276.730469 288.246094 276.695312 288.140625 C 276.6875 288.117188 276.675781 288.09375 276.667969 288.070312 L 237.527344 205.277344 C 237.515625 205.242188 237.496094 205.210938 237.476562 205.179688 C 237.476562 205.179688 237.476562 205.179688 237.472656 205.179688 C 237.460938 205.164062 237.449219 205.144531 237.4375 205.132812 C 237.347656 205.023438 237.21875 204.941406 237.070312 204.914062 C 237.070312 204.914062 237.066406 204.914062 237.066406 204.914062 C 237.058594 204.910156 237.046875 204.910156 237.039062 204.910156 L 147.089844 191.710938 C 147.011719 191.699219 146.933594 191.699219 146.855469 191.714844 C 146.851562 191.714844 146.851562 191.714844 146.851562 191.71875 C 146.851562 191.71875 146.847656 191.714844 146.847656 191.71875 C 146.835938 191.722656 146.828125 191.722656 146.816406 191.726562 C 146.8125 191.726562 146.8125 191.730469 146.8125 191.726562 L 146.808594 191.730469 C 146.753906 191.746094 146.703125 191.769531 146.65625 191.800781 L 87.910156 227.085938 C 87.882812 227.105469 87.855469 227.121094 87.832031 227.144531 C 87.773438 227.191406 87.722656 227.246094 87.6875 227.308594 C 87.6875 227.308594 87.6875 227.308594 87.683594 227.3125 L 61.714844 271.125 L 11.34375 293.25 C 11.339844 293.253906 11.339844 293.253906 11.335938 293.253906 L 11.335938 293.257812 L 11.332031 293.257812 C 11.230469 293.304688 11.148438 293.371094 11.085938 293.453125 C 11.050781 293.503906 11.023438 293.554688 11 293.613281 C 11 293.617188 11 293.617188 11 293.617188 C 11 293.617188 11 293.617188 10.996094 293.617188 C 10.996094 293.617188 10.996094 293.617188 10.996094 293.621094 C 10.984375 293.648438 10.976562 293.679688 10.96875 293.710938 C 10.945312 293.828125 10.957031 293.953125 11.003906 294.070312 C 11.003906 294.070312 11.003906 294.074219 11.003906 294.074219 C 11.011719 294.097656 11.023438 294.121094 11.035156 294.144531 C 11.082031 294.230469 11.140625 294.304688 11.222656 294.355469 L 100.425781 360.949219 C 100.425781 360.949219 100.429688 360.949219 100.429688 360.953125 C 100.441406 360.960938 100.464844 360.972656 100.46875 360.980469 C 100.472656 360.976562 100.472656 360.980469 100.472656 360.980469 C 100.523438 361.011719 100.574219 361.035156 100.625 361.050781 C 100.625 361.050781 100.625 361.050781 100.628906 361.050781 C 100.703125 361.074219 100.785156 361.082031 100.867188 361.074219 L 179.160156 353.96875 C 179.195312 353.964844 179.230469 353.960938 179.265625 353.949219 C 179.265625 353.949219 179.265625 353.953125 179.269531 353.949219 C 179.378906 353.917969 179.480469 353.859375 179.5625 353.773438 L 201.289062 331.085938 L 276.394531 288.910156 C 276.417969 288.894531 276.4375 288.882812 276.460938 288.867188 C 276.558594 288.796875 276.632812 288.699219 276.679688 288.59375 C 276.699219 288.550781 276.714844 288.507812 276.722656 288.460938 Z M 235.699219 206.003906 L 187.070312 262.199219 L 148.1875 193.164062 Z M 146.75 242.902344 L 147.585938 194.707031 L 185.386719 261.824219 Z M 185.734375 263.40625 L 167.105469 277.03125 L 147.769531 244.828125 Z M 145.027344 245.605469 L 134.929688 300.382812 L 95.046875 305.976562 Z M 146.425781 245.082031 L 166.070312 277.789062 L 136.398438 299.488281 Z M 166.730469 278.890625 L 190.394531 318.289062 L 136.863281 300.734375 Z M 167.769531 278.132812 L 186.417969 264.496094 L 190.941406 316.726562 Z M 146.328125 193.484375 L 145.476562 242.46875 L 89.851562 227.410156 Z M 144.976562 243.660156 L 94.03125 305.191406 L 88.929688 228.484375 Z M 87.730469 229.738281 L 92.734375 305.019531 L 62.949219 271.550781 Z M 61.992188 272.394531 L 91.828125 305.925781 L 13.855469 293.546875 Z M 14.0625 294.878906 L 92.925781 307.398438 L 99.972656 359.011719 Z M 94.21875 307.386719 L 134.257812 301.769531 L 101.195312 358.507812 Z M 101.992188 359.6875 L 135.570312 302.066406 L 177.832031 352.804688 Z M 137.394531 302.257812 L 190.984375 319.828125 L 178.890625 352.074219 Z M 180.800781 350.636719 L 192.027344 320.699219 L 200.042969 330.542969 Z M 201.054688 329.753906 L 192.878906 319.722656 L 268.742188 291.742188 Z M 192.386719 318.539062 L 187.675781 264.171875 L 274.015625 288.433594 Z M 188.09375 262.96875 L 236.789062 206.703125 L 274.910156 287.351562 Z M 188.09375 262.96875 " fill-opacity="1" fill-rule="nonzero"/></g></g></g></g></svg>