<svg xmlns="http://www.w3.org/2000/svg" xmlns:xlink="http://www.w3.org/1999/xlink" zoomAndPan="magnify" preserveAspectRatio="xMidYMid meet" version="1.0" viewBox="-86.32 108.86 529.75 157.14"><defs><clipPath id="361242f38b"><path d="M 0.0351562 117 L 374.964844 117 L 374.964844 260 L 0.0351562 260 Z M 0.0351562 117 " clip-rule="nonzero"/></clipPath><clipPath id="46c3798d4c"><path d="M 0.0351562 117 L 374.964844 117 L 374.964844 259 L 0.0351562 259 Z M 0.0351562 117 " clip-rule="nonzero"/></clipPath><clipPath id="ab76bb028e"><path d="M 0.0351562 116 L 374.964844 116 L 374.964844 259 L 0.0351562 259 Z M 0.0351562 116 " clip-rule="nonzero"/></clipPath><clipPath id="105fd951ac"><path d="M 0.0351562 115 L 374.964844 115 L 374.964844 259 L 0.0351562 259 Z M 0.0351562 115 " clip-rule="nonzero"/></clipPath><clipPath id="53d4a5ce82"><path d="M 0.0351562 114 L 374.964844 114 L 374.964844 259 L 0.0351562 259 Z M 0.0351562 114 " clip-rule="nonzero"/></clipPath><clipPath id="fbf407ebb4"><path d="M 0.0351562 113 L 374.964844 113 L 374.964844 259 L 0.0351562 259 Z M 0.0351562 113 " clip-rule="nonzero"/></clipPath><clipPath id="4b0294a1bc"><path d="M 0.0351562 112 L 374.964844 112 L 374.964844 259 L 0.0351562 259 Z M 0.0351562 112 " clip-rule="nonzero"/></clipPath><clipPath id="cc1f615fc0"><path d="M 0.0351562 111 L 374.964844 111 L 374.964844 259 L 0.0351562 259 Z M 0.0351562 111 " clip-rule="nonzero"/></clipPath><clipPath id="7a8d70f807"><path d="M 0.0351562 110 L 374.964844 110 L 374.964844 259 L 0.0351562 259 Z M 0.0351562 110 " clip-rule="nonzero"/></clipPath><clipPath id="303f73c555"><path d="M 0.0351562 109 L 374.964844 109 L 374.964844 259 L 0.0351562 259 Z M 0.0351562 109 " clip-rule="nonzero"/></clipPath><clipPath id="73f3b975f4"><path d="M 0.0351562 108.855469 L 374.964844 108.855469 L 374.964844 260 L 0.0351562 260 Z M 0.0351562 108.855469 " clip-rule="nonzero"/></clipPath><clipPath id="bf636bf165"><path d="M 0.0351562 111 L 374.964844 111 L 374.964844 257 L 0.0351562 257 Z M 0.0351562 111 " clip-rule="nonzero"/></clipPath><clipPath id="89073beec5"><path d="M 0.0351562 115 L 374.964844 115 L 374.964844 254 L 0.0351562 254 Z M 0.0351562 115 " clip-rule="nonzero"/></clipPath><clipPath id="c307fb93b0"><path d="M 0.0351562 118 L 374.964844 118 L 374.964844 251 L 0.0351562 251 Z M 0.0351562 118 " clip-rule="nonzero"/></clipPath><clipPath id="10ef5a4bfc"><path d="M 0.0351562 121 L 374.964844 121 L 374.964844 248 L 0.0351562 248 Z M 0.0351562 121 " clip-rule="nonzero"/></clipPath><clipPath id="24caf00c10"><path d="M 0.0351562 124 L 374.964844 124 L 374.964844 245 L 0.0351562 245 Z M 0.0351562 124 " clip-rule="nonzero"/></clipPath><clipPath id="405c681844"><path d="M 0.0351562 127 L 374.964844 127 L 374.964844 242 L 0.0351562 242 Z M 0.0351562 127 " clip-rule="nonzero"/></clipPath><clipPath id="497cee1de7"><path d="M 0.0351562 130 L 374.964844 130 L 374.964844 239 L 0.0351562 239 Z M 0.0351562 130 " clip-rule="nonzero"/></clipPath><clipPath id="2fb1019ac4"><path d="M 0.0351562 133 L 374.964844 133 L 374.964844 237 L 0.0351562 237 Z M 0.0351562 133 " clip-rule="nonzero"/></clipPath><clipPath id="d6e0c3b07e"><path d="M 0.0351562 136 L 374.964844 136 L 374.964844 234 L 0.0351562 234 Z M 0.0351562 136 " clip-rule="nonzero"/></clipPath><clipPath id="1a0e07c339"><path d="M 0.0351562 139 L 374.964844 139 L 374.964844 232 L 0.0351562 232 Z M 0.0351562 139 " clip-rule="nonzero"/></clipPath><clipPath id="9666c356a7"><path d="M 0.0351562 142 L 374.964844 142 L 374.964844 229 L 0.0351562 229 Z M 0.0351562 142 " clip-rule="nonzero"/></clipPath><clipPath id="ce7606a459"><path d="M 0.0351562 144 L 374.964844 144 L 374.964844 227 L 0.0351562 227 Z M 0.0351562 144 " clip-rule="nonzero"/></clipPath><clipPath id="94d145af9a"><path d="M 0.0351562 146 L 374.964844 146 L 374.964844 225 L 0.0351562 225 Z M 0.0351562 146 " clip-rule="nonzero"/></clipPath><clipPath id="7c36e8eeea"><path d="M 0.0351562 149 L 374.964844 149 L 374.964844 223 L 0.0351562 223 Z M 0.0351562 149 " clip-rule="nonzero"/></clipPath><clipPath id="2828326702"><path d="M 0.0351562 150 L 374.964844 150 L 374.964844 221 L 0.0351562 221 Z M 0.0351562 150 " clip-rule="nonzero"/></clipPath><clipPath id="4acb054017"><path d="M 0.0351562 152 L 374.964844 152 L 374.964844 220 L 0.0351562 220 Z M 0.0351562 152 " clip-rule="nonzero"/></clipPath><clipPath id="69fda301ca"><path d="M 0.0351562 154 L 374.964844 154 L 374.964844 219 L 0.0351562 219 Z M 0.0351562 154 " clip-rule="nonzero"/></clipPath><clipPath id="c027c3d298"><path d="M 0.0351562 155 L 374.964844 155 L 374.964844 218 L 0.0351562 218 Z M 0.0351562 155 " clip-rule="nonzero"/></clipPath><clipPath id="d6cdb311cd"><path d="M 0.0351562 156 L 374.964844 156 L 374.964844 218 L 0.0351562 218 Z M 0.0351562 156 " clip-rule="nonzero"/></clipPath><clipPath id="ccc8bf84c0"><path d="M 0.0351562 157 L 374.964844 157 L 374.964844 220 L 0.0351562 220 Z M 0.0351562 157 " clip-rule="nonzero"/></clipPath><clipPath id="78a4e29e4d"><path d="M 0.0351562 158 L 374.964844 158 L 374.964844 222 L 0.0351562 222 Z M 0.0351562 158 " clip-rule="nonzero"/></clipPath><clipPath id="fef52c3e49"><path d="M 0.0351562 159 L 374.964844 159 L 374.964844 224 L 0.0351562 224 Z M 0.0351562 159 " clip-rule="nonzero"/></clipPath><clipPath id="6826644bbb"><path d="M 0.0351562 159 L 374.964844 159 L 374.964844 226 L 0.0351562 226 Z M 0.0351562 159 " clip-rule="nonzero"/></clipPath><clipPath id="a3264779b8"><path d="M 0.0351562 160 L 374.964844 160 L 374.964844 228 L 0.0351562 228 Z M 0.0351562 160 " clip-rule="nonzero"/></clipPath><clipPath id="693d86a0ba"><path d="M 0.0351562 160 L 374.964844 160 L 374.964844 230 L 0.0351562 230 Z M 0.0351562 160 " clip-rule="nonzero"/></clipPath><clipPath id="59187edc3f"><path d="M 0.0351562 161 L 374.964844 161 L 374.964844 232 L 0.0351562 232 Z M 0.0351562 161 " clip-rule="nonzero"/></clipPath><clipPath id="18200e8860"><path d="M 0.0351562 165 L 374.964844 165 L 374.964844 229 L 0.0351562 229 Z M 0.0351562 165 " clip-rule="nonzero"/></clipPath><clipPath id="572a2b0b87"><path d="M 0.0351562 168 L 374.964844 168 L 374.964844 227 L 0.0351562 227 Z M 0.0351562 168 " clip-rule="nonzero"/></clipPath><clipPath id="4a16744d88"><path d="M 0.0351562 167 L 374.964844 167 L 374.964844 224 L 0.0351562 224 Z M 0.0351562 167 " clip-rule="nonzero"/></clipPath><clipPath id="de2ea88fe3"><path d="M 0.0351562 166 L 374.964844 166 L 374.964844 221 L 0.0351562 221 Z M 0.0351562 166 " clip-rule="nonzero"/></clipPath><clipPath id="8d05c1d528"><path d="M 0.0351562 164 L 374.964844 164 L 374.964844 219 L 0.0351562 219 Z M 0.0351562 164 " clip-rule="nonzero"/></clipPath><clipPath id="5ee6611dcb"><path d="M 0.0351562 162 L 374.964844 162 L 374.964844 216 L 0.0351562 216 Z M 0.0351562 162 " clip-rule="nonzero"/></clipPath><clipPath id="5d290c17cd"><path d="M 0.0351562 160 L 374.964844 160 L 374.964844 214 L 0.0351562 214 Z M 0.0351562 160 " clip-rule="nonzero"/></clipPath><clipPath id="bb0246ab3f"><path d="M 0.0351562 158 L 374.964844 158 L 374.964844 214 L 0.0351562 214 Z M 0.0351562 158 " clip-rule="nonzero"/></clipPath><clipPath id="a31c3f220d"><path d="M 0.0351562 157 L 374.964844 157 L 374.964844 214 L 0.0351562 214 Z M 0.0351562 157 " clip-rule="nonzero"/></clipPath><clipPath id="a3b62a1c95"><path d="M 0.0351562 155 L 374.964844 155 L 374.964844 215 L 0.0351562 215 Z M 0.0351562 155 " clip-rule="nonzero"/></clipPath><clipPath id="9f56feae1a"><path d="M 0.0351562 153 L 374.964844 153 L 374.964844 216 L 0.0351562 216 Z M 0.0351562 153 " clip-rule="nonzero"/></clipPath><clipPath id="7a8bd649ed"><path d="M 0.0351562 151 L 374.964844 151 L 374.964844 217 L 0.0351562 217 Z M 0.0351562 151 " clip-rule="nonzero"/></clipPath><clipPath id="d397ff64c2"><path d="M 0.0351562 149 L 374.964844 149 L 374.964844 219 L 0.0351562 219 Z M 0.0351562 149 " clip-rule="nonzero"/></clipPath><clipPath id="918a70f5e0"><path d="M 0.0351562 147 L 374.964844 147 L 374.964844 222 L 0.0351562 222 Z M 0.0351562 147 " clip-rule="nonzero"/></clipPath><clipPath id="ad89777fe1"><path d="M 0.0351562 146 L 374.964844 146 L 374.964844 226 L 0.0351562 226 Z M 0.0351562 146 " clip-rule="nonzero"/></clipPath><clipPath id="08c08d78be"><path d="M 0.0351562 144 L 374.964844 144 L 374.964844 230 L 0.0351562 230 Z M 0.0351562 144 " clip-rule="nonzero"/></clipPath><clipPath id="71a0c9717e"><path d="M 0.0351562 142 L 374.964844 142 L 374.964844 233 L 0.0351562 233 Z M 0.0351562 142 " clip-rule="nonzero"/></clipPath><clipPath id="dd29c6d362"><path d="M 0.0351562 140 L 374.964844 140 L 374.964844 237 L 0.0351562 237 Z M 0.0351562 140 " clip-rule="nonzero"/></clipPath><clipPath id="43d9530c29"><path d="M 0.0351562 138 L 374.964844 138 L 374.964844 240 L 0.0351562 240 Z M 0.0351562 138 " clip-rule="nonzero"/></clipPath><clipPath id="b477dab3d2"><path d="M 0.0351562 136 L 374.964844 136 L 374.964844 244 L 0.0351562 244 Z M 0.0351562 136 " clip-rule="nonzero"/></clipPath><clipPath id="ac47698fff"><path d="M 0.0351562 134 L 374.964844 134 L 374.964844 247 L 0.0351562 247 Z M 0.0351562 134 " clip-rule="nonzero"/></clipPath><clipPath id="6ff39bb53a"><path d="M 0.0351562 132 L 374.964844 132 L 374.964844 251 L 0.0351562 251 Z M 0.0351562 132 " clip-rule="nonzero"/></clipPath><clipPath id="6e823cf401"><path d="M 0.0351562 130 L 374.964844 130 L 374.964844 255 L 0.0351562 255 Z M 0.0351562 130 " clip-rule="nonzero"/></clipPath><clipPath id="d115486358"><path d="M 0.0351562 128 L 374.964844 128 L 374.964844 259 L 0.0351562 259 Z M 0.0351562 128 " clip-rule="nonzero"/></clipPath><clipPath id="010c58cc6a"><path d="M 0.0351562 126 L 374.964844 126 L 374.964844 262 L 0.0351562 262 Z M 0.0351562 126 " clip-rule="nonzero"/></clipPath><clipPath id="85b86c5861"><path d="M 0.0351562 124 L 374.964844 124 L 374.964844 266 L 0.0351562 266 Z M 0.0351562 124 " clip-rule="nonzero"/></clipPath></defs><g clip-path="url(#361242f38b)"><path stroke-linecap="butt" transform="matrix(0.130185, 0, 0, 0.130359, 0.0341386, 31.707596)" fill="none" stroke-linejoin="miter" d="M 3096.36179 1142.631642 C 2954.105879 1135.080392 2827.542827 1231.47869 2731.885404 1337.076329 C 2636.257986 1442.673968 2553.862979 1564.962266 2432.310839 1639.24619 C 2328.521935 1702.682683 2204.509347 1725.336433 2082.957207 1729.621468 C 1818.369015 1738.940669 1551.410391 1664.716676 1329.609992 1520.194141 C 1149.427173 1402.790183 1001.800284 1242.985357 842.501269 1098.522753 C 668.109506 940.366017 473.974146 797.221886 250.76349 722.398587 C 27.522828 647.575289 -229.233938 648.144629 -433.151079 765.758344 " stroke="#cccccc" stroke-width="1" stroke-opacity="1" stroke-miterlimit="10"/></g><g clip-path="url(#46c3798d4c)"><path stroke-linecap="butt" transform="matrix(0.130185, 0, 0, 0.130359, 0.0341386, 31.707596)" fill="none" stroke-linejoin="miter" d="M -433.241096 775.766747 C -307.458185 704.749038 -165.382307 670.888275 -21.296063 672.386539 C 72.591037 673.345427 167.25828 689.406816 256.854599 717.8139 C 277.55837 724.376295 298.052103 731.567962 318.305792 739.299004 C 426.805554 780.740983 528.584092 838.214386 624.631586 904.767267 C 707.146616 961.941017 785.46088 1025.856955 860.174488 1092.649559 C 934.317993 1158.932753 1005.911033 1228.631989 1078.884325 1296.443413 C 1165.900174 1377.289732 1254.896384 1455.409211 1353.884413 1520.703551 C 1497.580586 1615.124141 1660.570273 1680.118829 1829.801097 1710.203968 C 1920.447608 1726.295322 2012.744419 1732.378273 2104.561142 1728.153169 C 2225.513173 1722.609593 2348.565586 1698.487544 2451.724375 1634.781364 C 2571.566203 1560.946919 2653.541134 1440.69626 2748.208377 1336.447058 C 2842.87562 1232.227822 2967.248273 1136.788413 3106.893708 1141.492961 " stroke="#cccccc" stroke-width="1" stroke-opacity="1" stroke-miterlimit="10"/><path stroke-linecap="butt" transform="matrix(0.130185, 0, 0, 0.130359, 0.0341386, 31.707596)" fill="none" stroke-linejoin="miter" d="M -433.331112 785.805115 C -305.237781 714.967198 -163.942045 675.562858 -18.835615 673.165636 C 75.771617 671.577476 171.789105 685.930844 262.975714 713.259177 C 284.039551 719.581851 304.863344 726.533795 325.477098 734.05508 C 435.89721 774.508205 539.656109 831.801816 637.563942 898.354698 C 721.699266 955.528448 801.633826 1019.594212 877.847708 1086.776364 C 953.491485 1153.449107 1026.404766 1223.747649 1100.368238 1292.577892 C 1188.5543 1374.592857 1278.21063 1454.480287 1378.18884 1521.242926 C 1521.074866 1615.933204 1683.434438 1681.587127 1852.305196 1710.923134 C 1942.801679 1726.62494 2034.76843 1731.868863 2126.195083 1726.68487 C 2246.516998 1719.852787 2368.609236 1694.26244 2471.167917 1630.316537 C 2589.329439 1556.931572 2670.884293 1438.688586 2764.561356 1335.817788 C 2858.238418 1232.917024 2980.420672 1138.466468 3117.455632 1140.354281 " stroke="#cccccc" stroke-width="1" stroke-opacity="1" stroke-miterlimit="10"/><path stroke-linecap="butt" transform="matrix(0.130185, 0, 0, 0.130359, 0.0341386, 31.707596)" fill="none" stroke-linejoin="miter" d="M -433.421128 795.843483 C -303.047382 725.215323 -162.501783 680.207476 -16.375167 673.974698 C 78.952196 669.809525 176.349936 682.484837 269.066824 708.704455 C 290.490726 714.757441 311.674584 721.499629 332.648404 728.841122 C 444.988866 768.275427 550.69812 825.389247 650.496297 891.912163 C 736.281923 949.085913 817.806772 1013.301503 895.550932 1080.90317 C 972.664978 1147.935496 1046.928504 1218.893274 1121.882156 1288.712371 C 1211.208426 1371.925947 1301.374849 1453.791086 1402.493267 1521.752336 C 1544.389112 1617.071884 1706.328608 1683.025461 1874.839301 1711.642301 C 1965.125745 1726.954558 2056.822447 1731.389419 2147.829023 1725.186606 C 2267.520824 1717.125947 2388.682893 1690.037336 2490.611458 1625.821745 C 2607.092674 1552.916225 2688.167441 1436.710878 2780.914334 1335.158551 C 2873.601216 1233.63619 2993.563066 1140.144524 3127.98755 1139.2156 " stroke="#cccccc" stroke-width="1" stroke-opacity="1" stroke-miterlimit="10"/><path stroke-linecap="butt" transform="matrix(0.130185, 0, 0, 0.130359, 0.0341386, 31.707596)" fill="none" stroke-linejoin="miter" d="M -433.511145 805.851886 C -300.826978 735.433483 -161.061521 684.882059 -13.944724 674.753795 C 82.10277 668.071539 180.880761 679.008865 275.187938 704.119768 C 296.941901 709.933032 318.485825 716.435497 339.819711 723.597198 C 454.110528 762.04265 561.770137 818.976677 663.428653 885.499594 C 750.864579 942.703309 833.979717 1007.03876 913.224151 1075.00001 C 991.83847 1142.45185 1067.452242 1214.008934 1143.396075 1284.84685 C 1233.862552 1369.229072 1324.629085 1452.922093 1426.797694 1522.261746 C 1567.853386 1617.970843 1729.222778 1684.523725 1897.3434 1712.361468 C 1987.479817 1727.284176 2078.876464 1730.880009 2169.462964 1723.718308 C 2288.52465 1714.369141 2408.726543 1685.812231 2510.024994 1621.326954 C 2624.825904 1548.900878 2705.480594 1434.703204 2797.207302 1334.529281 C 2888.934009 1234.355357 3006.70546 1141.82258 3138.519469 1138.07692 " stroke="#cccccc" stroke-width="1" stroke-opacity="1" stroke-miterlimit="10"/><path stroke-linecap="butt" transform="matrix(0.130185, 0, 0, 0.130359, 0.0341386, 31.707596)" fill="none" stroke-linejoin="miter" d="M -433.601161 815.890254 C -298.636579 745.651643 -159.651264 689.556643 -11.484276 675.532893 C 85.283349 666.303587 185.441592 675.532893 281.309053 699.53508 C 303.423081 705.108622 325.327071 711.40133 346.991017 718.38324 C 463.202184 755.779906 572.842153 812.534142 676.391014 879.057059 C 765.417229 936.260774 850.182669 1000.746052 930.89737 1069.126816 C 1011.011962 1136.968205 1087.945975 1209.124593 1164.879988 1280.981329 C 1256.486673 1366.562163 1347.88332 1452.083065 1451.102121 1522.801121 C 1591.287654 1618.839836 1752.116948 1685.992023 1919.847498 1713.1106 C 2009.803883 1727.613794 2100.930481 1730.400565 2191.066899 1722.250009 C 2309.528475 1711.642301 2428.620167 1681.37737 2529.468535 1616.892093 C 2642.409107 1544.645808 2722.793748 1432.725496 2813.56028 1333.90001 C 2904.296807 1235.074524 3019.877859 1143.500635 3149.081392 1136.938239 " stroke="#cccccc" stroke-width="1" stroke-opacity="1" stroke-miterlimit="10"/><path stroke-linecap="butt" transform="matrix(0.130185, 0, 0, 0.130359, 0.0341386, 31.707596)" fill="none" stroke-linejoin="miter" d="M -433.691178 825.898656 C -296.416174 755.899768 -158.211001 694.231226 -9.023828 676.341955 C 88.463928 664.535636 189.972417 672.05692 287.400163 694.980358 C 309.874256 700.284212 332.138311 706.367163 354.162323 713.139316 C 472.29384 749.547129 583.884165 806.151538 689.293364 872.674455 C 779.96988 929.848205 866.325609 994.483309 948.570589 1063.283587 C 1030.155449 1131.514524 1108.469713 1204.270218 1186.363901 1277.115808 C 1279.140799 1363.895253 1371.137556 1451.214072 1475.406548 1523.340496 C 1614.751928 1619.708829 1774.981112 1687.460322 1942.351597 1713.829766 C 2032.127949 1727.973377 2122.954493 1729.891155 2212.670834 1720.781711 C 2330.532301 1708.885495 2448.633812 1677.122301 2548.852066 1612.397301 C 2660.082326 1540.57053 2740.076896 1430.747787 2829.853248 1333.270739 C 2919.6296 1235.79369 3032.990247 1145.178691 3159.583305 1135.799559 " stroke="#cccccc" stroke-width="1" stroke-opacity="1" stroke-miterlimit="10"/><path stroke-linecap="butt" transform="matrix(0.130185, 0, 0, 0.130359, 0.0341386, 31.707596)" fill="none" stroke-linejoin="miter" d="M -433.751188 835.937024 C -294.225775 766.117927 -156.770739 698.875844 -6.56338 677.121052 C 91.614502 662.767684 194.533248 668.580948 293.521278 690.39567 C 316.325431 695.459802 338.949552 701.303032 361.333629 707.895393 C 481.415501 743.284386 594.956181 799.709004 702.22572 866.23192 C 794.552536 923.435635 882.52856 988.190601 966.273814 1057.380427 C 1049.328941 1126.000913 1128.993451 1199.385878 1207.847814 1273.250288 C 1301.794926 1361.198378 1394.421797 1450.315114 1499.710974 1523.81994 C 1638.216202 1620.547857 1797.875282 1688.92862 1964.855696 1714.548933 C 2054.482021 1728.27303 2145.00851 1729.381745 2234.334779 1719.283447 C 2351.536127 1706.12869 2468.677463 1672.867232 2568.295607 1607.902509 C 2677.815556 1536.525218 2757.390049 1428.740114 2846.206226 1332.611503 C 2934.992398 1236.512857 3046.162647 1146.856746 3170.145229 1134.660878 " stroke="#cccccc" stroke-width="1" stroke-opacity="1" stroke-miterlimit="10"/></g><g clip-path="url(#ab76bb028e)"><path stroke-linecap="butt" transform="matrix(0.130185, 0, 0, 0.130359, 0.0341386, 31.707596)" fill="none" stroke-linejoin="miter" d="M -433.841205 845.945427 C -292.005371 776.336087 -155.360482 703.550427 -4.102932 677.90015 C 94.765076 660.999733 199.094079 665.104976 299.612387 685.840948 C 322.776606 690.605427 345.760793 696.268865 368.504935 702.681434 C 490.507157 737.051608 606.028198 793.296434 715.158075 859.789385 C 809.105187 917.023066 898.701506 981.927858 983.947033 1051.507232 C 1068.502434 1120.517267 1149.487184 1194.501538 1229.361733 1269.384767 C 1324.449052 1358.561433 1417.676032 1449.446121 1523.985396 1524.359315 C 1661.710481 1621.41685 1820.739447 1690.396919 1987.359795 1715.2681 C 2076.776082 1728.632613 2167.032521 1728.902301 2255.938714 1717.815148 C 2372.539952 1703.40185 2488.691108 1668.612162 2587.709143 1603.437683 C 2695.51878 1532.479905 2774.673197 1426.792371 2862.529199 1331.982232 C 2950.325191 1237.202059 3059.30504 1148.534802 3180.677147 1133.522198 " stroke="#cccccc" stroke-width="1" stroke-opacity="1" stroke-miterlimit="10"/><path stroke-linecap="butt" transform="matrix(0.130185, 0, 0, 0.130359, 0.0341386, 31.707596)" fill="none" stroke-linejoin="miter" d="M -433.931221 855.983795 C -289.814972 786.554247 -153.92022 708.195045 -1.642484 678.709212 C 97.945655 659.231782 203.624904 661.629004 305.733502 681.256261 C 329.227781 685.810983 352.572033 691.234698 375.676241 697.437511 C 499.598813 730.81883 617.070209 786.883865 728.090431 853.376816 C 823.657837 910.610497 914.874452 975.665114 1001.620252 1045.634038 C 1087.675926 1115.033621 1170.010922 1189.647163 1250.845646 1265.519246 C 1347.103178 1355.894524 1440.960273 1448.547162 1548.319828 1524.89869 C 1685.20476 1622.255877 1843.663622 1691.895183 2009.863894 1716.017231 C 2099.130153 1728.962231 2189.086538 1728.422856 2277.542649 1716.34685 C 2393.543778 1700.675009 2508.734759 1664.387058 2607.152685 1598.972857 C 2713.25201 1528.464558 2791.986351 1424.814662 2878.852173 1331.352961 C 2965.657983 1237.95119 3072.447434 1150.242823 3191.209066 1132.383517 " stroke="#cccccc" stroke-width="1" stroke-opacity="1" stroke-miterlimit="10"/><path stroke-linecap="butt" transform="matrix(0.130185, 0, 0, 0.130359, 0.0341386, 31.707596)" fill="none" stroke-linejoin="miter" d="M -434.021238 866.022163 C -287.594567 796.802372 -152.479957 712.869629 0.817964 679.488309 C 101.126235 657.493795 208.185735 658.153032 311.854617 676.701539 C 335.708962 680.986573 359.413279 686.170566 382.847548 692.223552 C 508.720474 724.586052 628.142226 780.471295 741.052792 846.964247 C 838.240493 904.197927 931.047397 969.402371 1019.323476 1039.760844 C 1106.849418 1109.549975 1190.504655 1184.762823 1272.329559 1261.68369 C 1369.727299 1353.197649 1464.244514 1447.648204 1572.624255 1525.438065 C 1708.69904 1623.094905 1866.527787 1693.363481 2032.367993 1716.736398 C 2121.454219 1729.291849 2211.110549 1727.943412 2299.17659 1714.878551 C 2414.547604 1697.918204 2528.77841 1660.161954 2626.596226 1594.50803 C 2730.98524 1524.449211 2809.299504 1422.806989 2895.175146 1330.72369 C 2981.020782 1238.670357 3085.589828 1151.920878 3201.770989 1131.274802 " stroke="#cccccc" stroke-width="1" stroke-opacity="1" stroke-miterlimit="10"/></g><g clip-path="url(#105fd951ac)"><path stroke-linecap="butt" transform="matrix(0.130185, 0, 0, 0.130359, 0.0341386, 31.707596)" fill="none" stroke-linejoin="miter" d="M -434.111254 876.030566 C -285.404168 807.020531 -151.039695 717.544212 3.278413 680.267407 C 104.306814 655.695879 212.71656 654.677059 317.945726 672.116851 C 342.160137 676.162164 366.22452 681.106434 390.048859 686.979629 C 517.81213 718.323309 639.214243 774.058726 753.985147 840.521712 C 852.82315 897.755392 947.250349 963.109663 1036.996695 1033.857684 C 1126.02291 1104.036364 1211.028393 1179.878482 1293.843477 1257.788204 C 1392.411431 1350.530739 1487.528755 1446.749246 1596.928682 1525.947475 C 1732.193319 1623.903968 1889.421957 1694.83178 2054.872092 1717.455565 C 2143.808291 1729.621468 2233.164566 1727.434002 2320.81053 1713.410252 C 2435.551429 1695.191363 2548.822061 1655.906884 2646.009762 1590.013239 C 2748.71847 1520.403898 2826.612658 1420.82928 2911.528124 1330.064454 C 2996.38358 1239.389524 3098.762227 1153.598934 3212.302908 1130.106156 " stroke="#cccccc" stroke-width="1" stroke-opacity="1" stroke-miterlimit="10"/><path stroke-linecap="butt" transform="matrix(0.130185, 0, 0, 0.130359, 0.0341386, 31.707596)" fill="none" stroke-linejoin="miter" d="M -434.20127 886.068934 C -283.183764 817.238691 -149.599433 722.18883 5.708855 681.046504 C 107.457388 653.957893 217.277391 651.201087 324.066841 667.562129 C 348.611312 671.337754 373.035761 676.072268 397.220166 681.735705 C 526.903786 712.090532 650.286259 767.616191 766.917503 834.109142 C 867.3758 891.342823 963.423294 956.84692 1054.669914 1027.984489 C 1145.196403 1098.552718 1231.552132 1175.024107 1315.327391 1253.922684 C 1415.035551 1347.863829 1510.843002 1445.820322 1621.233109 1526.456885 C 1755.687598 1624.71303 1912.316127 1696.300079 2077.376191 1718.204697 C 2166.132357 1729.951086 2255.218583 1726.954558 2342.444471 1711.941954 C 2456.555255 1692.434558 2568.835706 1651.68178 2665.453304 1585.518447 C 2766.4517 1516.388551 2843.895806 1418.821607 2927.851097 1329.405218 C 3011.746378 1240.078725 3111.934626 1155.276989 3222.864831 1128.967475 " stroke="#cccccc" stroke-width="1" stroke-opacity="1" stroke-miterlimit="10"/><path stroke-linecap="butt" transform="matrix(0.130185, 0, 0, 0.130359, 0.0341386, 31.707596)" fill="none" stroke-linejoin="miter" d="M -434.291287 896.077337 C -280.993365 827.456851 -148.189176 726.863413 8.169303 681.855566 C 110.637967 652.189941 221.838221 647.75508 330.157951 662.977441 C 355.062487 666.513344 379.847001 671.038101 404.391472 676.521747 C 535.995442 705.857754 661.32827 761.233587 779.849858 827.696573 C 881.958456 884.930253 979.59624 950.584177 1072.373139 1022.14126 C 1164.369895 1093.099038 1252.045864 1170.139767 1336.841309 1250.087128 C 1437.689678 1345.196919 1534.127243 1444.921364 1645.50753 1526.99626 C 1779.211883 1625.522093 1935.180291 1697.798343 2099.88029 1718.953829 C 2188.456423 1730.310669 2277.2726 1726.445148 2364.048406 1710.473655 C 2477.559081 1689.707718 2588.879357 1647.486641 2684.86684 1581.083586 C 2784.18493 1512.403169 2861.208959 1416.873864 2944.17407 1328.805913 C 3027.079171 1240.827857 3125.047015 1156.98501 3233.39675 1127.85876 " stroke="#cccccc" stroke-width="1" stroke-opacity="1" stroke-miterlimit="10"/></g><g clip-path="url(#53d4a5ce82)"><path stroke-linecap="butt" transform="matrix(0.130185, 0, 0, 0.130359, 0.0341386, 31.707596)" fill="none" stroke-linejoin="miter" d="M -434.351298 906.115705 C -278.772961 837.704976 -146.748914 731.508031 10.629752 682.634664 C 113.818546 650.42199 226.369047 644.279108 336.279066 658.422719 C 361.543667 661.688934 386.658242 666.003934 411.562778 671.277823 C 545.117104 699.595011 672.400287 754.791052 792.782214 821.284004 C 896.541112 878.517684 995.769186 944.291469 1090.046358 1016.238101 C 1183.543387 1087.585427 1272.569603 1165.255427 1358.325222 1246.221607 C 1460.343804 1342.500044 1557.441489 1443.99244 1669.811957 1527.535635 C 1802.736168 1626.30119 1958.074461 1699.266641 2122.384389 1719.672995 C 2210.780489 1730.640287 2299.296612 1725.965704 2385.652341 1709.005356 C 2498.562906 1686.980877 2608.923007 1643.261537 2704.280376 1576.588794 C 2801.888154 1508.357857 2878.492107 1414.86619 2960.497043 1328.176642 C 3042.411964 1241.547024 3138.189409 1158.663066 3243.928668 1126.72008 " stroke="#cccccc" stroke-width="1" stroke-opacity="1" stroke-miterlimit="10"/><path stroke-linecap="butt" transform="matrix(0.130185, 0, 0, 0.130359, 0.0341386, 31.707596)" fill="none" stroke-linejoin="miter" d="M -434.441314 916.154073 C -276.582562 847.923135 -145.308651 736.182615 13.0902 683.443726 C 116.96912 648.684004 230.929877 640.803136 342.400181 653.838032 C 367.994842 656.864525 393.469482 660.939802 418.734084 666.0339 C 554.20876 693.362233 683.472304 748.378483 805.714569 814.841469 C 911.093763 872.075149 1011.972137 938.028726 1107.719577 1010.364906 C 1202.686874 1082.101781 1293.093341 1160.401052 1379.809135 1242.326121 C 1482.99793 1339.833135 1580.755736 1443.063517 1694.116384 1528.045044 C 1826.260452 1627.080287 1980.968631 1700.73494 2144.918493 1720.392162 C 2233.134561 1730.969905 2321.350629 1725.456294 2407.286281 1707.537058 C 2519.566732 1684.224072 2628.996664 1639.036433 2723.723917 1572.123968 C 2819.65139 1504.372475 2895.80526 1412.888482 2976.850022 1327.517406 C 3057.774762 1242.236225 3151.361808 1160.341121 3254.460586 1125.581399 " stroke="#cccccc" stroke-width="1" stroke-opacity="1" stroke-miterlimit="10"/></g><g clip-path="url(#fbf407ebb4)"><path stroke-linecap="butt" transform="matrix(0.130185, 0, 0, 0.130359, 0.0341386, 31.707596)" fill="none" stroke-linejoin="miter" d="M -434.531331 926.162476 C -274.362157 858.141295 -143.868389 740.827233 15.550648 684.222823 C 120.1497 646.916052 235.460702 637.327164 348.49129 649.283309 C 374.446017 652.040115 400.310728 655.905636 425.90539 660.819941 C 563.330421 687.129455 694.54432 741.965913 818.646925 808.428899 C 925.676419 865.692545 1028.145083 931.765983 1125.422801 1004.491712 C 1221.860366 1076.618135 1313.587074 1155.516711 1401.323054 1238.490565 C 1505.652056 1337.166225 1604.069982 1442.134593 1718.450816 1528.584419 C 1849.814743 1627.859384 2003.862801 1702.203238 2167.422592 1721.141294 C 2255.458627 1731.299523 2343.404646 1724.976849 2428.920221 1706.068759 C 2540.600563 1681.497232 2649.040314 1634.841294 2743.167459 1567.659141 C 2837.414625 1500.357128 2913.148419 1410.910774 2993.172995 1326.888135 C 3073.13756 1242.985357 3164.534207 1162.019177 3265.02251 1124.442718 " stroke="#cccccc" stroke-width="1" stroke-opacity="1" stroke-miterlimit="10"/><path stroke-linecap="butt" transform="matrix(0.130185, 0, 0, 0.130359, 0.0341386, 31.707596)" fill="none" stroke-linejoin="miter" d="M -434.621347 936.200844 C -272.171758 868.359455 -142.458132 745.501816 18.011096 685.00192 C 123.330279 645.148101 240.021533 633.851191 354.612405 644.698622 C 380.897192 647.215705 407.121969 650.871469 433.076696 655.576018 C 572.422077 680.866712 705.586332 735.553344 831.57928 801.986365 C 940.22907 859.25001 1044.318029 925.473274 1143.09602 998.618517 C 1241.033859 1071.134489 1334.110812 1150.662336 1422.806967 1234.595079 C 1528.306183 1334.46935 1627.384229 1441.175704 1742.725237 1529.093829 C 1873.339027 1628.638482 2026.756971 1703.671537 2189.926691 1721.830495 C 2277.812699 1731.599176 2365.458663 1724.46744 2450.554162 1704.570495 C 2561.604389 1678.740426 2669.113971 1630.61619 2762.611 1563.16435 C 2855.17786 1496.371746 2930.431567 1408.9031 3009.495968 1326.228899 C 3088.500358 1243.674559 3177.676601 1163.667267 3275.554428 1123.304038 " stroke="#cccccc" stroke-width="1" stroke-opacity="1" stroke-miterlimit="10"/></g><g clip-path="url(#4b0294a1bc)"><path stroke-linecap="butt" transform="matrix(0.130185, 0, 0, 0.130359, 0.0341386, 31.707596)" fill="none" stroke-linejoin="miter" d="M -434.711363 946.209246 C -269.951354 878.577615 -141.01787 750.1764 20.471544 685.781018 C 126.480853 643.38015 244.552358 630.375219 360.73352 640.1439 C 387.378373 642.391296 413.93321 645.807337 440.248003 650.332094 C 581.513733 674.633934 716.658348 729.140775 844.511636 795.573795 C 954.78172 852.837441 1060.490974 919.210531 1160.769239 992.715358 C 1260.207351 1065.650844 1354.604544 1145.777996 1444.29088 1230.759524 C 1550.930303 1331.80244 1650.698475 1440.216815 1767.029664 1529.633204 C 1896.863312 1629.387614 2049.621136 1705.139836 2212.400784 1722.579627 C 2300.106759 1731.958759 2387.452669 1723.987995 2472.158097 1703.102197 C 2582.578209 1676.013586 2689.127616 1626.421051 2781.994531 1558.669558 C 2872.881085 1492.386364 2947.714715 1406.925392 3025.818941 1325.599628 C 3103.803145 1244.393725 3190.788989 1165.375288 3286.056341 1122.165357 " stroke="#cccccc" stroke-width="1" stroke-opacity="1" stroke-miterlimit="10"/><path stroke-linecap="butt" transform="matrix(0.130185, 0, 0, 0.130359, 0.0341386, 31.707596)" fill="none" stroke-linejoin="miter" d="M -434.80138 956.247614 C -267.730949 888.82574 -139.577607 754.850983 22.931992 686.59008 C 129.661432 641.612198 249.113189 626.899247 366.824629 635.559212 C 393.829548 637.566886 420.74445 640.773171 447.419309 645.118136 C 590.605389 668.401157 727.730365 722.728205 857.473997 789.161226 C 969.364376 846.424872 1076.66392 912.917823 1178.472464 986.842163 C 1279.380843 1060.137232 1375.128283 1140.893656 1465.804799 1226.894003 C 1573.58443 1329.135531 1674.042727 1439.257926 1791.334091 1530.142614 C 1920.387597 1630.136745 2072.4853 1706.608134 2234.934889 1723.298794 C 2322.460831 1732.288377 2409.506685 1723.478586 2493.792037 1701.633898 C 2603.582035 1673.25678 2709.201272 1622.225912 2801.438072 1554.204732 C 2890.674326 1488.400982 2965.027869 1404.917718 3042.141914 1324.970357 C 3119.165944 1245.112892 3203.961388 1167.053343 3296.618265 1121.026677 " stroke="#cccccc" stroke-width="1" stroke-opacity="1" stroke-miterlimit="10"/></g><g clip-path="url(#cc1f615fc0)"><path stroke-linecap="butt" transform="matrix(0.130185, 0, 0, 0.130359, 0.0341386, 31.707596)" fill="none" stroke-linejoin="miter" d="M -434.891396 966.256017 C -265.54055 899.043899 -138.137345 759.495601 25.362435 687.369177 C 132.812006 639.874212 253.67402 623.423275 372.915739 631.00449 C 400.280723 632.742476 427.555691 635.739004 454.590615 639.874212 C 599.697045 662.138414 738.772376 716.315636 870.376347 782.718691 C 983.917027 840.012302 1092.836866 906.65508 1196.115677 980.968969 C 1298.52433 1054.683552 1395.622015 1136.039281 1487.258706 1223.028482 C 1596.238556 1326.468621 1697.356974 1438.299037 1815.608512 1530.681989 C 1943.941887 1630.885877 2095.37947 1708.076433 2257.408982 1724.047926 C 2344.784897 1732.617995 2431.560702 1722.999141 2515.395972 1700.1656 C 2624.58586 1670.52994 2729.274928 1618.060739 2820.851608 1549.739905 C 2908.407556 1484.4156 2982.311017 1402.969975 3058.464887 1324.341086 C 3134.498736 1245.832059 3217.073777 1168.731399 3307.150183 1119.887996 " stroke="#cccccc" stroke-width="1" stroke-opacity="1" stroke-miterlimit="10"/><path stroke-linecap="butt" transform="matrix(0.130185, 0, 0, 0.130359, 0.0341386, 31.707596)" fill="none" stroke-linejoin="miter" d="M -434.951407 976.294385 C -263.320146 909.262059 -136.697083 764.170184 27.852889 688.148275 C 136.022591 638.106261 258.234851 619.947302 379.066859 626.419802 C 406.761903 627.918066 434.396937 630.674872 461.791927 634.660254 C 608.848712 655.905636 749.844393 709.903066 883.338708 776.306122 C 998.499683 833.599733 1109.039817 900.392337 1213.848907 975.095774 C 1317.727828 1049.169941 1416.175759 1131.154941 1508.80263 1219.162961 C 1618.922688 1323.771746 1720.731231 1437.310183 1839.97295 1531.191398 C 1967.526183 1631.635009 2118.303645 1709.574697 2279.973092 1724.767093 C 2367.138969 1732.947613 2453.644725 1722.489731 2537.059918 1698.667336 C 2645.619691 1667.773134 2749.37859 1613.8656 2840.325155 1545.245114 C 2926.200797 1480.430218 2999.654176 1400.962301 3074.817866 1323.68185 C 3149.89154 1246.551225 3230.276181 1170.409454 3317.712107 1118.749316 " stroke="#cccccc" stroke-width="1" stroke-opacity="1" stroke-miterlimit="10"/></g><g clip-path="url(#7a8d70f807)"><path stroke-linecap="butt" transform="matrix(0.130185, 0, 0, 0.130359, 0.0341386, 31.707596)" fill="none" stroke-linejoin="miter" d="M -435.041423 986.302788 C -261.129747 919.480219 -135.286826 768.814802 30.283331 688.927372 C 139.173165 636.338309 262.765676 616.47133 385.157968 621.835115 C 413.213078 623.093657 441.208178 625.640705 468.963233 629.386365 C 617.910362 649.642893 760.886404 703.460532 896.271063 769.863587 C 1013.082339 827.157198 1125.212763 894.069663 1231.522126 969.192614 C 1336.871315 1043.65633 1436.669492 1126.240635 1530.286543 1215.267475 C 1641.546808 1321.074871 1744.045478 1436.321329 1864.247371 1531.700808 C 1991.080473 1632.384141 2141.16781 1711.01303 2302.447186 1725.486259 C 2389.463035 1733.277231 2475.668736 1721.980322 2558.663853 1697.199037 C 2666.593512 1665.016329 2769.452246 1609.670461 2859.708686 1540.750322 C 2943.964032 1476.474801 3016.937324 1398.984593 3091.140839 1323.052579 C 3165.194327 1247.240427 3243.38857 1172.08751 3328.244025 1117.58067 " stroke="#cccccc" stroke-width="1" stroke-opacity="1" stroke-miterlimit="10"/><path stroke-linecap="butt" transform="matrix(0.130185, 0, 0, 0.130359, 0.0341386, 31.707596)" fill="none" stroke-linejoin="miter" d="M -435.13144 996.341156 C -258.909343 929.728344 -133.846564 773.489386 32.743779 689.736434 C 142.323738 634.570358 267.296501 613.025323 391.249078 617.280393 C 419.664253 618.269247 448.019418 620.606539 476.134539 624.202372 C 627.032024 643.44008 771.958421 697.077927 909.203419 763.451018 C 1027.63499 820.744629 1141.385709 887.836885 1249.195345 963.349385 C 1356.044807 1038.202649 1457.19323 1121.38626 1551.770457 1211.43192 C 1664.200935 1318.407961 1767.599768 1435.122718 1888.551798 1532.240183 C 2014.844801 1632.863586 2164.06198 1712.511294 2324.951284 1726.205426 C 2411.787101 1733.606849 2497.692748 1721.500877 2580.267788 1695.730738 C 2687.597337 1662.289488 2789.525903 1605.505287 2879.152227 1536.285496 C 2961.727268 1472.519385 3034.250477 1397.006885 3107.463812 1322.423308 C 3180.557125 1247.959593 3256.530963 1173.765566 3338.775944 1116.471955 " stroke="#cccccc" stroke-width="1" stroke-opacity="1" stroke-miterlimit="10"/></g><g clip-path="url(#303f73c555)"><path stroke-linecap="butt" transform="matrix(0.130185, 0, 0, 0.130359, 0.0341386, 31.707596)" fill="none" stroke-linejoin="miter" d="M -435.221456 1006.379524 C -256.718944 939.946503 -132.406301 778.163969 35.204228 690.515532 C 145.504318 632.832372 271.857332 609.549351 397.370193 612.725671 C 426.115429 613.444837 454.830659 615.572372 483.27584 618.958448 C 636.12368 637.177337 783.030437 690.665358 922.135774 757.038448 C 1042.187641 814.332059 1157.558654 881.574142 1266.868564 957.476191 C 1375.218299 1032.719003 1477.686963 1116.531885 1573.25437 1207.566399 C 1686.825055 1315.771017 1790.914014 1434.193794 1912.82622 1532.779558 C 2038.339081 1633.702614 2186.926144 1714.009558 2347.455383 1726.984523 C 2434.141172 1733.966433 2519.746765 1721.021433 2601.901729 1694.292405 C 2708.601163 1659.562648 2809.719581 1601.519905 2898.565763 1531.850634 C 2979.610525 1468.683829 3051.56363 1395.029176 3123.786785 1321.794038 C 3195.919924 1248.708725 3269.703363 1175.473586 3349.307862 1115.363239 " stroke="#cccccc" stroke-width="1" stroke-opacity="1" stroke-miterlimit="10"/><path stroke-linecap="butt" transform="matrix(0.130185, 0, 0, 0.130359, 0.0341386, 31.707596)" fill="none" stroke-linejoin="miter" d="M -435.311473 1016.387927 C -254.498539 950.164663 -130.966039 782.808587 37.664676 691.324594 C 148.684897 631.064421 276.418163 606.073379 403.491308 608.140983 C 432.596609 608.620428 461.641899 610.50824 490.477151 613.714525 C 645.215336 630.944559 794.102454 684.222823 935.06813 750.595913 C 1056.800302 807.91949 1173.761606 875.281434 1284.571789 951.602996 C 1394.391791 1027.205392 1498.210701 1111.647545 1594.768288 1203.700878 C 1709.509187 1313.074142 1814.228261 1433.264871 1937.160652 1533.288968 C 2061.893371 1634.481711 2209.85032 1715.477856 2369.989488 1727.70369 C 2456.465239 1734.296051 2541.800782 1720.541988 2623.535669 1692.794141 C 2729.634994 1656.805843 2829.793237 1597.294801 2918.009305 1527.355843 C 2997.37376 1464.668482 3068.846778 1393.051468 3140.139764 1321.164767 C 3211.282722 1249.427892 3282.845756 1177.151642 3359.869786 1114.224559 " stroke="#cccccc" stroke-width="1" stroke-opacity="1" stroke-miterlimit="10"/></g><g clip-path="url(#73f3b975f4)"><path stroke-linecap="butt" transform="matrix(0.130185, 0, 0, 0.130359, 0.0341386, 31.707596)" fill="none" stroke-linejoin="miter" d="M -435.401489 1026.426295 C -252.30814 960.412788 -129.555782 787.48317 40.125124 692.103691 C 177.430133 614.913136 340.959918 592.289351 497.648458 608.470601 C 654.336997 624.681816 805.174471 677.810254 948.000485 744.183344 C 1193.595218 858.291122 1420.316513 1012.881989 1616.252201 1199.805392 C 1732.163313 1310.377267 1837.512502 1432.335947 1961.465079 1533.798378 C 2085.38765 1635.290773 2232.714484 1716.91619 2392.493587 1728.422856 C 2590.769701 1742.656363 2782.294585 1647.186988 2937.452846 1522.861051 C 3092.581101 1398.565079 3221.454575 1244.723343 3370.401704 1113.055913 " stroke="#cccccc" stroke-width="1" stroke-opacity="1" stroke-miterlimit="10"/></g><g clip-path="url(#bf636bf165)"><path stroke-linecap="butt" transform="matrix(0.130185, 0, 0, 0.130359, 0.0341386, 31.707596)" fill="none" stroke-linejoin="miter" d="M 3360.76995 1128.577927 C 3274.204182 1198.516885 3193.939563 1275.797336 3110.044282 1351.879176 C 3050.873505 1405.546989 2990.082432 1458.735357 2924.880556 1507.488864 C 2913.448474 1516.058933 2901.806353 1524.479176 2890.014206 1532.749593 C 2739.266748 1638.317266 2559.954088 1716.946155 2375.60051 1706.548204 C 2215.311315 1697.528655 2066.964294 1623.034975 1941.781494 1527.05619 C 1817.468851 1431.796572 1711.93963 1314.99192 1595.668452 1209.27442 C 1399.132655 1030.501573 1172.771425 881.424316 928.586949 769.863587 C 786.571082 704.988761 636.993838 652.369733 481.985605 634.780115 C 381.617324 623.393309 278.578556 627.468587 181.540881 651.111191 C 128.701257 663.996261 77.661961 682.694594 29.683222 707.955323 C -30.327709 739.538726 -84.637601 780.711018 -138.077334 823.681226 C -234.304861 901.111503 -327.861902 984.474906 -444.013058 1027.744767 " stroke="#cccccc" stroke-width="1" stroke-opacity="1" stroke-miterlimit="10"/></g><g clip-path="url(#89073beec5)"><path stroke-linecap="butt" transform="matrix(0.130185, 0, 0, 0.130359, 0.0341386, 31.707596)" fill="none" stroke-linejoin="miter" d="M 3351.168201 1144.099941 C 3265.382576 1206.757336 3185.237978 1276.486538 3100.382522 1346.635253 C 3040.521619 1396.107926 2978.590339 1446.000114 2912.368277 1492.116676 C 2900.726157 1500.207301 2888.934009 1508.20803 2876.931823 1516.028968 C 2724.113988 1616.172926 2543.571104 1692.284731 2358.707433 1684.673551 C 2197.93815 1678.14112 2048.60095 1610.779176 1922.067903 1520.343968 C 1797.515217 1431.287162 1691.685941 1319.576607 1575.084703 1218.713482 C 1377.888786 1048.151121 1151.917627 904.55751 909.173413 795.573795 C 767.967694 732.167268 619.650679 680.05765 466.322752 661.089629 C 367.064673 648.803865 265.286135 651.171122 169.418674 672.116851 C 117.239169 683.563587 66.769977 700.493969 19.24132 723.806955 C -40.229512 752.933205 -94.29936 791.378656 -147.679083 831.891712 C -243.786588 904.917094 -338.093765 985.014281 -452.624626 1029.063239 " stroke="#cccccc" stroke-width="1" stroke-opacity="1" stroke-miterlimit="10"/></g><g clip-path="url(#c307fb93b0)"><path stroke-linecap="butt" transform="matrix(0.130185, 0, 0, 0.130359, 0.0341386, 31.707596)" fill="none" stroke-linejoin="miter" d="M 3341.566452 1159.621954 C 3256.530963 1214.997788 3176.566399 1277.175739 3090.690757 1341.391329 C 3030.139728 1386.668864 2967.06824 1433.264871 2899.825993 1476.744489 C 2888.033845 1484.355669 2876.031659 1491.906919 2863.879445 1499.308343 C 2708.961228 1593.998621 2527.18812 1667.593343 2341.844361 1662.798898 C 2180.564986 1658.72362 2030.327621 1598.523377 1902.414323 1513.60178 C 1777.621593 1430.747787 1671.492263 1324.161295 1554.500954 1228.152545 C 1356.674922 1065.80067 1131.093834 927.72067 889.789883 821.254038 C 749.424316 759.345775 602.30752 707.715601 450.689905 687.399143 C 352.482017 674.244386 252.023719 674.873657 157.296466 693.152476 C 105.747076 703.100948 55.877993 718.293344 8.829424 739.658587 C -50.131316 766.327684 -103.96112 802.046295 -157.250826 840.132163 C -253.268315 908.752649 -348.325629 985.523691 -461.236195 1030.411677 " stroke="#cccccc" stroke-width="1" stroke-opacity="1" stroke-miterlimit="10"/></g><g clip-path="url(#10ef5a4bfc)"><path stroke-linecap="butt" transform="matrix(0.130185, 0, 0, 0.130359, 0.0341386, 31.707596)" fill="none" stroke-linejoin="miter" d="M 3331.934697 1175.143968 C 3247.679351 1223.238239 3167.894819 1277.86494 3080.998992 1336.11744 C 3019.757837 1377.199836 2955.546142 1420.529628 2887.283708 1461.342336 C 2875.311528 1468.534003 2863.129309 1475.605808 2850.827068 1482.587718 C 2693.778463 1571.85428 2510.805136 1642.901954 2324.951284 1640.954211 C 2163.191821 1639.336086 2012.114304 1586.267579 1882.730738 1506.859593 C 1757.787981 1430.208412 1651.268579 1328.745982 1533.887199 1237.591607 C 1335.461058 1083.420253 1110.240036 950.853865 870.346341 846.964247 C 730.820928 786.524281 584.964361 735.403518 435.027052 713.708657 C 337.899361 699.624976 238.731298 698.576191 145.174258 714.12817 C 94.284989 722.638309 45.016015 736.092719 -1.612478 755.510219 C -60.033119 779.752129 -113.592875 812.743899 -166.882581 848.342649 C -262.750042 912.55824 -358.587498 986.063066 -469.877769 1031.730149 " stroke="#cccccc" stroke-width="1" stroke-opacity="1" stroke-miterlimit="10"/></g><g clip-path="url(#24caf00c10)"><path stroke-linecap="butt" transform="matrix(0.130185, 0, 0, 0.130359, 0.0341386, 31.707596)" fill="none" stroke-linejoin="miter" d="M 3322.332949 1190.665982 C 3238.827739 1231.448725 3159.22324 1278.554142 3071.337232 1330.843551 C 3009.375946 1367.760774 2944.054048 1407.794385 2874.741424 1445.970149 C 2862.58921 1452.652405 2850.226959 1459.304697 2837.744685 1465.867093 C 2678.595698 1549.679975 2494.392147 1618.210565 2308.058208 1619.079558 C 2145.788652 1619.918586 1993.960998 1574.01178 1863.047153 1500.117405 C 1738.07439 1429.579142 1631.044896 1333.33067 1513.30345 1247.000704 C 1314.247194 1101.039837 1089.416243 973.957094 850.962811 872.64449 C 712.247545 813.702788 567.651208 763.091434 419.364199 740.01817 C 323.316705 725.035531 225.438877 722.278726 133.022044 735.163795 C 82.792895 742.205636 34.124031 753.892094 -12.05438 771.361851 C -69.964928 793.146608 -123.254634 823.411538 -176.48433 856.553135 C -272.231769 916.36383 -368.819362 986.572476 -478.489337 1033.048621 " stroke="#cccccc" stroke-width="1" stroke-opacity="1" stroke-miterlimit="10"/></g><g clip-path="url(#405c681844)"><path stroke-linecap="butt" transform="matrix(0.130185, 0, 0, 0.130359, 0.0341386, 31.707596)" fill="none" stroke-linejoin="miter" d="M 3312.7312 1206.187996 C 3230.006132 1239.689177 3150.55166 1279.243343 3061.645467 1325.599628 C 2998.994055 1358.321711 2932.53195 1395.059142 2862.229145 1430.567996 C 2849.866893 1436.830739 2837.354614 1443.033551 2824.692308 1449.146468 C 2663.472943 1527.535635 2478.009163 1593.549141 2291.195136 1597.204905 C 2128.415487 1600.531051 1975.927713 1561.726016 1843.363568 1493.375218 C 1718.390805 1428.979836 1610.851218 1337.915357 1492.719701 1256.439767 C 1293.063335 1118.689385 1068.59245 997.120253 831.549275 898.354698 C 693.674162 840.881295 550.308049 790.779351 403.701346 766.297719 C 308.764054 750.446087 212.116451 745.981261 120.899836 756.169455 C 71.330808 761.742997 23.262052 771.691469 -22.496282 787.213483 C -79.836726 806.541087 -132.886389 834.079177 -186.056073 864.793587 C -281.713496 920.199385 -379.051225 987.111851 -487.100906 1034.397059 " stroke="#cccccc" stroke-width="1" stroke-opacity="1" stroke-miterlimit="10"/></g><g clip-path="url(#497cee1de7)"><path stroke-linecap="butt" transform="matrix(0.130185, 0, 0, 0.130359, 0.0341386, 31.707596)" fill="none" stroke-linejoin="miter" d="M 3303.099445 1221.71001 C 3221.15452 1247.929628 3141.850075 1279.902579 3051.983707 1320.325739 C 2988.612164 1348.852683 2921.009851 1382.323899 2849.656855 1415.195808 C 2837.144576 1420.979107 2824.452264 1426.73244 2811.609925 1432.425843 C 2648.290178 1505.391294 2461.596173 1568.857753 2274.302059 1575.330252 C 2111.042323 1581.143516 1957.924434 1549.410287 1823.679982 1486.662996 C 1698.797236 1428.290635 1590.597529 1342.500044 1472.105946 1265.878829 C 1271.819466 1136.338934 1047.738652 1020.253448 812.105733 924.004976 C 675.070774 868.029837 532.96489 818.437302 388.038493 792.607233 C 294.181398 775.856643 198.824029 769.683795 108.777628 777.145149 C 59.808709 781.280358 12.370069 789.490844 -32.938184 803.065115 C -89.768535 819.935566 -142.578154 844.716851 -195.687827 873.004073 C -291.195223 924.004976 -389.313094 987.62126 -495.74248 1035.715531 " stroke="#cccccc" stroke-width="1" stroke-opacity="1" stroke-miterlimit="10"/></g><g clip-path="url(#2fb1019ac4)"><path stroke-linecap="butt" transform="matrix(0.130185, 0, 0, 0.130359, 0.0341386, 31.707596)" fill="none" stroke-linejoin="miter" d="M 3293.497697 1237.232024 C 3212.332913 1256.170079 3133.178496 1280.591781 3042.291942 1315.081815 C 2978.230273 1339.413621 2909.517758 1369.588656 2837.144576 1399.823621 C 2824.422259 1405.127475 2811.549914 1410.431329 2798.557548 1415.705218 C 2633.137418 1483.216989 2445.243195 1544.166364 2257.438988 1553.4556 C 2093.669159 1561.726016 1940.041177 1537.034628 1803.996397 1479.920808 C 1679.293684 1427.541503 1570.40385 1347.084732 1451.552203 1275.317892 C 1250.605602 1153.958517 1026.914859 1043.386642 792.722203 949.715184 C 656.497391 895.238309 515.621731 846.125219 372.37564 818.916747 C 279.628747 801.267198 185.561614 793.356365 96.65542 798.180774 C 48.346621 800.847684 1.50809 807.290219 -43.35008 818.916747 C -99.640333 833.360011 -152.179903 855.414455 -205.259571 881.244524 C -300.646945 927.840531 -399.484947 988.13067 -504.324043 1037.063969 " stroke="#cccccc" stroke-width="1" stroke-opacity="1" stroke-miterlimit="10"/></g><g clip-path="url(#d6e0c3b07e)"><path stroke-linecap="butt" transform="matrix(0.130185, 0, 0, 0.130359, 0.0341386, 31.707596)" fill="none" stroke-linejoin="miter" d="M 3283.865942 1252.754038 C 3203.481301 1264.410531 3124.506916 1281.280982 3032.630182 1309.807926 C 2967.848382 1329.974558 2897.995659 1356.853413 2824.602291 1384.421468 C 2811.699941 1389.275843 2798.647564 1394.130218 2785.50517 1399.014558 C 2617.954652 1461.072648 2428.830205 1519.474975 2240.545911 1531.610912 C 2076.265989 1542.308516 1922.21793 1524.599037 1784.312812 1473.178621 C 1659.850142 1426.73244 1550.180167 1351.669419 1430.938448 1284.756954 C 1229.421744 1171.608066 1006.06106 1066.519837 773.308667 975.395427 C 637.924008 922.386851 498.278572 873.813135 356.742793 845.196295 C 265.046091 826.677754 172.269193 817.058899 84.533212 819.156469 C 36.884534 820.385045 -9.383894 825.059629 -53.791982 834.768379 C -109.542137 846.75449 -161.841663 866.082094 -214.86132 889.425045 C -310.128672 931.646121 -409.746816 988.64008 -512.965617 1038.382441 " stroke="#cccccc" stroke-width="1" stroke-opacity="1" stroke-miterlimit="10"/></g><g clip-path="url(#1a0e07c339)"><path stroke-linecap="butt" transform="matrix(0.130185, 0, 0, 0.130359, 0.0341386, 31.707596)" fill="none" stroke-linejoin="miter" d="M 3274.264193 1268.246086 C 3194.629689 1272.621017 3115.805331 1281.970183 3022.938417 1304.564003 C 2957.466491 1320.505531 2886.503566 1344.088204 2812.060007 1369.049281 C 2798.977624 1373.424211 2785.775219 1377.859072 2772.452793 1382.293933 C 2602.801892 1438.898343 2412.447221 1494.813551 2223.682839 1509.73626 C 2058.92283 1522.920982 1904.4847 1512.103516 1764.659232 1466.436433 C 1640.466612 1425.863447 1529.986489 1356.254107 1410.384704 1294.196017 C 1208.20788 1189.227649 985.237268 1089.682996 753.925136 1001.105635 C 619.350625 949.565358 480.965419 901.501052 341.07994 871.505809 C 250.493441 852.088309 158.976772 840.761434 72.44101 840.162129 C 25.422446 839.922406 -20.245872 842.888969 -64.203879 850.62001 C -119.44394 860.148969 -171.473417 876.749733 -224.433063 897.665497 C -319.610399 935.451712 -419.948674 989.179455 -521.54718 1039.700913 " stroke="#cccccc" stroke-width="1" stroke-opacity="1" stroke-miterlimit="10"/></g><g clip-path="url(#9666c356a7)"><path stroke-linecap="butt" transform="matrix(0.130185, 0, 0, 0.130359, 0.0341386, 31.707596)" fill="none" stroke-linejoin="miter" d="M 3264.662444 1283.7681 C 3185.778076 1280.861468 3107.133752 1282.659385 3013.246651 1299.320079 C 2947.0846 1311.066468 2874.981468 1331.382926 2799.517722 1353.677093 C 2786.255307 1357.602544 2772.872869 1361.557961 2759.37041 1365.573308 C 2587.619127 1416.754003 2396.064237 1470.152128 2206.789762 1487.891572 C 2041.51966 1503.533447 1886.75147 1499.548065 1744.945642 1459.724211 C 1621.143092 1424.934524 1509.7328 1360.86876 1389.77095 1303.635079 C 1186.994016 1206.877197 964.383469 1112.816191 734.481595 1026.785878 C 600.747236 976.77383 463.62226 929.188969 325.417087 897.845288 C 235.880779 877.52883 145.684351 864.493934 60.288796 861.197754 C 13.930353 859.489733 -31.137856 860.688344 -74.645781 866.471642 C -129.345744 873.573413 -181.135177 887.417372 -234.064817 905.905948 C -329.092126 939.287267 -430.210544 989.71883 -530.188754 1041.04935 " stroke="#cccccc" stroke-width="1" stroke-opacity="1" stroke-miterlimit="10"/></g><g clip-path="url(#ce7606a459)"><path stroke-linecap="butt" transform="matrix(0.130185, 0, 0, 0.130359, 0.0341386, 31.707596)" fill="none" stroke-linejoin="miter" d="M 3255.03069 1299.290114 C 3176.95647 1289.10192 3098.462173 1283.348586 3003.584892 1294.04619 C 2936.70271 1301.627406 2863.459369 1318.647683 2786.975438 1338.304906 C 2773.562995 1341.750913 2759.970519 1345.25685 2746.318033 1348.852683 C 2572.466367 1394.609662 2379.651248 1445.460739 2189.896685 1465.986954 C 2024.11649 1484.115947 1869.078251 1486.872753 1725.262056 1452.952058 C 1601.849578 1423.855774 1489.539122 1365.453447 1369.187201 1313.074142 C 1165.780152 1224.496781 943.559676 1135.949385 715.068059 1052.466121 C 582.143848 1003.922371 446.249096 956.84692 309.754234 924.124837 C 221.298123 902.90942 132.391929 888.166503 48.136583 882.203413 C 2.43826 879.027094 -42.02984 878.487719 -85.087683 882.323274 C -139.247547 886.937927 -190.796937 898.08501 -243.636561 914.116434 C -338.573853 943.092858 -440.442407 990.228239 -538.830328 1042.367823 " stroke="#cccccc" stroke-width="1" stroke-opacity="1" stroke-miterlimit="10"/></g><g clip-path="url(#94d145af9a)"><path stroke-linecap="butt" transform="matrix(0.130185, 0, 0, 0.130359, 0.0341386, 31.707596)" fill="none" stroke-linejoin="miter" d="M 3245.428941 1314.812128 C 3168.104857 1297.342371 3089.790593 1284.037788 2993.923132 1288.802267 C 2926.320819 1292.158378 2851.967276 1305.91244 2774.463159 1322.902753 C 2760.840678 1325.899281 2747.068169 1328.985704 2733.23565 1332.132058 C 2557.313607 1372.435357 2363.268264 1420.76935 2173.033614 1444.142267 C 2006.773331 1464.728412 1851.495049 1474.107544 1705.608477 1446.209871 C 1582.616075 1422.717093 1469.315438 1370.008169 1348.603451 1322.513204 C 1144.566288 1242.146329 922.705878 1159.082579 695.684528 1078.17633 C 563.570465 1031.100878 428.935942 984.534837 294.091382 950.434351 C 206.745472 928.319976 119.099508 911.869038 36.044381 903.179108 C -9.023828 898.59442 -52.891818 896.287094 -95.529584 898.174906 C -149.149351 900.332406 -200.458696 908.752649 -253.23831 922.32692 C -348.05558 946.928413 -450.704276 990.737649 -547.441896 1043.686295 " stroke="#cccccc" stroke-width="1" stroke-opacity="1" stroke-miterlimit="10"/></g><g clip-path="url(#7c36e8eeea)"><path stroke-linecap="butt" transform="matrix(0.130185, 0, 0, 0.130359, 0.0341386, 31.707596)" fill="none" stroke-linejoin="miter" d="M 3235.797187 1330.334142 C 3159.283251 1305.582822 3081.089008 1284.697024 2984.231366 1283.528378 C 2915.938928 1282.719315 2840.445177 1293.147232 2761.920875 1307.530565 C 2748.118361 1310.047649 2734.195825 1312.684593 2720.183272 1315.411433 C 2542.130842 1350.291017 2346.855274 1396.077961 2156.140537 1422.267614 C 1989.370161 1445.310912 1833.881841 1461.222475 1685.924892 1439.467683 C 1563.382572 1421.458551 1449.091754 1374.622822 1328.019702 1331.922301 C 1123.352424 1259.765913 901.882085 1182.215774 676.270992 1103.856573 C 544.997082 1058.279385 411.592783 1012.192788 278.428529 976.743864 C 192.162816 953.730531 105.807087 935.541608 23.892167 924.184767 C -20.515921 918.131781 -63.783802 914.056503 -105.971486 913.996573 C -159.08116 913.726885 -210.090451 919.420288 -262.840059 930.537406 C -357.537307 950.734003 -460.906135 991.247059 -556.053465 1045.004767 " stroke="#cccccc" stroke-width="1" stroke-opacity="1" stroke-miterlimit="10"/></g><g clip-path="url(#2828326702)"><path stroke-linecap="butt" transform="matrix(0.130185, 0, 0, 0.130359, 0.0341386, 31.707596)" fill="none" stroke-linejoin="miter" d="M 3226.195438 1345.856156 C 3150.431638 1313.793308 3072.417429 1285.386225 2974.539601 1278.284454 C 2905.557037 1273.280253 2828.923078 1280.411989 2749.37859 1292.128413 C 2735.396043 1294.196017 2721.293475 1296.383482 2707.130895 1298.690808 C 2526.978082 1328.116711 2330.47229 1371.416538 2139.24746 1400.392961 C 1971.996997 1425.923378 1816.298638 1448.217544 1666.241306 1432.725496 C 1544.149068 1420.140079 1428.868071 1379.177544 1307.405948 1341.361364 C 1102.13856 1277.415461 881.028287 1205.348968 656.857456 1129.536816 C 526.423699 1085.457892 394.249624 1039.880705 262.795681 1003.053378 C 177.610166 979.141087 92.544672 959.274108 11.799965 945.190427 C -31.978009 937.669142 -74.645781 931.855878 -116.383383 929.87817 C -168.952958 927.15133 -219.722205 930.087927 -272.411802 938.777858 C -366.989028 954.539594 -471.137998 991.786434 -564.635028 1046.353205 " stroke="#cccccc" stroke-width="1" stroke-opacity="1" stroke-miterlimit="10"/></g><g clip-path="url(#4acb054017)"><path stroke-linecap="butt" transform="matrix(0.130185, 0, 0, 0.130359, 0.0341386, 31.707596)" fill="none" stroke-linejoin="miter" d="M 3216.593689 1361.378169 C 3141.580026 1322.03376 3063.745849 1286.075427 2964.877841 1273.010565 C 2895.205151 1263.811225 2817.430985 1267.676746 2736.836306 1276.756225 C 2722.673726 1278.344385 2708.391125 1280.112336 2694.048512 1281.970183 C 2511.795316 1305.972371 2314.089306 1346.725149 2122.384389 1378.518308 C 1954.623833 1406.505878 1798.715435 1435.122718 1646.557721 1426.013274 C 1524.915565 1418.731711 1408.674393 1383.792197 1286.822199 1350.800426 C 1080.924696 1295.035045 860.204494 1228.482163 637.44392 1155.247024 C 507.82031 1112.606434 376.906466 1067.568621 247.132828 1029.332927 C 163.027509 1004.551642 79.25225 982.946677 -0.352249 966.196087 C -43.470102 957.206503 -85.507759 949.655253 -126.825285 945.729802 C -178.854761 940.545809 -229.383965 940.755566 -282.043556 946.988344 C -376.470755 958.375149 -481.369862 992.295844 -573.276602 1047.671677 " stroke="#cccccc" stroke-width="1" stroke-opacity="1" stroke-miterlimit="10"/></g><g clip-path="url(#69fda301ca)"><path stroke-linecap="butt" transform="matrix(0.130185, 0, 0, 0.130359, 0.0341386, 31.707596)" fill="none" stroke-linejoin="miter" d="M 3206.99194 1376.900183 C 3132.758419 1330.274211 3055.07427 1286.764628 2955.186076 1267.736677 C 2884.82326 1254.372163 2805.908887 1254.941503 2724.294021 1261.384038 C 2709.951409 1262.522718 2695.488775 1263.811225 2680.996135 1265.249558 C 2496.642556 1283.828031 2297.676317 1322.063725 2105.491312 1356.673621 C 1937.220663 1387.118343 1781.132233 1421.878065 1626.874136 1419.271086 C 1505.682062 1417.203482 1388.450709 1388.376885 1266.238449 1360.239489 C 1059.710832 1312.684593 839.380701 1251.645322 618.030384 1180.957232 C 489.246927 1139.814906 359.593312 1095.256538 231.469976 1055.672406 C 148.444853 1029.992163 65.959829 1006.679177 -12.474457 987.231712 C -54.962195 976.803795 -96.399743 967.484594 -137.267187 961.581434 C -188.756565 953.970253 -239.045725 951.45317 -291.6153 955.228795 C -385.952482 962.210705 -491.631731 992.835219 -581.918176 1049.020114 " stroke="#cccccc" stroke-width="1" stroke-opacity="1" stroke-miterlimit="10"/></g><g clip-path="url(#c027c3d298)"><path stroke-linecap="butt" transform="matrix(0.130185, 0, 0, 0.130359, 0.0341386, 31.707596)" fill="none" stroke-linejoin="miter" d="M 3197.360186 1392.422197 C 3123.906807 1338.514663 3046.372685 1287.453829 2945.524316 1262.492753 C 2874.441369 1244.9331 2794.386788 1242.20626 2711.751737 1245.981885 C 2697.229092 1246.641121 2682.61643 1247.510114 2667.943757 1248.528934 C 2481.459791 1261.653725 2281.293333 1297.372336 2088.62824 1334.798968 C 1919.847498 1367.730808 1763.489019 1408.543517 1607.190551 1412.528899 C 1486.418553 1415.615322 1368.227026 1392.961572 1245.6547 1369.678551 C 1038.496968 1330.334142 818.526903 1274.778517 598.616848 1206.637475 C 470.673544 1166.993413 342.250153 1122.944455 215.807123 1081.951955 C 133.892203 1055.402719 52.667408 1030.351746 -24.596665 1008.207406 C -66.424283 996.311191 -107.291727 985.283969 -147.679083 977.433066 C -198.658368 967.364733 -248.677479 962.090844 -301.217049 963.439281 C -395.434209 966.016295 -501.833589 993.374594 -590.529744 1050.338587 " stroke="#cccccc" stroke-width="1" stroke-opacity="1" stroke-miterlimit="10"/></g><g clip-path="url(#d6cdb311cd)"><path stroke-linecap="butt" transform="matrix(0.130185, 0, 0, 0.130359, 0.0341386, 31.707596)" fill="none" stroke-linejoin="miter" d="M 3187.758437 1407.944211 C 3115.055195 1346.755114 3037.701105 1288.143031 2935.832551 1257.218864 C 2864.059478 1235.464072 2782.894695 1229.471017 2699.209452 1230.609697 C 2684.506774 1230.819454 2669.71408 1231.209003 2654.861375 1231.808309 C 2466.307031 1239.47942 2264.910349 1272.680947 2071.735163 1312.924315 C 1902.474334 1348.313308 1745.8158 1395.059142 1587.506966 1405.786711 C 1467.095034 1413.937267 1348.003342 1397.54626 1225.070951 1379.117614 C 1017.283104 1347.953725 797.70311 1297.911711 579.203312 1232.317718 C 452.070156 1194.17192 324.876989 1150.602406 200.14427 1108.261468 C 119.309547 1080.813274 39.374987 1054.054281 -36.718873 1029.243031 C -77.886371 1015.878517 -118.153705 1003.083344 -158.120985 993.284698 C -208.560172 980.759212 -258.339239 972.758483 -310.818797 971.649767 C -404.915936 969.821885 -512.095458 993.884003 -599.141313 1051.657059 " stroke="#cccccc" stroke-width="1" stroke-opacity="1" stroke-miterlimit="10"/></g><g clip-path="url(#ccc8bf84c0)"><path stroke-linecap="butt" transform="matrix(0.130185, 0, 0, 0.130359, 0.0341386, 31.707596)" fill="none" stroke-linejoin="miter" d="M 3178.126683 1423.43626 C 3106.233588 1354.995565 3029.029526 1288.832232 2926.170791 1251.97494 C 2853.677587 1226.02501 2771.372596 1216.735774 2686.667168 1215.23751 C 2671.784457 1214.967822 2656.81173 1214.937857 2641.808997 1215.117649 C 2451.154271 1217.335079 2248.497359 1248.019524 2054.842086 1291.079628 C 1885.071164 1328.925774 1728.08257 1381.514836 1567.82338 1399.074489 C 1447.741509 1412.229246 1327.779659 1402.160912 1204.457197 1388.556676 C 996.069241 1365.603274 776.849312 1321.074871 559.789776 1258.027927 C 433.496773 1221.350427 307.563835 1178.290323 184.481417 1134.570982 C 104.72689 1106.22383 26.082566 1077.756816 -48.841081 1050.248691 C -89.378464 1035.415878 -129.045689 1020.882719 -168.562887 1009.13633 C -218.491981 994.183656 -268.000999 983.456087 -320.420546 979.890219 C -414.397663 973.657441 -522.327322 994.423378 -607.782887 1053.005496 " stroke="#cccccc" stroke-width="1" stroke-opacity="1" stroke-miterlimit="10"/></g><g clip-path="url(#78a4e29e4d)"><path stroke-linecap="butt" transform="matrix(0.130185, 0, 0, 0.130359, 0.0341386, 31.707596)" fill="none" stroke-linejoin="miter" d="M 3168.524934 1438.958274 C 3097.381976 1363.206051 3020.327941 1289.521433 2916.479026 1246.731017 C 2843.295696 1216.585947 2759.850497 1204.000531 2674.154889 1199.835357 C 2659.06214 1199.116191 2643.90938 1198.636746 2628.726614 1198.367059 C 2435.971506 1195.190739 2232.114375 1223.328135 2037.979015 1269.17501 C 1867.698 1309.508274 1710.259324 1367.820704 1548.139795 1392.332301 C 1428.327973 1410.431329 1307.555975 1406.715635 1183.873447 1397.995739 C 974.855377 1383.222857 756.025519 1344.1781 540.37624 1283.70817 C 414.92339 1248.528934 290.220677 1205.978239 168.84857 1160.880496 C 90.17424 1131.634385 12.790145 1101.45935 -60.963289 1071.25435 C -100.870557 1054.953239 -139.907668 1038.682094 -179.004789 1024.987962 C -228.363779 1007.54817 -277.632753 994.123726 -330.022295 988.100705 C -423.87939 977.463031 -532.559185 994.932788 -616.394455 1054.323969 " stroke="#cccccc" stroke-width="1" stroke-opacity="1" stroke-miterlimit="10"/></g><g clip-path="url(#fef52c3e49)"><path stroke-linecap="butt" transform="matrix(0.130185, 0, 0, 0.130359, 0.0341386, 31.707596)" fill="none" stroke-linejoin="miter" d="M 3158.923185 1454.480287 C 3088.530364 1371.446503 3011.656362 1290.210635 2906.787261 1241.457128 C 2832.913805 1207.11692 2748.358404 1191.265288 2661.612604 1184.46317 C 2646.339823 1183.264559 2631.00703 1182.335635 2615.674237 1181.646434 C 2420.78874 1173.016434 2215.731391 1198.636746 2021.085938 1247.330322 C 1850.29483 1290.120739 1692.376067 1354.036676 1528.45621 1385.590114 C 1408.854426 1408.573482 1287.332291 1411.300322 1163.289698 1407.434801 C 953.641513 1400.872406 735.17172 1367.34126 520.962704 1309.388413 C 396.320002 1275.677475 272.877518 1233.63619 153.185717 1187.160045 C 75.591584 1157.014975 -0.502276 1125.161885 -73.085496 1092.230045 C -112.332645 1074.520566 -150.799651 1056.481469 -189.416685 1040.839594 C -238.265583 1020.942649 -287.294513 1004.761399 -339.624044 996.311191 C -433.361117 981.268621 -542.791049 995.442198 -625.006024 1055.642441 " stroke="#cccccc" stroke-width="1" stroke-opacity="1" stroke-miterlimit="10"/></g><g clip-path="url(#6826644bbb)"><path stroke-linecap="butt" transform="matrix(0.130185, 0, 0, 0.130359, 0.0341386, 31.707596)" fill="none" stroke-linejoin="miter" d="M 3149.291431 1470.002301 C 3079.708757 1379.686954 3002.984782 1290.899836 2897.125501 1236.213204 C 2822.531914 1197.677857 2736.836306 1178.530045 2649.07032 1169.090982 C 2633.647511 1167.442892 2618.134685 1166.064489 2602.62186 1164.955774 C 2405.63598 1150.872093 2199.348407 1173.975323 2004.222867 1225.45567 C 1832.951671 1270.733204 1674.432798 1340.222683 1508.772625 1378.847926 C 1389.350873 1406.715635 1267.138613 1415.914975 1142.705949 1416.873864 C 932.427649 1418.491989 714.347927 1390.474454 501.579174 1335.098621 C 377.746619 1302.885947 255.564364 1261.354072 137.522864 1213.499524 C 61.008928 1182.455496 -13.794697 1148.86442 -85.23771 1113.26567 C -123.824738 1094.057927 -161.691635 1074.280843 -199.858587 1056.691225 C -248.167386 1034.367094 -296.926267 1015.459003 -349.225793 1004.551642 C -442.842844 985.104177 -553.022913 995.981573 -633.617592 1056.990878 " stroke="#cccccc" stroke-width="1" stroke-opacity="1" stroke-miterlimit="10"/></g><g clip-path="url(#a3264779b8)"><path stroke-linecap="butt" transform="matrix(0.130185, 0, 0, 0.130359, 0.0341386, 31.707596)" fill="none" stroke-linejoin="miter" d="M 3139.689682 1485.524315 C 3070.857145 1387.927406 2994.313203 1291.559072 2887.463741 1230.939315 C 2812.150023 1188.208829 2725.344212 1165.794802 2636.528035 1153.688829 C 2620.925193 1151.561295 2605.232335 1149.763378 2589.539477 1148.205184 C 2390.483221 1128.697788 2182.935418 1149.283934 1987.32979 1203.581017 C 1815.548501 1251.315704 1656.339503 1326.288829 1489.08904 1372.105739 C 1369.727299 1404.767892 1246.91493 1420.469697 1122.092194 1426.312926 C 911.213785 1436.141537 693.494129 1413.607649 482.135632 1360.778864 C 359.14323 1330.034489 238.1912 1289.012024 121.830006 1239.779072 C 46.396266 1207.866052 -27.117124 1172.536989 -97.359918 1134.27133 C -135.316831 1113.595288 -172.583619 1092.080218 -210.330494 1072.542857 C -258.099195 1047.761573 -306.588027 1026.096677 -358.827542 1012.762128 C -452.324571 988.909767 -563.284782 996.490982 -642.259166 1058.30935 " stroke="#cccccc" stroke-width="1" stroke-opacity="1" stroke-miterlimit="10"/></g><g clip-path="url(#693d86a0ba)"><path stroke-linecap="butt" transform="matrix(0.130185, 0, 0, 0.130359, 0.0341386, 31.707596)" fill="none" stroke-linejoin="miter" d="M 3130.057927 1501.046329 C 3062.005532 1396.167857 2985.641623 1292.248274 2877.771976 1225.665427 C 2801.768132 1178.769767 2713.822114 1153.059559 2623.985751 1138.316642 C 2608.202876 1135.739628 2592.329985 1133.462267 2576.487099 1131.514524 C 2375.330461 1106.553448 2166.552434 1124.592545 1970.436713 1181.706364 C 1798.175337 1231.898204 1638.216202 1312.354975 1469.405454 1365.363551 C 1350.073719 1402.850114 1226.691246 1425.054385 1101.508445 1435.722024 C 889.999921 1453.761121 672.670336 1436.740843 462.722096 1386.459107 C 340.569847 1357.212996 220.848041 1316.69994 106.197158 1266.088586 C 31.843615 1233.276607 -40.379539 1196.239524 -109.482126 1155.247024 C -146.778919 1133.162614 -183.445598 1109.879593 -220.742391 1088.394489 C -268.000999 1061.156052 -316.249787 1036.794281 -368.429291 1020.972614 C -461.776293 992.745323 -573.48664 997.000392 -650.870735 1059.627823 " stroke="#cccccc" stroke-width="1" stroke-opacity="1" stroke-miterlimit="10"/></g><g clip-path="url(#59187edc3f)"><path stroke-linecap="butt" transform="matrix(0.130185, 0, 0, 0.130359, 0.0341386, 31.707596)" fill="none" stroke-linejoin="miter" d="M 3120.456179 1516.568343 C 3053.183926 1404.378343 2976.940038 1292.937475 2868.080211 1220.421503 C 2777.913788 1160.341121 2670.584238 1130.795357 2563.404717 1114.793899 C 2360.147695 1084.379142 2150.139444 1099.901156 1953.573641 1159.831711 C 1780.802173 1212.51067 1619.972879 1298.331225 1449.721869 1358.621364 C 935.038124 1540.870183 337.659317 1471.560496 -121.604334 1176.252684 C -204.719472 1122.824593 -284.774054 1061.845253 -378.03104 1029.213066 C -471.25802 996.550913 -583.748509 997.539767 -659.482303 1060.946295 " stroke="#cccccc" stroke-width="1" stroke-opacity="1" stroke-miterlimit="10"/></g><g clip-path="url(#18200e8860)"><path stroke-linecap="butt" transform="matrix(0.130185, 0, 0, 0.130359, 0.0341386, 31.707596)" fill="none" stroke-linejoin="miter" d="M -637.398281 1088.364524 C -561.004367 1027.924559 -449.324025 1026.695982 -356.187061 1057.260566 C -263.110108 1087.825149 -182.845488 1145.05883 -99.790361 1194.711295 C -19.915812 1242.445982 63.799436 1283.318621 150.215176 1317.329211 C 416.603696 1422.057857 709.36702 1461.582058 998.769732 1435.961746 C 1155.098206 1422.117787 1310.346483 1389.365739 1459.173591 1336.986433 C 1629.09454 1277.205704 1790.223889 1193.782371 1962.84533 1143.021191 C 2013.524561 1128.128448 2065.043945 1116.142336 2117.073421 1107.092823 C 2266.800693 1081.052996 2420.848751 1079.25508 2571.236143 1102.148552 C 2678.085605 1118.419698 2785.025083 1147.875566 2875.461555 1206.877197 C 2984.591432 1278.074697 3062.275581 1386.968517 3131.288152 1496.671398 " stroke="#cccccc" stroke-width="1" stroke-opacity="1" stroke-miterlimit="10"/></g><g clip-path="url(#572a2b0b87)"><path stroke-linecap="butt" transform="matrix(0.130185, 0, 0, 0.130359, 0.0341386, 31.707596)" fill="none" stroke-linejoin="miter" d="M -615.314259 1115.782753 C -538.260224 1058.279385 -427.360024 1056.841052 -334.373088 1085.308066 C -241.476167 1113.77508 -160.971504 1167.293066 -77.946382 1213.109975 C 1.808145 1257.248829 85.133322 1294.405774 170.82893 1324.880461 C 435.117068 1418.581885 723.499594 1448.127649 1010.531875 1417.652961 C 1165.600119 1401.142093 1320.098259 1367.311294 1468.625312 1315.381468 C 1638.216202 1256.080184 1799.67561 1175.054073 1972.147024 1126.21067 C 2022.766244 1111.887267 2074.195612 1100.440531 2126.135072 1091.840496 C 2275.592294 1067.149107 2429.13026 1066.250149 2579.067569 1089.53317 C 2685.586971 1106.044038 2792.136378 1135.439975 2882.812894 1193.362857 C 2992.21282 1263.241885 3071.367237 1369.528725 3142.090119 1476.804419 " stroke="#cccccc" stroke-width="1" stroke-opacity="1" stroke-miterlimit="10"/></g><g clip-path="url(#4a16744d88)"><path stroke-linecap="butt" transform="matrix(0.130185, 0, 0, 0.130359, 0.0341386, 31.707596)" fill="none" stroke-linejoin="miter" d="M -593.200231 1143.171017 C -515.516081 1088.664177 -405.366018 1086.986121 -312.529109 1113.355566 C -219.842227 1139.754975 -139.067514 1189.497336 -56.132409 1231.538621 C 23.562107 1272.051677 106.497213 1305.522892 191.502696 1332.431711 C 453.63044 1415.105912 737.662174 1434.703204 1022.324023 1399.314211 C 1176.132037 1380.166399 1329.850036 1345.226885 1478.107039 1293.746538 C 1647.367869 1234.954663 1809.127332 1156.325774 1981.478724 1109.400149 C 2032.037933 1095.616121 2083.407289 1084.678795 2135.226728 1076.558205 C 2284.413901 1053.215253 2437.411768 1053.275184 2586.898996 1076.887823 C 2693.088337 1093.668378 2799.277679 1123.004385 2890.194238 1179.818552 C 2999.894219 1248.409072 3080.488899 1352.118899 3152.952097 1456.93744 " stroke="#cccccc" stroke-width="1" stroke-opacity="1" stroke-miterlimit="10"/></g><g clip-path="url(#de2ea88fe3)"><path stroke-linecap="butt" transform="matrix(0.130185, 0, 0, 0.130359, 0.0341386, 31.707596)" fill="none" stroke-linejoin="miter" d="M -571.116208 1170.589246 C -492.771939 1119.048968 -383.432023 1117.161156 -290.715136 1141.403066 C -198.208286 1165.704906 -117.223536 1211.731572 -34.28843 1249.967267 C 45.316069 1286.854524 127.861104 1316.64001 212.116451 1340.012926 C 472.173818 1411.62994 751.794748 1421.27876 1034.086165 1380.975461 C 1186.63395 1359.190704 1339.571806 1323.202406 1487.558761 1272.111607 C 1656.459525 1213.829142 1818.579053 1137.597475 1990.780418 1092.589628 C 2041.309622 1079.404906 2092.588962 1068.976989 2144.288378 1061.305878 C 2293.205502 1039.34133 2445.693277 1040.300219 2594.730422 1064.272441 C 2700.589704 1081.292718 2806.388974 1110.53883 2897.545577 1166.304211 C 3007.515607 1233.546295 3089.580555 1334.709072 3163.78407 1437.070461 " stroke="#cccccc" stroke-width="1" stroke-opacity="1" stroke-miterlimit="10"/></g><g clip-path="url(#8d05c1d528)"><path stroke-linecap="butt" transform="matrix(0.130185, 0, 0, 0.130359, 0.0341386, 31.707596)" fill="none" stroke-linejoin="miter" d="M -549.032186 1197.97751 C -470.027796 1149.403795 -361.468023 1147.306225 -268.901163 1169.450566 C -176.574346 1191.684802 -95.349552 1233.965809 -12.474457 1268.395913 C 67.040026 1301.627406 149.19499 1327.757128 232.760211 1347.564176 C 490.68719 1408.183933 765.897317 1407.854315 1045.848307 1362.666676 C 1197.105858 1338.21501 1349.293577 1301.117996 1497.010482 1250.506642 C 1665.581186 1192.733586 1828.000769 1118.869177 2000.082112 1075.809073 C 2050.551305 1063.163725 2101.770634 1053.245219 2153.380034 1046.083517 C 2301.967098 1025.437441 2453.974785 1027.325253 2602.561849 1051.657059 C 2708.09107 1068.917059 2813.530275 1098.103239 2904.896916 1152.759906 C 3015.136996 1218.743447 3098.702216 1317.299246 3174.586038 1417.203482 " stroke="#cccccc" stroke-width="1" stroke-opacity="1" stroke-miterlimit="10"/></g><g clip-path="url(#5ee6611dcb)"><path stroke-linecap="butt" transform="matrix(0.130185, 0, 0, 0.130359, 0.0341386, 31.707596)" fill="none" stroke-linejoin="miter" d="M -526.918158 1225.365774 C -447.283653 1179.788586 -339.504022 1177.451295 -247.057184 1197.498066 C -154.9104 1217.634732 -73.445562 1256.170079 9.339517 1286.824558 C 88.793988 1316.430253 170.558881 1338.874246 253.403971 1355.085461 C 509.200562 1404.677996 780.059896 1394.36994 1057.61045 1344.327926 C 1207.637776 1317.239315 1359.015348 1279.063552 1506.492209 1228.871711 C 1674.702848 1171.5781 1837.452491 1100.140878 2009.383807 1058.968587 C 2059.822994 1046.89258 2110.952306 1037.513448 2162.47169 1030.801226 C 2310.788705 1011.503587 2462.256293 1014.320323 2610.393275 1039.011712 C 2715.592436 1056.511434 2820.671575 1085.637684 2912.278261 1139.2156 C 3022.788389 1203.88067 3107.823878 1299.859454 3185.448016 1397.306537 " stroke="#cccccc" stroke-width="1" stroke-opacity="1" stroke-miterlimit="10"/></g><g clip-path="url(#5d290c17cd)"><path stroke-linecap="butt" transform="matrix(0.130185, 0, 0, 0.130359, 0.0341386, 31.707596)" fill="none" stroke-linejoin="miter" d="M -504.834136 1252.784003 C -424.539511 1210.173378 -317.540022 1207.596364 -225.243211 1225.545565 C -133.27646 1243.584663 -51.601583 1278.434281 31.183495 1305.28317 C 110.517945 1331.2331 191.922772 1349.991364 274.017725 1362.666676 C 527.713934 1401.231989 794.19247 1380.975461 1069.372592 1326.019142 C 1218.109683 1296.293586 1368.767124 1257.009107 1515.943931 1207.266746 C 1683.824509 1150.482545 1846.904212 1081.41258 2018.655495 1042.188031 C 2069.094682 1030.681364 2120.133979 1021.781677 2171.533341 1015.548899 C 2319.580306 997.599698 2470.537802 1001.345357 2618.224702 1026.39633 C 2723.093803 1044.165739 2827.782871 1073.232059 2919.6296 1125.731225 C 3030.439783 1189.047857 3116.885528 1282.449628 3196.249984 1377.469524 " stroke="#cccccc" stroke-width="1" stroke-opacity="1" stroke-miterlimit="10"/></g><g clip-path="url(#bb0246ab3f)"><path stroke-linecap="butt" transform="matrix(0.130185, 0, 0, 0.130359, 0.0341386, 31.707596)" fill="none" stroke-linejoin="miter" d="M -482.750113 1280.202232 C -401.825373 1240.528204 -295.576021 1237.741434 -203.399232 1253.593065 C -111.642519 1269.564558 -29.727599 1300.638551 52.997468 1323.711815 C 132.271908 1346.035947 213.256658 1361.078517 294.661485 1370.217926 C 546.257311 1397.756017 808.325045 1367.521051 1081.16474 1307.680392 C 1228.641601 1275.287927 1378.488895 1234.954663 1525.395653 1185.631816 C 1692.94617 1129.357024 1856.355934 1062.714246 2027.987195 1025.37751 C 2078.336366 1014.440184 2129.315651 1006.079871 2180.594991 1000.296573 C 2328.371908 983.695809 2478.81931 988.400358 2626.056128 1013.780948 C 2730.595169 1031.79008 2834.924171 1060.796469 2927.010944 1112.18692 C 3038.091177 1174.215045 3126.037195 1265.039802 3207.111962 1357.572579 " stroke="#cccccc" stroke-width="1" stroke-opacity="1" stroke-miterlimit="10"/></g><g clip-path="url(#a31c3f220d)"><path stroke-linecap="butt" transform="matrix(0.130185, 0, 0, 0.130359, 0.0341386, 31.707596)" fill="none" stroke-linejoin="miter" d="M -460.636085 1307.590496 C -379.081231 1270.912996 -273.612021 1267.886503 -181.585259 1281.640565 C -89.978573 1295.514489 -7.853615 1322.872788 74.841447 1342.140461 C 154.02587 1360.838794 234.620549 1372.195635 315.305245 1377.799142 C 564.770683 1394.280044 822.457619 1354.096607 1092.926882 1289.371607 C 1239.143514 1254.312232 1388.240671 1212.900218 1534.847374 1163.996885 C 1702.067832 1108.231503 1865.807656 1043.955982 2037.288889 1008.566989 C 2087.608055 998.169038 2138.497324 990.318135 2189.686647 985.044246 C 2337.193514 969.79192 2487.100819 975.395427 2633.887554 1001.135601 C 2738.096535 1019.41442 2842.035467 1048.330913 2934.362283 1098.642614 C 3045.74257 1159.352267 3135.128851 1247.60001 3217.943935 1337.7056 " stroke="#cccccc" stroke-width="1" stroke-opacity="1" stroke-miterlimit="10"/></g><g clip-path="url(#a3b62a1c95)"><path stroke-linecap="butt" transform="matrix(0.130185, 0, 0, 0.130359, 0.0341386, 31.707596)" fill="none" stroke-linejoin="miter" d="M -438.552063 1334.97876 C -356.337088 1301.267822 -251.678025 1298.031572 -159.771286 1309.688065 C -68.344633 1321.46442 14.020369 1345.077058 96.65542 1360.539142 C 175.779832 1375.611676 255.984441 1383.312753 335.919 1385.320426 C 583.284055 1390.804072 836.590193 1340.642197 1104.689025 1271.032857 C 1249.645427 1233.336538 1397.962442 1190.815809 1544.299096 1142.361955 C 1711.189493 1087.105982 1875.229372 1025.227684 2046.590584 991.726503 C 2096.849738 981.897892 2147.678996 974.586364 2198.778303 969.761955 C 2345.95511 955.888031 2495.382327 962.420462 2641.718981 988.520219 C 2745.597901 1007.03876 2849.176767 1035.865357 2941.713622 1085.128274 C 3053.363958 1144.519455 3144.220507 1230.190184 3228.745903 1317.838621 " stroke="#cccccc" stroke-width="1" stroke-opacity="1" stroke-miterlimit="10"/></g><g clip-path="url(#9f56feae1a)"><path stroke-linecap="butt" transform="matrix(0.130185, 0, 0, 0.130359, 0.0341386, 31.707596)" fill="none" stroke-linejoin="miter" d="M -416.468041 1362.396989 C -333.592946 1331.652614 -229.714025 1328.176642 -137.927307 1337.735565 C -46.710693 1347.444315 35.924359 1367.311294 118.469394 1378.997753 C 197.533794 1390.414524 277.318326 1394.429871 356.56276 1392.901642 C 601.827433 1387.3281 850.722767 1327.217753 1116.451167 1252.724072 C 1260.14734 1212.360843 1407.714218 1168.791329 1553.780823 1120.756989 C 1720.311155 1065.980462 1884.681093 1006.499385 2055.892278 974.945948 C 2106.121427 965.686677 2156.890674 958.884559 2207.839954 954.509628 C 2354.746711 941.984142 2503.663835 949.445496 2649.550407 975.904837 C 2753.099268 994.663101 2856.288063 1023.459732 2949.094967 1071.583968 C 3061.015352 1129.686642 3153.342168 1212.780357 3239.577876 1297.941677 " stroke="#cccccc" stroke-width="1" stroke-opacity="1" stroke-miterlimit="10"/></g><g clip-path="url(#7a8bd649ed)"><path stroke-linecap="butt" transform="matrix(0.130185, 0, 0, 0.130359, 0.0341386, 31.707596)" fill="none" stroke-linejoin="miter" d="M -394.384018 1389.785253 C -310.848803 1362.037406 -207.750024 1358.321711 -116.113334 1365.783065 C -25.076752 1373.394246 57.768337 1389.545531 140.313372 1397.396433 C 219.257751 1405.217371 298.682218 1405.517024 377.20652 1400.452892 C 620.340805 1383.852128 864.855341 1313.763343 1128.243315 1234.355357 C 1270.649253 1191.385149 1417.435989 1146.70692 1563.232544 1099.122059 C 1729.432816 1044.884906 1894.132815 987.771087 2065.193972 958.135427 C 2115.393115 949.415531 2166.072346 943.152788 2216.93161 939.257302 C 2363.538313 928.080253 2511.945344 936.470531 2657.381834 963.259489 C 2760.600634 982.287441 2863.429363 1011.024142 2956.446306 1058.069628 C 3068.666746 1114.85383 3162.46383 1195.370531 3250.409848 1278.104663 " stroke="#cccccc" stroke-width="1" stroke-opacity="1" stroke-miterlimit="10"/></g><g clip-path="url(#d397ff64c2)"><path stroke-linecap="butt" transform="matrix(0.130185, 0, 0, 0.130359, 0.0341386, 31.707596)" fill="none" stroke-linejoin="miter" d="M -372.299996 1417.203482 C -288.134666 1392.392232 -185.786024 1388.466781 -94.29936 1393.830565 C -3.442812 1399.374142 79.642322 1411.749801 162.127345 1415.825079 C 240.981708 1420.020218 320.016103 1416.634142 397.820275 1408.004142 C 638.854177 1380.376156 878.987915 1300.308933 1140.005457 1216.046572 C 1281.151166 1170.409454 1427.157759 1124.652475 1572.684266 1077.487128 C 1738.554478 1023.72942 1903.584536 969.042788 2074.495666 941.324906 C 2124.664804 933.174351 2175.254018 927.421017 2226.023266 923.97501 C 2372.35992 914.146399 2520.226852 923.465601 2665.21326 950.644108 C 2768.102 969.911781 2870.540659 998.558587 2963.797645 1044.525323 C 3076.288134 1099.991052 3171.555486 1177.930739 3261.241821 1258.207718 " stroke="#cccccc" stroke-width="1" stroke-opacity="1" stroke-miterlimit="10"/></g><g clip-path="url(#918a70f5e0)"><path stroke-linecap="butt" transform="matrix(0.130185, 0, 0, 0.130359, 0.0341386, 31.707596)" fill="none" stroke-linejoin="miter" d="M -350.185968 1444.621711 C -265.360518 1422.777024 -163.822023 1418.61185 -72.455382 1421.878065 C 18.221134 1425.324072 101.516306 1433.984037 183.971324 1434.28369 C 262.73567 1434.823065 341.41 1427.75126 418.49404 1415.555392 C 657.397554 1376.900183 893.150495 1286.884489 1151.7676 1197.707822 C 1291.653078 1149.43376 1436.909536 1102.598031 1582.135987 1055.882163 C 1747.676139 1002.603899 1913.006252 950.31449 2083.79736 924.514385 C 2133.906487 916.93317 2184.435691 911.689247 2235.084916 908.722684 C 2381.151521 900.272476 2528.508361 910.490635 2673.044687 937.99876 C 2775.603367 957.506156 2877.681959 986.093031 2971.178989 1031.010982 C 3083.939527 1085.158239 3180.677147 1160.520913 3272.073794 1238.340739 " stroke="#cccccc" stroke-width="1" stroke-opacity="1" stroke-miterlimit="10"/></g><g clip-path="url(#ad89777fe1)"><path stroke-linecap="butt" transform="matrix(0.130185, 0, 0, 0.130359, 0.0341386, 31.707596)" fill="none" stroke-linejoin="miter" d="M -328.101945 1472.009975 C -242.616375 1453.161815 -141.858023 1448.756919 -50.641408 1449.925565 C 39.855075 1451.274003 123.39029 1456.218273 205.785297 1452.712336 C 284.489633 1449.595947 362.743886 1438.868378 439.107795 1423.106642 C 675.910927 1373.424211 907.283069 1273.430079 1163.529742 1179.399038 C 1302.154991 1128.458066 1446.631306 1080.543587 1591.617714 1034.247232 C 1756.7978 981.478378 1922.457974 931.586191 2093.099055 907.703865 C 2143.178176 900.69199 2193.617363 895.957476 2244.176572 893.470358 C 2389.943122 886.338622 2536.789869 897.51567 2680.846108 925.383378 C 2783.104733 945.130496 2884.82326 973.657441 2978.530328 1017.466677 C 3091.590921 1070.295462 3189.768803 1143.081121 3282.905767 1218.443795 " stroke="#cccccc" stroke-width="1" stroke-opacity="1" stroke-miterlimit="10"/></g><g clip-path="url(#08c08d78be)"><path stroke-linecap="butt" transform="matrix(0.130185, 0, 0, 0.130359, 0.0341386, 31.707596)" fill="none" stroke-linejoin="miter" d="M -306.017923 1499.398239 C -219.902238 1483.516642 -119.924028 1478.901989 -28.79743 1477.973065 C 61.489015 1477.253898 145.264274 1478.422544 227.599271 1471.111017 C 306.243595 1464.398794 384.077772 1449.95553 459.751555 1430.657892 C 694.424299 1369.948239 921.415643 1260.005635 1175.291884 1161.060288 C 1312.656904 1107.482371 1456.353077 1058.489142 1601.069436 1012.642267 C 1765.919462 960.382823 1931.909695 912.857892 2102.400749 890.893344 C 2152.419859 884.450809 2202.799036 880.225705 2253.238223 878.218031 C 2398.734723 872.464698 2545.041372 884.540705 2688.677534 912.767997 C 2790.576094 932.784802 2891.90455 961.221851 2985.881667 1003.952337 C 3099.212309 1055.492614 3198.860459 1125.671295 3293.707735 1198.606781 " stroke="#cccccc" stroke-width="1" stroke-opacity="1" stroke-miterlimit="10"/></g><g clip-path="url(#71a0c9717e)"><path stroke-linecap="butt" transform="matrix(0.130185, 0, 0, 0.130359, 0.0341386, 31.707596)" fill="none" stroke-linejoin="miter" d="M -283.933901 1526.816468 C -197.158095 1513.901433 -97.960027 1509.047058 -6.983457 1506.020565 C 83.152961 1503.203829 167.138258 1500.65678 249.443249 1489.539662 C 327.967552 1479.201642 405.441663 1461.072648 480.36531 1438.239107 C 712.937671 1366.472267 935.548217 1246.551225 1187.084032 1142.721538 C 1323.158817 1086.506677 1466.104853 1036.434698 1610.521157 991.007337 C 1775.041123 939.257302 1941.331412 894.129594 2111.702443 874.082823 C 2161.691548 868.179663 2211.980708 864.493934 2262.329879 862.93574 C 2407.526325 858.530844 2553.352886 871.535774 2696.50896 900.122649 C 2798.107466 920.379177 2899.045851 948.756295 2993.263011 990.408031 C 3106.863703 1040.629837 3207.982121 1108.231503 3304.569713 1178.709836 " stroke="#cccccc" stroke-width="1" stroke-opacity="1" stroke-miterlimit="10"/></g><g clip-path="url(#dd29c6d362)"><path stroke-linecap="butt" transform="matrix(0.130185, 0, 0, 0.130359, 0.0341386, 31.707596)" fill="none" stroke-linejoin="miter" d="M -261.819873 1554.234697 C -174.413953 1544.286225 -75.996027 1539.192128 14.830517 1534.068065 C 104.756896 1529.183725 189.012242 1522.891016 271.257222 1507.968308 C 349.721514 1494.004489 426.805554 1472.189767 501.00907 1445.790357 C 731.451043 1362.996294 949.680791 1233.126781 1198.816169 1124.412753 C 1333.66073 1065.530982 1475.796619 1014.350288 1619.972879 969.372406 C 1784.162785 918.131781 1950.783133 875.401295 2121.004137 857.272302 C 2170.933231 851.938483 2221.16238 848.762163 2271.391529 847.683413 C 2416.317926 844.626955 2561.604389 858.560809 2704.340387 887.477302 C 2805.578826 908.003517 2906.157146 936.320705 3000.61435 976.893691 C 3114.485091 1025.797024 3217.073777 1090.821677 3315.371681 1158.842857 " stroke="#cccccc" stroke-width="1" stroke-opacity="1" stroke-miterlimit="10"/></g><g clip-path="url(#43d9530c29)"><path stroke-linecap="butt" transform="matrix(0.130185, 0, 0, 0.130359, 0.0341386, 31.707596)" fill="none" stroke-linejoin="miter" d="M -239.73585 1581.622961 C -151.66981 1574.641051 -54.032026 1569.337197 36.674495 1562.115565 C 126.420842 1555.133655 210.886226 1545.095287 293.101201 1526.396954 C 371.475476 1508.777371 448.169445 1483.306885 521.65283 1453.341607 C 749.99442 1359.520322 963.843371 1219.672371 1210.608317 1106.074003 C 1344.192648 1044.555288 1485.5784 992.295844 1629.454606 947.737476 C 1793.314452 897.00626 1960.234855 856.672997 2130.305832 840.461781 C 2180.234926 835.697302 2230.344053 833.030392 2280.483185 832.431087 C 2425.109527 830.723066 2569.885897 845.585844 2712.171813 874.86192 C 2813.110198 895.627858 2913.298447 923.855149 3007.965689 963.349385 C 3122.136485 1010.934246 3226.165433 1073.381885 3326.203654 1138.945913 " stroke="#cccccc" stroke-width="1" stroke-opacity="1" stroke-miterlimit="10"/></g><g clip-path="url(#b477dab3d2)"><path stroke-linecap="butt" transform="matrix(0.130185, 0, 0, 0.130359, 0.0341386, 31.707596)" fill="none" stroke-linejoin="miter" d="M -217.651828 1609.011225 C -128.925667 1605.025843 -32.068025 1599.482266 58.488469 1590.163065 C 148.054782 1581.083586 232.790216 1567.329523 314.915174 1544.8256 C 393.229439 1523.580218 469.533337 1494.394037 542.29659 1460.892857 C 768.537798 1356.04435 977.975945 1206.247927 1222.400465 1087.735253 C 1354.694561 1023.549628 1495.300171 970.241399 1638.906328 926.13251 C 1802.406108 875.88074 1969.686576 837.944698 2139.607526 823.651261 C 2189.476609 819.426156 2239.525725 817.298622 2289.574841 817.178761 C 2433.931134 816.819177 2578.197411 832.610879 2720.00324 862.246538 C 2820.611565 883.252198 2920.439747 911.419559 3015.347034 949.835045 C 3129.787878 996.101434 3235.317099 1055.972059 3337.065632 1119.108899 " stroke="#cccccc" stroke-width="1" stroke-opacity="1" stroke-miterlimit="10"/></g><g clip-path="url(#ac47698fff)"><path stroke-linecap="butt" transform="matrix(0.130185, 0, 0, 0.130359, 0.0341386, 31.707596)" fill="none" stroke-linejoin="miter" d="M -195.5378 1636.429454 C -106.181525 1635.410634 -10.104025 1629.627336 80.332447 1618.210565 C 169.688723 1607.063482 254.6642 1589.563759 336.729148 1563.284211 C 414.953395 1538.383065 490.867222 1505.511155 562.94035 1468.474072 C 787.05117 1352.568378 992.108519 1192.823482 1234.162607 1069.426469 C 1365.166468 1002.603899 1505.021942 948.186955 1648.358049 904.49758 C 1811.527769 854.755219 1979.108292 819.216399 2148.90922 806.84074 C 2198.718292 803.214941 2248.707397 801.566851 2298.636491 801.926434 C 2442.722735 802.915288 2586.478919 819.605948 2727.834666 849.631156 C 2828.112931 870.876538 2927.551043 899.013934 3022.698373 936.29074 C 3137.439272 981.268621 3244.408755 1038.562232 3347.8676 1099.24192 " stroke="#cccccc" stroke-width="1" stroke-opacity="1" stroke-miterlimit="10"/></g><g clip-path="url(#6ff39bb53a)"><path stroke-linecap="butt" transform="matrix(0.130185, 0, 0, 0.130359, 0.0341386, 31.707596)" fill="none" stroke-linejoin="miter" d="M -173.453778 1663.817718 C -83.467387 1665.765461 11.859976 1659.772405 102.14642 1646.258065 C 191.352669 1633.013412 276.508179 1611.797995 358.573126 1581.682891 C 436.707358 1553.155947 512.231114 1516.628273 583.58411 1475.995357 C 805.564542 1349.092406 1006.241093 1179.369073 1245.924749 1051.087719 C 1375.698387 981.598239 1514.773718 926.13251 1657.839776 882.862649 C 1820.679436 833.629698 1988.590019 800.488101 2158.210914 790.030219 C 2207.989981 786.943795 2257.919075 785.83508 2307.728147 786.644143 C 2451.514337 788.981434 2594.760428 806.630983 2735.666092 836.985809 C 2835.614297 858.500879 2934.692343 886.548378 3030.079717 922.746434 C 3145.090666 966.405844 3253.500411 1021.122441 3358.699572 1079.344975 " stroke="#cccccc" stroke-width="1" stroke-opacity="1" stroke-miterlimit="10"/></g><g clip-path="url(#6e823cf401)"><path stroke-linecap="butt" transform="matrix(0.130185, 0, 0, 0.130359, 0.0341386, 31.707596)" fill="none" stroke-linejoin="miter" d="M -151.369755 1691.235947 C -60.723245 1696.150252 33.793971 1689.917475 123.960394 1674.305565 C 212.986609 1658.963343 298.382163 1634.002266 380.3871 1600.111537 C 458.46132 1567.958794 533.595005 1527.715426 604.197865 1483.546607 C 824.077914 1345.616433 1020.373667 1165.914663 1257.686892 1032.748969 C 1386.200299 960.65251 1524.495489 904.078066 1667.291498 861.257684 C 1829.771092 812.504177 1998.011735 781.759802 2167.512608 773.219698 C 2217.26167 770.702615 2267.100748 770.133274 2316.789798 771.391816 C 2460.305938 775.077545 2603.041936 793.656018 2743.497519 824.340462 C 2843.115663 846.125219 2941.833644 874.082823 3037.461062 909.232094 C 3152.742059 951.573031 3262.622073 1003.712614 3369.561551 1059.477996 " stroke="#cccccc" stroke-width="1" stroke-opacity="1" stroke-miterlimit="10"/></g><g clip-path="url(#d115486358)"><path stroke-linecap="butt" transform="matrix(0.130185, 0, 0, 0.130359, 0.0341386, 31.707596)" fill="none" stroke-linejoin="miter" d="M -129.285733 1718.624211 C -37.979102 1726.505079 55.757971 1720.062544 145.804372 1702.353065 C 234.620549 1684.943238 320.256147 1656.236502 402.201073 1618.540183 C 480.185277 1582.761641 554.928891 1538.832544 624.841625 1491.097857 C 842.591286 1342.140461 1034.506241 1152.490218 1269.449034 1014.440184 C 1396.672207 939.646851 1534.217259 882.023622 1676.743219 839.622754 C 1838.892753 791.378656 2007.463457 763.031504 2176.814303 756.409177 C 2226.503353 754.461434 2276.252414 754.401504 2325.881454 756.13949 C 2469.097539 761.173656 2611.293439 780.681052 2751.328945 811.72508 C 2850.61703 833.749559 2948.944939 861.647233 3044.812401 895.687788 C 3160.363447 936.740219 3271.713729 986.302788 3380.363518 1039.611017 " stroke="#cccccc" stroke-width="1" stroke-opacity="1" stroke-miterlimit="10"/></g><g clip-path="url(#010c58cc6a)"><path stroke-linecap="butt" transform="matrix(0.130185, 0, 0, 0.130359, 0.0341386, 31.707596)" fill="none" stroke-linejoin="miter" d="M -107.20171 1746.04244 C -15.23496 1756.88987 77.721972 1750.207613 167.618346 1730.400565 C 256.25449 1710.893169 342.130131 1678.470738 424.045051 1636.968829 C 501.939239 1597.564489 576.292782 1549.949662 645.455379 1498.679072 C 861.134663 1338.694454 1048.638816 1139.035809 1281.211177 996.101434 C 1407.204125 918.701121 1543.93903 859.969177 1686.194941 817.987823 C 1848.014415 770.283101 2016.885173 744.303205 2186.115997 739.598656 C 2235.775042 738.220254 2285.464092 738.669733 2334.943104 740.857198 C 2477.889141 747.269768 2619.574948 767.676122 2759.160372 799.109698 C 2858.118396 821.373899 2956.056235 849.211642 3052.16374 882.173448 C 3168.014841 921.907406 3280.805385 968.892962 3391.195491 1019.744038 " stroke="#cccccc" stroke-width="1" stroke-opacity="1" stroke-miterlimit="10"/></g><g clip-path="url(#85b86c5861)"><path stroke-linecap="butt" transform="matrix(0.130185, 0, 0, 0.130359, 0.0341386, 31.707596)" fill="none" stroke-linejoin="miter" d="M -85.087683 1773.430704 C 185.501603 1813.853863 452.550243 1677.242162 666.099139 1506.230322 C 879.648035 1335.218482 1062.77139 1125.611364 1293.003324 977.792649 C 1601.159452 779.901955 1978.32815 705.737893 2344.03476 725.634837 C 2709.741371 745.501816 3065.786221 854.695288 3402.027464 999.847094 " stroke="#cccccc" stroke-width="1" stroke-opacity="1" stroke-miterlimit="10"/></g></svg>